G75*
%MOIN*%
%OFA0B0*%
%FSLAX25Y25*%
%IPPOS*%
%LPD*%
%AMOC8*
5,1,8,0,0,1.08239X$1,22.5*
%
%ADD10C,0.01600*%
%ADD11C,0.18100*%
%ADD12OC8,0.18100*%
%ADD13C,0.10000*%
%ADD14OC8,0.10000*%
%ADD15C,0.06600*%
%ADD16C,0.08250*%
%ADD17C,0.05200*%
%ADD18C,0.06000*%
%ADD19OC8,0.05200*%
%ADD20C,0.05200*%
%ADD21C,0.04400*%
%ADD22C,0.08600*%
%ADD23OC8,0.06496*%
%ADD24C,0.11850*%
%ADD25C,0.12400*%
%ADD26C,0.25500*%
%ADD27C,0.07050*%
%ADD28C,0.05000*%
%ADD29R,0.03962X0.03962*%
%ADD30C,0.04000*%
D10*
X0398800Y0291300D02*
X0398800Y0309716D01*
X0408008Y0309716D01*
X0411077Y0306646D01*
X0411077Y0300508D01*
X0408008Y0297439D01*
X0398800Y0297439D01*
X0417216Y0294369D02*
X0420285Y0291300D01*
X0426424Y0291300D01*
X0429493Y0294369D01*
X0429493Y0297439D01*
X0426424Y0300508D01*
X0420285Y0300508D01*
X0417216Y0303577D01*
X0417216Y0306646D01*
X0420285Y0309716D01*
X0426424Y0309716D01*
X0429493Y0306646D01*
X0435631Y0309716D02*
X0435631Y0294369D01*
X0438701Y0291300D01*
X0444839Y0291300D01*
X0447909Y0294369D01*
X0447909Y0309716D01*
X0447909Y0326300D02*
X0441770Y0332439D01*
X0444839Y0332439D02*
X0435631Y0332439D01*
X0444839Y0332439D02*
X0447909Y0335508D01*
X0447909Y0341646D01*
X0444839Y0344716D01*
X0435631Y0344716D01*
X0435631Y0326300D01*
X0429493Y0326300D02*
X0417216Y0326300D01*
X0417216Y0344716D01*
X0411077Y0341646D02*
X0408008Y0344716D01*
X0398800Y0344716D01*
X0398800Y0326300D01*
X0408008Y0326300D01*
X0411077Y0329369D01*
X0411077Y0341646D01*
D11*
X0408000Y0088000D03*
X0318000Y0088000D03*
X0228000Y0088000D03*
D12*
X0228000Y0048000D03*
X0318000Y0048000D03*
X0408000Y0048000D03*
D13*
X0228000Y0128000D03*
X0188000Y0153000D03*
X0148000Y0153000D03*
X0108000Y0153000D03*
X0348000Y0163000D03*
D14*
X0348000Y0143000D03*
X0228000Y0148000D03*
X0188000Y0173000D03*
X0148000Y0173000D03*
X0108000Y0173000D03*
D15*
X0148000Y0185500D03*
X0188000Y0185500D03*
X0203000Y0138000D03*
X0163000Y0138000D03*
X0318000Y0148000D03*
X0318000Y0188000D03*
X0278000Y0238000D03*
X0278000Y0278000D03*
X0383000Y0293000D03*
X0393000Y0258000D03*
X0383000Y0253000D03*
X0433000Y0258000D03*
D16*
X0367125Y0123000D02*
X0358875Y0123000D01*
X0307125Y0123000D02*
X0298875Y0123000D01*
X0167125Y0103000D02*
X0158875Y0103000D01*
X0158875Y0083000D02*
X0167125Y0083000D01*
X0167125Y0063000D02*
X0158875Y0063000D01*
X0158875Y0043000D02*
X0167125Y0043000D01*
X0097125Y0043000D02*
X0088875Y0043000D01*
X0088875Y0063000D02*
X0097125Y0063000D01*
X0097125Y0083000D02*
X0088875Y0083000D01*
X0088875Y0103000D02*
X0097125Y0103000D01*
X0093875Y0128000D02*
X0102125Y0128000D01*
X0153875Y0128000D02*
X0162125Y0128000D01*
D17*
X0298000Y0248000D03*
X0308000Y0248000D03*
X0318000Y0248000D03*
X0328000Y0248000D03*
X0328000Y0278000D03*
X0318000Y0278000D03*
X0308000Y0278000D03*
X0298000Y0278000D03*
X0268000Y0263000D03*
X0258000Y0263000D03*
X0248000Y0263000D03*
X0238000Y0263000D03*
X0238000Y0293000D03*
X0248000Y0293000D03*
X0258000Y0293000D03*
X0268000Y0293000D03*
D18*
X0198000Y0302500D02*
X0198000Y0308500D01*
X0188000Y0308500D02*
X0188000Y0302500D01*
X0168000Y0253500D02*
X0168000Y0247500D01*
X0158000Y0247500D02*
X0158000Y0253500D01*
X0198000Y0251000D02*
X0198000Y0245000D01*
X0208000Y0245000D02*
X0208000Y0251000D01*
D19*
X0153000Y0273000D03*
X0143000Y0273000D03*
X0143000Y0298000D03*
X0153000Y0298000D03*
D20*
X0190400Y0293000D02*
X0195600Y0293000D01*
X0195600Y0283000D02*
X0190400Y0283000D01*
X0190400Y0273000D02*
X0195600Y0273000D01*
X0338000Y0228100D02*
X0338000Y0222900D01*
X0348000Y0222900D02*
X0348000Y0228100D01*
X0358000Y0228100D02*
X0358000Y0222900D01*
X0308000Y0170600D02*
X0308000Y0165400D01*
X0298000Y0165400D02*
X0298000Y0170600D01*
X0288000Y0170600D02*
X0288000Y0165400D01*
X0288000Y0145600D02*
X0288000Y0140400D01*
X0298000Y0140400D02*
X0298000Y0145600D01*
X0308000Y0145600D02*
X0308000Y0140400D01*
D21*
X0240500Y0173000D03*
X0240500Y0183000D03*
X0240500Y0193000D03*
X0220500Y0193000D03*
X0220500Y0183000D03*
X0220500Y0173000D03*
X0333000Y0193000D03*
X0343000Y0193000D03*
X0353000Y0193000D03*
D22*
X0087685Y0208315D03*
X0068000Y0208315D03*
X0068000Y0228000D03*
X0087685Y0228000D03*
X0087685Y0247685D03*
X0068000Y0247685D03*
X0068000Y0278315D03*
X0087685Y0278315D03*
X0087685Y0298000D03*
X0068000Y0298000D03*
X0068000Y0317685D03*
X0087685Y0317685D03*
D23*
X0388000Y0238000D03*
X0470500Y0268000D03*
X0535500Y0268000D03*
X0535500Y0168000D03*
X0470500Y0168000D03*
X0388000Y0118000D03*
X0470500Y0063000D03*
X0535500Y0063000D03*
D24*
X0238800Y0217075D02*
X0238800Y0228925D01*
X0223000Y0228925D02*
X0223000Y0217075D01*
X0207200Y0217075D02*
X0207200Y0228925D01*
X0173800Y0228925D02*
X0173800Y0217075D01*
X0158000Y0217075D02*
X0158000Y0228925D01*
X0142200Y0228925D02*
X0142200Y0217075D01*
D25*
X0549800Y0301500D02*
X0562200Y0301500D01*
X0562200Y0344500D02*
X0549800Y0344500D01*
X0554800Y0239500D02*
X0567200Y0239500D01*
X0567200Y0196500D02*
X0554800Y0196500D01*
X0554800Y0134500D02*
X0567200Y0134500D01*
X0567200Y0091500D02*
X0554800Y0091500D01*
D26*
X0508500Y0113000D03*
X0627500Y0113000D03*
X0627500Y0218000D03*
X0508500Y0218000D03*
X0503500Y0323000D03*
X0622500Y0323000D03*
D27*
X0431604Y0227685D02*
X0424554Y0227685D01*
X0424554Y0208000D02*
X0431604Y0208000D01*
X0431604Y0188315D02*
X0424554Y0188315D01*
X0424475Y0167685D02*
X0431525Y0167685D01*
X0431525Y0128315D02*
X0424475Y0128315D01*
X0071604Y0133315D02*
X0064554Y0133315D01*
X0064554Y0153000D02*
X0071604Y0153000D01*
X0071604Y0172685D02*
X0064554Y0172685D01*
X0066525Y0102528D02*
X0059475Y0102528D01*
X0059475Y0082843D02*
X0066525Y0082843D01*
X0066525Y0063157D02*
X0059475Y0063157D01*
X0059475Y0043472D02*
X0066525Y0043472D01*
D28*
X0113000Y0083000D02*
X0133000Y0103000D01*
X0163000Y0103000D01*
X0208000Y0113000D02*
X0245500Y0113000D01*
X0245500Y0130500D01*
X0263000Y0148000D01*
X0280500Y0153000D02*
X0298000Y0153000D01*
X0283000Y0153000D01*
X0280500Y0153000D02*
X0258000Y0170500D01*
X0218000Y0140500D02*
X0208000Y0153000D01*
X0213000Y0145500D01*
X0218000Y0140500D02*
X0208000Y0123000D01*
X0208000Y0113000D01*
X0208000Y0153000D02*
X0208000Y0183000D01*
X0203000Y0193000D01*
X0125500Y0193000D01*
X0115500Y0203000D01*
X0308000Y0193000D02*
X0318000Y0203000D01*
X0328000Y0203000D01*
X0338000Y0213000D01*
X0398000Y0168000D02*
X0398000Y0108000D01*
X0373000Y0098000D01*
X0358000Y0098000D01*
X0333000Y0108000D01*
D29*
X0370500Y0110500D03*
X0298000Y0153000D03*
X0278000Y0175500D03*
X0258000Y0170500D03*
X0278000Y0188000D03*
X0308000Y0193000D03*
X0328000Y0173000D03*
X0338000Y0213000D03*
X0325500Y0225500D03*
X0318000Y0238000D03*
X0293000Y0235500D03*
X0270500Y0245500D03*
X0233000Y0243000D03*
X0225500Y0253000D03*
X0220500Y0260500D03*
X0258000Y0273000D03*
X0268000Y0273000D03*
X0278000Y0295500D03*
X0288000Y0305500D03*
X0315500Y0323000D03*
X0328000Y0315500D03*
X0318000Y0300500D03*
X0338000Y0285500D03*
X0333000Y0268000D03*
X0348000Y0245500D03*
X0363000Y0243000D03*
X0373000Y0258000D03*
X0425500Y0245500D03*
X0393000Y0208000D03*
X0398000Y0168000D03*
X0283000Y0218000D03*
X0190500Y0223000D03*
X0178000Y0260500D03*
X0120500Y0245500D03*
X0103000Y0238000D03*
X0115500Y0203000D03*
X0128000Y0143000D03*
X0113000Y0083000D03*
X0198000Y0043000D03*
X0255500Y0125500D03*
X0263000Y0148000D03*
X0113000Y0288000D03*
X0123000Y0325500D03*
X0235500Y0305500D03*
X0363000Y0328000D03*
D30*
X0045000Y0350961D02*
X0045000Y0030000D01*
X0454701Y0030000D01*
X0454701Y0290385D01*
X0454521Y0289951D01*
X0452327Y0287757D01*
X0452327Y0287757D01*
X0451452Y0286882D01*
X0451452Y0286882D01*
X0449258Y0284687D01*
X0449258Y0284687D01*
X0449258Y0284687D01*
X0448360Y0284316D01*
X0446391Y0283500D01*
X0437149Y0283500D01*
X0434282Y0284687D01*
X0432562Y0286408D01*
X0430842Y0284687D01*
X0430842Y0284687D01*
X0430060Y0284364D01*
X0427975Y0283500D01*
X0418733Y0283500D01*
X0415867Y0284687D01*
X0410603Y0289951D01*
X0410561Y0290053D01*
X0409559Y0289639D01*
X0406554Y0289639D01*
X0405413Y0286882D01*
X0403218Y0284687D01*
X0400352Y0283500D01*
X0397248Y0283500D01*
X0394382Y0284687D01*
X0392187Y0286882D01*
X0391842Y0287715D01*
X0391242Y0286676D01*
X0389324Y0284758D01*
X0386976Y0283402D01*
X0384356Y0282700D01*
X0381644Y0282700D01*
X0379024Y0283402D01*
X0376676Y0284758D01*
X0374758Y0286676D01*
X0373402Y0289024D01*
X0372700Y0291644D01*
X0372700Y0294356D01*
X0373402Y0296976D01*
X0374758Y0299324D01*
X0376676Y0301242D01*
X0379024Y0302598D01*
X0381644Y0303300D01*
X0384356Y0303300D01*
X0386976Y0302598D01*
X0389324Y0301242D01*
X0391000Y0299566D01*
X0391000Y0311267D01*
X0392187Y0314134D01*
X0394382Y0316328D01*
X0397248Y0317516D01*
X0409559Y0317516D01*
X0412426Y0316328D01*
X0414146Y0314608D01*
X0415826Y0316288D01*
X0415867Y0316328D01*
X0415867Y0316328D01*
X0417512Y0317010D01*
X0418733Y0317516D01*
X0427975Y0317516D01*
X0430842Y0316328D01*
X0431028Y0316143D01*
X0431213Y0316328D01*
X0434080Y0317516D01*
X0437183Y0317516D01*
X0440050Y0316328D01*
X0441770Y0314608D01*
X0443490Y0316328D01*
X0446357Y0317516D01*
X0449460Y0317516D01*
X0452327Y0316328D01*
X0454521Y0314134D01*
X0454701Y0313700D01*
X0454701Y0322315D01*
X0454521Y0321882D01*
X0452327Y0319687D01*
X0449460Y0318500D01*
X0446357Y0318500D01*
X0443490Y0319687D01*
X0441770Y0321408D01*
X0440050Y0319687D01*
X0437183Y0318500D01*
X0434080Y0318500D01*
X0432562Y0319129D01*
X0431044Y0318500D01*
X0415664Y0318500D01*
X0412797Y0319687D01*
X0412612Y0319873D01*
X0412426Y0319687D01*
X0412426Y0319687D01*
X0411529Y0319316D01*
X0409559Y0318500D01*
X0397248Y0318500D01*
X0394382Y0319687D01*
X0392187Y0321882D01*
X0391000Y0324748D01*
X0391000Y0346267D01*
X0392187Y0349134D01*
X0394014Y0350961D01*
X0045000Y0350961D01*
X0045000Y0348882D02*
X0392083Y0348882D01*
X0391000Y0344884D02*
X0045000Y0344884D01*
X0045000Y0340885D02*
X0391000Y0340885D01*
X0391000Y0336887D02*
X0366601Y0336887D01*
X0366373Y0336981D02*
X0364836Y0336981D01*
X0364790Y0337000D01*
X0361210Y0337000D01*
X0361164Y0336981D01*
X0359627Y0336981D01*
X0357054Y0335915D01*
X0355085Y0333946D01*
X0354019Y0331373D01*
X0354019Y0329836D01*
X0354000Y0329790D01*
X0354000Y0307228D01*
X0353098Y0308130D01*
X0349790Y0309500D01*
X0335862Y0309500D01*
X0335915Y0309554D01*
X0336981Y0312127D01*
X0336981Y0313664D01*
X0337000Y0313710D01*
X0337000Y0317290D01*
X0336981Y0317336D01*
X0336981Y0318873D01*
X0335915Y0321446D01*
X0333946Y0323415D01*
X0331373Y0324481D01*
X0329836Y0324481D01*
X0329790Y0324500D01*
X0324500Y0324500D01*
X0324500Y0324790D01*
X0324481Y0324836D01*
X0324481Y0326373D01*
X0323415Y0328946D01*
X0321446Y0330915D01*
X0318873Y0331981D01*
X0317336Y0331981D01*
X0317290Y0332000D01*
X0230125Y0332000D01*
X0228331Y0332897D01*
X0228098Y0333130D01*
X0226739Y0333693D01*
X0225424Y0334350D01*
X0225095Y0334374D01*
X0224790Y0334500D01*
X0223319Y0334500D01*
X0221852Y0334604D01*
X0221539Y0334500D01*
X0121210Y0334500D01*
X0121164Y0334481D01*
X0119627Y0334481D01*
X0117054Y0333415D01*
X0115085Y0331446D01*
X0114019Y0328873D01*
X0114019Y0327336D01*
X0114000Y0327290D01*
X0114000Y0323710D01*
X0114019Y0323664D01*
X0114019Y0322127D01*
X0115085Y0319554D01*
X0115955Y0318683D01*
X0098515Y0301243D01*
X0098215Y0302362D01*
X0096727Y0304938D01*
X0094623Y0307042D01*
X0093237Y0307843D01*
X0094623Y0308643D01*
X0096727Y0310747D01*
X0098215Y0313323D01*
X0098985Y0316197D01*
X0098985Y0319173D01*
X0098215Y0322047D01*
X0096727Y0324623D01*
X0094623Y0326727D01*
X0092047Y0328215D01*
X0089173Y0328985D01*
X0086197Y0328985D01*
X0083323Y0328215D01*
X0080747Y0326727D01*
X0078643Y0324623D01*
X0077843Y0323237D01*
X0077042Y0324623D01*
X0074938Y0326727D01*
X0072362Y0328215D01*
X0069488Y0328985D01*
X0066512Y0328985D01*
X0063638Y0328215D01*
X0061062Y0326727D01*
X0058958Y0324623D01*
X0057470Y0322047D01*
X0056700Y0319173D01*
X0056700Y0316197D01*
X0057470Y0313323D01*
X0058958Y0310747D01*
X0061062Y0308643D01*
X0062448Y0307843D01*
X0061062Y0307042D01*
X0058958Y0304938D01*
X0057470Y0302362D01*
X0056700Y0299488D01*
X0056700Y0296512D01*
X0057470Y0293638D01*
X0058958Y0291062D01*
X0061062Y0288958D01*
X0062448Y0288157D01*
X0061062Y0287357D01*
X0058958Y0285253D01*
X0057470Y0282677D01*
X0056700Y0279803D01*
X0056700Y0276827D01*
X0057470Y0273953D01*
X0058958Y0271377D01*
X0061062Y0269273D01*
X0063638Y0267785D01*
X0066512Y0267015D01*
X0069488Y0267015D01*
X0072362Y0267785D01*
X0074938Y0269273D01*
X0077042Y0271377D01*
X0077843Y0272763D01*
X0078643Y0271377D01*
X0080747Y0269273D01*
X0083323Y0267785D01*
X0086197Y0267015D01*
X0089173Y0267015D01*
X0092047Y0267785D01*
X0094000Y0268913D01*
X0094000Y0257087D01*
X0092047Y0258215D01*
X0089173Y0258985D01*
X0086197Y0258985D01*
X0083323Y0258215D01*
X0080747Y0256727D01*
X0078643Y0254623D01*
X0077843Y0253237D01*
X0077042Y0254623D01*
X0074938Y0256727D01*
X0072362Y0258215D01*
X0069488Y0258985D01*
X0066512Y0258985D01*
X0063638Y0258215D01*
X0061062Y0256727D01*
X0058958Y0254623D01*
X0057470Y0252047D01*
X0056700Y0249173D01*
X0056700Y0246197D01*
X0057470Y0243323D01*
X0058958Y0240747D01*
X0061062Y0238643D01*
X0062448Y0237843D01*
X0061062Y0237042D01*
X0058958Y0234938D01*
X0057470Y0232362D01*
X0056700Y0229488D01*
X0056700Y0226512D01*
X0057470Y0223638D01*
X0058958Y0221062D01*
X0061062Y0218958D01*
X0062448Y0218157D01*
X0061062Y0217357D01*
X0058958Y0215253D01*
X0057470Y0212677D01*
X0056700Y0209803D01*
X0056700Y0206827D01*
X0057470Y0203953D01*
X0058958Y0201377D01*
X0061062Y0199273D01*
X0063638Y0197785D01*
X0066512Y0197015D01*
X0069488Y0197015D01*
X0072362Y0197785D01*
X0074938Y0199273D01*
X0077042Y0201377D01*
X0077843Y0202763D01*
X0078643Y0201377D01*
X0080747Y0199273D01*
X0083323Y0197785D01*
X0086197Y0197015D01*
X0089173Y0197015D01*
X0092047Y0197785D01*
X0094623Y0199273D01*
X0096727Y0201377D01*
X0098215Y0203953D01*
X0098985Y0206827D01*
X0098985Y0209803D01*
X0098215Y0212677D01*
X0096727Y0215253D01*
X0094623Y0217357D01*
X0093237Y0218157D01*
X0094623Y0218958D01*
X0096727Y0221062D01*
X0098215Y0223638D01*
X0098985Y0226512D01*
X0098985Y0229285D01*
X0099627Y0229019D01*
X0101164Y0229019D01*
X0101210Y0229000D01*
X0104790Y0229000D01*
X0104836Y0229019D01*
X0106373Y0229019D01*
X0108946Y0230085D01*
X0110915Y0232054D01*
X0111500Y0233465D01*
X0111500Y0213710D01*
X0112216Y0211981D01*
X0112127Y0211981D01*
X0109554Y0210915D01*
X0107585Y0208946D01*
X0106519Y0206373D01*
X0106519Y0206142D01*
X0106000Y0204890D01*
X0106000Y0201110D01*
X0106519Y0199858D01*
X0106519Y0199627D01*
X0107585Y0197054D01*
X0109554Y0195085D01*
X0110282Y0194783D01*
X0117446Y0187619D01*
X0120119Y0184946D01*
X0123610Y0183500D01*
X0137873Y0183500D01*
X0138402Y0181524D01*
X0138824Y0180794D01*
X0136000Y0177971D01*
X0136000Y0168029D01*
X0141136Y0162893D01*
X0140632Y0162602D01*
X0138398Y0160368D01*
X0136818Y0157632D01*
X0136000Y0154580D01*
X0136000Y0151420D01*
X0136818Y0148368D01*
X0138398Y0145632D01*
X0140632Y0143398D01*
X0143368Y0141818D01*
X0146420Y0141000D01*
X0149580Y0141000D01*
X0152632Y0141818D01*
X0153650Y0142406D01*
X0153402Y0141976D01*
X0152700Y0139356D01*
X0152700Y0139125D01*
X0152410Y0139125D01*
X0149581Y0138367D01*
X0147044Y0136902D01*
X0144973Y0134831D01*
X0143508Y0132294D01*
X0142750Y0129465D01*
X0142750Y0126535D01*
X0143508Y0123706D01*
X0144493Y0122000D01*
X0137000Y0122000D01*
X0137000Y0144790D01*
X0136981Y0144836D01*
X0136981Y0146373D01*
X0135915Y0148946D01*
X0133946Y0150915D01*
X0131373Y0151981D01*
X0129836Y0151981D01*
X0129790Y0152000D01*
X0126210Y0152000D01*
X0126164Y0151981D01*
X0124627Y0151981D01*
X0122054Y0150915D01*
X0120085Y0148946D01*
X0119019Y0146373D01*
X0119019Y0144836D01*
X0119000Y0144790D01*
X0119000Y0111210D01*
X0120370Y0107902D01*
X0122419Y0105854D01*
X0107782Y0091217D01*
X0107054Y0090915D01*
X0105998Y0089860D01*
X0103956Y0091902D01*
X0102054Y0093000D01*
X0103956Y0094098D01*
X0106027Y0096169D01*
X0107492Y0098706D01*
X0108250Y0101535D01*
X0108250Y0104465D01*
X0107492Y0107294D01*
X0106027Y0109831D01*
X0103956Y0111902D01*
X0101419Y0113367D01*
X0098590Y0114125D01*
X0087410Y0114125D01*
X0084581Y0113367D01*
X0082044Y0111902D01*
X0079973Y0109831D01*
X0078508Y0107294D01*
X0077750Y0104465D01*
X0077750Y0101535D01*
X0078508Y0098706D01*
X0079973Y0096169D01*
X0082044Y0094098D01*
X0083946Y0093000D01*
X0082044Y0091902D01*
X0079973Y0089831D01*
X0078508Y0087294D01*
X0077750Y0084465D01*
X0077750Y0081535D01*
X0078508Y0078706D01*
X0079973Y0076169D01*
X0082044Y0074098D01*
X0083946Y0073000D01*
X0082044Y0071902D01*
X0079973Y0069831D01*
X0078508Y0067294D01*
X0077750Y0064465D01*
X0077750Y0061535D01*
X0078508Y0058706D01*
X0079973Y0056169D01*
X0082044Y0054098D01*
X0083946Y0053000D01*
X0082044Y0051902D01*
X0079973Y0049831D01*
X0078508Y0047294D01*
X0077750Y0044465D01*
X0077750Y0041535D01*
X0078508Y0038706D01*
X0079973Y0036169D01*
X0082044Y0034098D01*
X0084581Y0032633D01*
X0087410Y0031875D01*
X0098590Y0031875D01*
X0101419Y0032633D01*
X0103956Y0034098D01*
X0106027Y0036169D01*
X0107492Y0038706D01*
X0108250Y0041535D01*
X0108250Y0044465D01*
X0107492Y0047294D01*
X0106027Y0049831D01*
X0103956Y0051902D01*
X0102054Y0053000D01*
X0103956Y0054098D01*
X0106027Y0056169D01*
X0107492Y0058706D01*
X0108250Y0061535D01*
X0108250Y0064465D01*
X0107492Y0067294D01*
X0106027Y0069831D01*
X0103956Y0071902D01*
X0102054Y0073000D01*
X0103956Y0074098D01*
X0105998Y0076140D01*
X0107054Y0075085D01*
X0109627Y0074019D01*
X0109858Y0074019D01*
X0111110Y0073500D01*
X0114890Y0073500D01*
X0116142Y0074019D01*
X0116373Y0074019D01*
X0118946Y0075085D01*
X0120915Y0077054D01*
X0121217Y0077782D01*
X0136935Y0093500D01*
X0153079Y0093500D01*
X0153946Y0093000D01*
X0152044Y0091902D01*
X0149973Y0089831D01*
X0148508Y0087294D01*
X0147750Y0084465D01*
X0147750Y0081535D01*
X0148508Y0078706D01*
X0149973Y0076169D01*
X0152044Y0074098D01*
X0153946Y0073000D01*
X0152044Y0071902D01*
X0149973Y0069831D01*
X0148508Y0067294D01*
X0147750Y0064465D01*
X0147750Y0061535D01*
X0148508Y0058706D01*
X0149973Y0056169D01*
X0152044Y0054098D01*
X0153946Y0053000D01*
X0152044Y0051902D01*
X0149973Y0049831D01*
X0148508Y0047294D01*
X0147750Y0044465D01*
X0147750Y0041535D01*
X0148508Y0038706D01*
X0149973Y0036169D01*
X0152044Y0034098D01*
X0154581Y0032633D01*
X0157410Y0031875D01*
X0168590Y0031875D01*
X0171419Y0032633D01*
X0173956Y0034098D01*
X0176027Y0036169D01*
X0177492Y0038706D01*
X0178250Y0041535D01*
X0178250Y0044465D01*
X0177492Y0047294D01*
X0176027Y0049831D01*
X0173956Y0051902D01*
X0172054Y0053000D01*
X0173956Y0054098D01*
X0174606Y0054748D01*
X0175370Y0052902D01*
X0177902Y0050370D01*
X0189283Y0038989D01*
X0190085Y0037054D01*
X0192054Y0035085D01*
X0194627Y0034019D01*
X0196164Y0034019D01*
X0196210Y0034000D01*
X0199790Y0034000D01*
X0199836Y0034019D01*
X0201373Y0034019D01*
X0203946Y0035085D01*
X0205915Y0037054D01*
X0206981Y0039627D01*
X0206981Y0041164D01*
X0207000Y0041210D01*
X0207000Y0044790D01*
X0206981Y0044836D01*
X0206981Y0046373D01*
X0205915Y0048946D01*
X0203946Y0050915D01*
X0202011Y0051717D01*
X0192000Y0061728D01*
X0192000Y0114790D01*
X0190630Y0118098D01*
X0188098Y0120630D01*
X0184790Y0122000D01*
X0171507Y0122000D01*
X0172492Y0123706D01*
X0173250Y0126535D01*
X0173250Y0129465D01*
X0172492Y0132294D01*
X0172045Y0133067D01*
X0172598Y0134024D01*
X0173300Y0136644D01*
X0173300Y0139356D01*
X0172598Y0141976D01*
X0171242Y0144324D01*
X0169324Y0146242D01*
X0166976Y0147598D01*
X0164356Y0148300D01*
X0161644Y0148300D01*
X0159024Y0147598D01*
X0158594Y0147350D01*
X0159182Y0148368D01*
X0160000Y0151420D01*
X0160000Y0154580D01*
X0159182Y0157632D01*
X0157602Y0160368D01*
X0155368Y0162602D01*
X0154864Y0162893D01*
X0160000Y0168029D01*
X0160000Y0177971D01*
X0157176Y0180794D01*
X0157598Y0181524D01*
X0158127Y0183500D01*
X0177873Y0183500D01*
X0178402Y0181524D01*
X0178824Y0180794D01*
X0176000Y0177971D01*
X0176000Y0168029D01*
X0181136Y0162893D01*
X0180632Y0162602D01*
X0178398Y0160368D01*
X0176818Y0157632D01*
X0176000Y0154580D01*
X0176000Y0151420D01*
X0176818Y0148368D01*
X0178398Y0145632D01*
X0180632Y0143398D01*
X0183368Y0141818D01*
X0186420Y0141000D01*
X0189580Y0141000D01*
X0192632Y0141818D01*
X0193650Y0142406D01*
X0193402Y0141976D01*
X0192700Y0139356D01*
X0192700Y0136644D01*
X0193402Y0134024D01*
X0194758Y0131676D01*
X0196676Y0129758D01*
X0199024Y0128402D01*
X0199862Y0128178D01*
X0199453Y0127191D01*
X0198814Y0126073D01*
X0198736Y0125460D01*
X0198500Y0124890D01*
X0198500Y0123601D01*
X0198338Y0122323D01*
X0198500Y0121728D01*
X0198500Y0111110D01*
X0199946Y0107619D01*
X0202619Y0104946D01*
X0206110Y0103500D01*
X0223834Y0103500D01*
X0221805Y0102956D01*
X0218145Y0100843D01*
X0215157Y0097855D01*
X0213044Y0094195D01*
X0211950Y0090113D01*
X0211950Y0085887D01*
X0213044Y0081805D01*
X0215157Y0078145D01*
X0218145Y0075157D01*
X0221805Y0073044D01*
X0225887Y0071950D01*
X0230113Y0071950D01*
X0234195Y0073044D01*
X0237855Y0075157D01*
X0240843Y0078145D01*
X0242956Y0081805D01*
X0244050Y0085887D01*
X0244050Y0090113D01*
X0242956Y0094195D01*
X0240843Y0097855D01*
X0237855Y0100843D01*
X0234195Y0102956D01*
X0232166Y0103500D01*
X0247390Y0103500D01*
X0250881Y0104946D01*
X0253554Y0107619D01*
X0255000Y0111110D01*
X0255000Y0113272D01*
X0262870Y0105402D01*
X0265402Y0102870D01*
X0268710Y0101500D01*
X0309283Y0101500D01*
X0308145Y0100843D01*
X0305157Y0097855D01*
X0303044Y0094195D01*
X0301950Y0090113D01*
X0301950Y0085887D01*
X0303044Y0081805D01*
X0305157Y0078145D01*
X0308145Y0075157D01*
X0311805Y0073044D01*
X0315887Y0071950D01*
X0320113Y0071950D01*
X0324195Y0073044D01*
X0327855Y0075157D01*
X0330843Y0078145D01*
X0332956Y0081805D01*
X0334050Y0085887D01*
X0334050Y0090113D01*
X0332956Y0094195D01*
X0330843Y0097855D01*
X0329550Y0099148D01*
X0354418Y0089201D01*
X0356110Y0088500D01*
X0356170Y0088500D01*
X0356226Y0088478D01*
X0358058Y0088500D01*
X0372942Y0088500D01*
X0374774Y0088478D01*
X0374830Y0088500D01*
X0374890Y0088500D01*
X0376582Y0089201D01*
X0394238Y0096263D01*
X0393044Y0094195D01*
X0391950Y0090113D01*
X0391950Y0085887D01*
X0393044Y0081805D01*
X0395157Y0078145D01*
X0398145Y0075157D01*
X0401805Y0073044D01*
X0405887Y0071950D01*
X0410113Y0071950D01*
X0414195Y0073044D01*
X0417855Y0075157D01*
X0420843Y0078145D01*
X0422956Y0081805D01*
X0424050Y0085887D01*
X0424050Y0090113D01*
X0422956Y0094195D01*
X0420843Y0097855D01*
X0417855Y0100843D01*
X0414195Y0102956D01*
X0410113Y0104050D01*
X0406647Y0104050D01*
X0406755Y0104311D01*
X0407476Y0105995D01*
X0407477Y0106055D01*
X0407500Y0106110D01*
X0407500Y0107942D01*
X0407522Y0109774D01*
X0407500Y0109830D01*
X0407500Y0169890D01*
X0406981Y0171142D01*
X0406981Y0171373D01*
X0405915Y0173946D01*
X0403946Y0175915D01*
X0401373Y0176981D01*
X0401142Y0176981D01*
X0399890Y0177500D01*
X0396110Y0177500D01*
X0394858Y0176981D01*
X0394627Y0176981D01*
X0392054Y0175915D01*
X0390085Y0173946D01*
X0389019Y0171373D01*
X0389019Y0171142D01*
X0388500Y0169890D01*
X0388500Y0128248D01*
X0387000Y0128248D01*
X0387000Y0200138D01*
X0387054Y0200085D01*
X0389627Y0199019D01*
X0391164Y0199019D01*
X0391210Y0199000D01*
X0394790Y0199000D01*
X0394836Y0199019D01*
X0396373Y0199019D01*
X0398946Y0200085D01*
X0400915Y0202054D01*
X0401717Y0203989D01*
X0403098Y0205370D01*
X0405630Y0207902D01*
X0407000Y0211210D01*
X0407000Y0229272D01*
X0411728Y0234000D01*
X0416046Y0234000D01*
X0414746Y0231748D01*
X0414029Y0229071D01*
X0414029Y0226299D01*
X0414746Y0223623D01*
X0416132Y0221223D01*
X0418091Y0219263D01*
X0420491Y0217877D01*
X0420621Y0217843D01*
X0420491Y0217808D01*
X0418091Y0216422D01*
X0416132Y0214462D01*
X0414746Y0212062D01*
X0414029Y0209386D01*
X0414029Y0206614D01*
X0414746Y0203937D01*
X0416132Y0201537D01*
X0418091Y0199578D01*
X0420491Y0198192D01*
X0420621Y0198157D01*
X0420491Y0198123D01*
X0418091Y0196737D01*
X0416132Y0194777D01*
X0414746Y0192377D01*
X0414029Y0189701D01*
X0414029Y0186929D01*
X0414746Y0184252D01*
X0416132Y0181852D01*
X0418091Y0179893D01*
X0420491Y0178507D01*
X0422345Y0178011D01*
X0420412Y0177493D01*
X0418012Y0176107D01*
X0416053Y0174148D01*
X0414667Y0171748D01*
X0413950Y0169071D01*
X0413950Y0166299D01*
X0414667Y0163623D01*
X0416053Y0161223D01*
X0418012Y0159263D01*
X0420412Y0157877D01*
X0423089Y0157160D01*
X0432911Y0157160D01*
X0435587Y0157877D01*
X0437987Y0159263D01*
X0439947Y0161223D01*
X0441333Y0163623D01*
X0442050Y0166299D01*
X0442050Y0169071D01*
X0441333Y0171748D01*
X0439947Y0174148D01*
X0437987Y0176107D01*
X0435587Y0177493D01*
X0433734Y0177989D01*
X0435666Y0178507D01*
X0438066Y0179893D01*
X0440026Y0181852D01*
X0441411Y0184252D01*
X0442129Y0186929D01*
X0442129Y0189701D01*
X0441411Y0192377D01*
X0440026Y0194777D01*
X0438066Y0196737D01*
X0435666Y0198123D01*
X0435536Y0198157D01*
X0435666Y0198192D01*
X0438066Y0199578D01*
X0440026Y0201537D01*
X0441411Y0203937D01*
X0442129Y0206614D01*
X0442129Y0209386D01*
X0441411Y0212062D01*
X0440026Y0214462D01*
X0438066Y0216422D01*
X0435666Y0217808D01*
X0435536Y0217843D01*
X0435666Y0217877D01*
X0438066Y0219263D01*
X0440026Y0221223D01*
X0441411Y0223623D01*
X0442129Y0226299D01*
X0442129Y0229071D01*
X0441411Y0231748D01*
X0440026Y0234148D01*
X0438066Y0236107D01*
X0435666Y0237493D01*
X0432989Y0238210D01*
X0432072Y0238210D01*
X0433415Y0239554D01*
X0434481Y0242127D01*
X0434481Y0243664D01*
X0434500Y0243710D01*
X0434500Y0247290D01*
X0434481Y0247336D01*
X0434481Y0247734D01*
X0436976Y0248402D01*
X0439324Y0249758D01*
X0441242Y0251676D01*
X0442598Y0254024D01*
X0443300Y0256644D01*
X0443300Y0259356D01*
X0442598Y0261976D01*
X0441242Y0264324D01*
X0439324Y0266242D01*
X0436976Y0267598D01*
X0434356Y0268300D01*
X0431644Y0268300D01*
X0429024Y0267598D01*
X0426676Y0266242D01*
X0424758Y0264324D01*
X0423402Y0261976D01*
X0422700Y0259356D01*
X0422700Y0256644D01*
X0423280Y0254481D01*
X0422127Y0254481D01*
X0419554Y0253415D01*
X0418138Y0252000D01*
X0406210Y0252000D01*
X0402902Y0250630D01*
X0400370Y0248098D01*
X0396382Y0244110D01*
X0392793Y0247700D01*
X0394356Y0247700D01*
X0396976Y0248402D01*
X0399324Y0249758D01*
X0401242Y0251676D01*
X0402598Y0254024D01*
X0403300Y0256644D01*
X0403300Y0259356D01*
X0402598Y0261976D01*
X0401242Y0264324D01*
X0399324Y0266242D01*
X0396976Y0267598D01*
X0394356Y0268300D01*
X0391644Y0268300D01*
X0389024Y0267598D01*
X0386676Y0266242D01*
X0384758Y0264324D01*
X0384167Y0263300D01*
X0382000Y0263300D01*
X0382000Y0264790D01*
X0380630Y0268098D01*
X0372000Y0276728D01*
X0372000Y0329790D01*
X0371981Y0329836D01*
X0371981Y0331373D01*
X0370915Y0333946D01*
X0368946Y0335915D01*
X0366373Y0336981D01*
X0371354Y0332888D02*
X0391000Y0332888D01*
X0391000Y0328890D02*
X0372000Y0328890D01*
X0372000Y0324891D02*
X0391000Y0324891D01*
X0393176Y0320893D02*
X0372000Y0320893D01*
X0372000Y0316894D02*
X0395748Y0316894D01*
X0391675Y0312896D02*
X0372000Y0312896D01*
X0372000Y0308897D02*
X0391000Y0308897D01*
X0391000Y0304899D02*
X0372000Y0304899D01*
X0372000Y0300900D02*
X0376334Y0300900D01*
X0373382Y0296902D02*
X0372000Y0296902D01*
X0372000Y0292903D02*
X0372700Y0292903D01*
X0372000Y0288905D02*
X0373471Y0288905D01*
X0372000Y0284906D02*
X0376527Y0284906D01*
X0372000Y0280908D02*
X0454701Y0280908D01*
X0454701Y0284906D02*
X0449476Y0284906D01*
X0453475Y0288905D02*
X0454701Y0288905D01*
X0454701Y0276909D02*
X0372000Y0276909D01*
X0375817Y0272911D02*
X0454701Y0272911D01*
X0454701Y0268912D02*
X0379816Y0268912D01*
X0381949Y0264914D02*
X0385347Y0264914D01*
X0373000Y0263000D02*
X0373000Y0258000D01*
X0373000Y0263000D02*
X0363000Y0273000D01*
X0363000Y0328000D01*
X0354000Y0328890D02*
X0323439Y0328890D01*
X0324481Y0324891D02*
X0354000Y0324891D01*
X0354000Y0320893D02*
X0336145Y0320893D01*
X0337000Y0316894D02*
X0354000Y0316894D01*
X0354000Y0312896D02*
X0336981Y0312896D01*
X0328000Y0315500D02*
X0223000Y0315500D01*
X0218000Y0318000D01*
X0128000Y0318000D01*
X0103000Y0293000D01*
X0103000Y0238000D01*
X0094000Y0238283D02*
X0094000Y0237402D01*
X0093237Y0237843D01*
X0094000Y0238283D01*
X0082133Y0237843D02*
X0080747Y0237042D01*
X0078643Y0234938D01*
X0077843Y0233552D01*
X0077042Y0234938D01*
X0074938Y0237042D01*
X0073552Y0237843D01*
X0074938Y0238643D01*
X0077042Y0240747D01*
X0077843Y0242133D01*
X0078643Y0240747D01*
X0080747Y0238643D01*
X0082133Y0237843D01*
X0080629Y0236924D02*
X0075057Y0236924D01*
X0077144Y0240923D02*
X0078541Y0240923D01*
X0060943Y0236924D02*
X0045000Y0236924D01*
X0045000Y0240923D02*
X0058856Y0240923D01*
X0057042Y0244921D02*
X0045000Y0244921D01*
X0045000Y0248920D02*
X0056700Y0248920D01*
X0057973Y0252918D02*
X0045000Y0252918D01*
X0045000Y0256917D02*
X0061390Y0256917D01*
X0074610Y0256917D02*
X0081075Y0256917D01*
X0094000Y0260915D02*
X0045000Y0260915D01*
X0045000Y0264914D02*
X0094000Y0264914D01*
X0093999Y0268912D02*
X0094000Y0268912D01*
X0081371Y0268912D02*
X0074314Y0268912D01*
X0061686Y0268912D02*
X0045000Y0268912D01*
X0045000Y0272911D02*
X0058072Y0272911D01*
X0056700Y0276909D02*
X0045000Y0276909D01*
X0045000Y0280908D02*
X0056996Y0280908D01*
X0058757Y0284906D02*
X0045000Y0284906D01*
X0045000Y0288905D02*
X0061153Y0288905D01*
X0057895Y0292903D02*
X0045000Y0292903D01*
X0045000Y0296902D02*
X0056700Y0296902D01*
X0057079Y0300900D02*
X0045000Y0300900D01*
X0045000Y0304899D02*
X0058935Y0304899D01*
X0060807Y0308897D02*
X0045000Y0308897D01*
X0045000Y0312896D02*
X0057717Y0312896D01*
X0056700Y0316894D02*
X0045000Y0316894D01*
X0045000Y0320893D02*
X0057161Y0320893D01*
X0059226Y0324891D02*
X0045000Y0324891D01*
X0045000Y0328890D02*
X0066157Y0328890D01*
X0069843Y0328890D02*
X0085842Y0328890D01*
X0089528Y0328890D02*
X0114026Y0328890D01*
X0114000Y0324891D02*
X0096459Y0324891D01*
X0098524Y0320893D02*
X0114530Y0320893D01*
X0114166Y0316894D02*
X0098985Y0316894D01*
X0097968Y0312896D02*
X0110168Y0312896D01*
X0106169Y0308897D02*
X0094878Y0308897D01*
X0096750Y0304899D02*
X0102171Y0304899D01*
X0118732Y0296004D02*
X0131728Y0309000D01*
X0178000Y0309000D01*
X0178000Y0300511D01*
X0179522Y0296835D01*
X0180990Y0295368D01*
X0180800Y0294910D01*
X0180800Y0291090D01*
X0182080Y0288000D01*
X0180800Y0284910D01*
X0180800Y0281090D01*
X0182080Y0278000D01*
X0180800Y0274910D01*
X0180800Y0271090D01*
X0181486Y0269435D01*
X0181373Y0269481D01*
X0179836Y0269481D01*
X0179790Y0269500D01*
X0162600Y0269500D01*
X0162600Y0276976D01*
X0156976Y0282600D01*
X0149024Y0282600D01*
X0148000Y0281576D01*
X0146976Y0282600D01*
X0139024Y0282600D01*
X0134163Y0277739D01*
X0121927Y0291504D01*
X0120915Y0293946D01*
X0118946Y0295915D01*
X0118732Y0296004D01*
X0119630Y0296902D02*
X0133400Y0296902D01*
X0133400Y0294024D02*
X0139024Y0288400D01*
X0146976Y0288400D01*
X0148000Y0289424D01*
X0149024Y0288400D01*
X0156976Y0288400D01*
X0162600Y0294024D01*
X0162600Y0301976D01*
X0156976Y0307600D01*
X0149024Y0307600D01*
X0148000Y0306576D01*
X0146976Y0307600D01*
X0139024Y0307600D01*
X0133400Y0301976D01*
X0133400Y0294024D01*
X0134520Y0292903D02*
X0121347Y0292903D01*
X0124237Y0288905D02*
X0138519Y0288905D01*
X0147481Y0288905D02*
X0148519Y0288905D01*
X0157481Y0288905D02*
X0181705Y0288905D01*
X0180800Y0292903D02*
X0161480Y0292903D01*
X0162600Y0296902D02*
X0179495Y0296902D01*
X0178000Y0300900D02*
X0162600Y0300900D01*
X0159678Y0304899D02*
X0178000Y0304899D01*
X0178000Y0308897D02*
X0131625Y0308897D01*
X0127627Y0304899D02*
X0136322Y0304899D01*
X0133400Y0300900D02*
X0123628Y0300900D01*
X0113000Y0288000D02*
X0133000Y0265500D01*
X0138000Y0260500D01*
X0178000Y0260500D01*
X0185500Y0255500D02*
X0193000Y0263000D01*
X0205500Y0263000D01*
X0225500Y0283000D01*
X0258000Y0283000D01*
X0268000Y0293000D01*
X0278000Y0290500D02*
X0278000Y0295500D01*
X0278000Y0290500D02*
X0268000Y0280500D01*
X0268000Y0273000D01*
X0258000Y0273000D02*
X0233000Y0273000D01*
X0220500Y0260500D01*
X0225500Y0253000D02*
X0268000Y0253000D01*
X0273000Y0255500D01*
X0285500Y0268000D01*
X0333000Y0268000D01*
X0348000Y0268000D02*
X0348000Y0300500D01*
X0318000Y0300500D01*
X0309000Y0300900D02*
X0296473Y0300900D01*
X0296981Y0302127D02*
X0296981Y0303664D01*
X0297000Y0303710D01*
X0297000Y0306500D01*
X0310138Y0306500D01*
X0310085Y0306446D01*
X0309019Y0303873D01*
X0309019Y0302336D01*
X0309000Y0302290D01*
X0309000Y0298710D01*
X0309019Y0298664D01*
X0309019Y0297127D01*
X0310085Y0294554D01*
X0312054Y0292585D01*
X0314627Y0291519D01*
X0316164Y0291519D01*
X0316210Y0291500D01*
X0330138Y0291500D01*
X0330085Y0291446D01*
X0329019Y0288873D01*
X0329019Y0287600D01*
X0326090Y0287600D01*
X0323000Y0286320D01*
X0319910Y0287600D01*
X0316090Y0287600D01*
X0313000Y0286320D01*
X0309910Y0287600D01*
X0306090Y0287600D01*
X0303000Y0286320D01*
X0299910Y0287600D01*
X0296090Y0287600D01*
X0292562Y0286138D01*
X0289862Y0283438D01*
X0288400Y0279910D01*
X0288400Y0277000D01*
X0288300Y0277000D01*
X0288300Y0279356D01*
X0287598Y0281976D01*
X0286242Y0284324D01*
X0285397Y0285169D01*
X0285630Y0285402D01*
X0287000Y0288710D01*
X0287000Y0296500D01*
X0289790Y0296500D01*
X0289836Y0296519D01*
X0291373Y0296519D01*
X0293946Y0297585D01*
X0295915Y0299554D01*
X0296981Y0302127D01*
X0297000Y0304899D02*
X0309444Y0304899D01*
X0309112Y0296902D02*
X0292298Y0296902D01*
X0287000Y0292903D02*
X0311735Y0292903D01*
X0329032Y0288905D02*
X0287000Y0288905D01*
X0285660Y0284906D02*
X0291330Y0284906D01*
X0288813Y0280908D02*
X0287884Y0280908D01*
X0293000Y0258000D02*
X0288000Y0253000D01*
X0288000Y0245500D01*
X0283000Y0223000D01*
X0283000Y0218000D01*
X0283000Y0213000D01*
X0278000Y0208000D01*
X0278000Y0188000D01*
X0269000Y0188942D02*
X0248777Y0188942D01*
X0248387Y0188000D02*
X0249700Y0191170D01*
X0249700Y0194000D01*
X0259790Y0194000D01*
X0263098Y0195370D01*
X0265630Y0197902D01*
X0267000Y0201210D01*
X0267000Y0229272D01*
X0269628Y0231900D01*
X0269758Y0231676D01*
X0271676Y0229758D01*
X0274024Y0228402D01*
X0274927Y0228160D01*
X0274385Y0225719D01*
X0274000Y0224790D01*
X0274000Y0223988D01*
X0273826Y0223205D01*
X0274000Y0222215D01*
X0274000Y0216728D01*
X0270370Y0213098D01*
X0269000Y0209790D01*
X0269000Y0186210D01*
X0269019Y0186164D01*
X0269019Y0184627D01*
X0270085Y0182054D01*
X0270388Y0181750D01*
X0270085Y0181446D01*
X0269019Y0178873D01*
X0269019Y0176486D01*
X0268824Y0175510D01*
X0269019Y0174523D01*
X0269019Y0173965D01*
X0265957Y0176347D01*
X0265915Y0176446D01*
X0263946Y0178415D01*
X0262557Y0178991D01*
X0262341Y0179159D01*
X0261777Y0179314D01*
X0261373Y0179481D01*
X0261169Y0179481D01*
X0258697Y0180161D01*
X0254947Y0179692D01*
X0254438Y0179403D01*
X0252054Y0178415D01*
X0250085Y0176446D01*
X0249558Y0175174D01*
X0248387Y0178000D01*
X0249700Y0181170D01*
X0249700Y0184830D01*
X0248387Y0188000D01*
X0249653Y0184943D02*
X0269019Y0184943D01*
X0269877Y0180945D02*
X0249607Y0180945D01*
X0248823Y0176946D02*
X0250585Y0176946D01*
X0248657Y0168652D02*
X0248808Y0167447D01*
X0249097Y0166938D01*
X0250085Y0164554D01*
X0252054Y0162585D01*
X0253443Y0162009D01*
X0259890Y0156995D01*
X0259858Y0156981D01*
X0259627Y0156981D01*
X0257054Y0155915D01*
X0255085Y0153946D01*
X0254783Y0153218D01*
X0240119Y0138554D01*
X0240119Y0138554D01*
X0237446Y0135881D01*
X0237342Y0135629D01*
X0235368Y0137602D01*
X0234864Y0137893D01*
X0240000Y0143029D01*
X0240000Y0152971D01*
X0232971Y0160000D01*
X0223029Y0160000D01*
X0218327Y0155298D01*
X0217500Y0156332D01*
X0217500Y0164285D01*
X0218670Y0163800D01*
X0222330Y0163800D01*
X0225711Y0165201D01*
X0228299Y0167789D01*
X0229700Y0171170D01*
X0229700Y0174830D01*
X0228387Y0178000D01*
X0229700Y0181170D01*
X0229700Y0184830D01*
X0228387Y0188000D01*
X0229700Y0191170D01*
X0229700Y0194000D01*
X0231300Y0194000D01*
X0231300Y0191170D01*
X0232613Y0188000D01*
X0231300Y0184830D01*
X0231300Y0181170D01*
X0232613Y0178000D01*
X0231300Y0174830D01*
X0231300Y0171170D01*
X0232701Y0167789D01*
X0235289Y0165201D01*
X0238670Y0163800D01*
X0242330Y0163800D01*
X0245711Y0165201D01*
X0248299Y0167789D01*
X0248657Y0168652D01*
X0249920Y0164951D02*
X0245108Y0164951D01*
X0235892Y0164951D02*
X0225108Y0164951D01*
X0228780Y0168949D02*
X0232220Y0168949D01*
X0231300Y0172948D02*
X0229700Y0172948D01*
X0228823Y0176946D02*
X0232177Y0176946D01*
X0231393Y0180945D02*
X0229607Y0180945D01*
X0229653Y0184943D02*
X0231347Y0184943D01*
X0232223Y0188942D02*
X0228777Y0188942D01*
X0229700Y0192940D02*
X0231300Y0192940D01*
X0249700Y0192940D02*
X0269000Y0192940D01*
X0269000Y0196939D02*
X0264667Y0196939D01*
X0266887Y0200937D02*
X0269000Y0200937D01*
X0269000Y0204936D02*
X0267000Y0204936D01*
X0267000Y0208934D02*
X0269000Y0208934D01*
X0270302Y0212933D02*
X0267000Y0212933D01*
X0267000Y0216932D02*
X0274000Y0216932D01*
X0274000Y0220930D02*
X0267000Y0220930D01*
X0267000Y0224929D02*
X0274057Y0224929D01*
X0273115Y0228927D02*
X0267000Y0228927D01*
X0258000Y0233000D02*
X0258000Y0203000D01*
X0133000Y0203000D01*
X0120500Y0215500D01*
X0120500Y0245500D01*
X0129481Y0248873D02*
X0128415Y0251446D01*
X0126446Y0253415D01*
X0123873Y0254481D01*
X0122336Y0254481D01*
X0122290Y0254500D01*
X0118710Y0254500D01*
X0118664Y0254481D01*
X0117127Y0254481D01*
X0114554Y0253415D01*
X0112585Y0251446D01*
X0112000Y0250035D01*
X0112000Y0275578D01*
X0125266Y0260654D01*
X0125370Y0260402D01*
X0126449Y0259323D01*
X0127463Y0258183D01*
X0127709Y0258063D01*
X0132902Y0252870D01*
X0136210Y0251500D01*
X0148000Y0251500D01*
X0148000Y0245511D01*
X0149522Y0241835D01*
X0151349Y0240009D01*
X0150100Y0239288D01*
X0147189Y0240969D01*
X0143902Y0241850D01*
X0140498Y0241850D01*
X0137211Y0240969D01*
X0134264Y0239268D01*
X0131857Y0236861D01*
X0130156Y0233914D01*
X0129500Y0231466D01*
X0129500Y0247290D01*
X0129481Y0247336D01*
X0129481Y0248873D01*
X0129462Y0248920D02*
X0148000Y0248920D01*
X0148244Y0244921D02*
X0129500Y0244921D01*
X0129500Y0240923D02*
X0137130Y0240923D01*
X0131920Y0236924D02*
X0129500Y0236924D01*
X0129500Y0232926D02*
X0129891Y0232926D01*
X0111500Y0232926D02*
X0111277Y0232926D01*
X0111500Y0228927D02*
X0098985Y0228927D01*
X0098561Y0224929D02*
X0111500Y0224929D01*
X0111500Y0220930D02*
X0096596Y0220930D01*
X0095049Y0216932D02*
X0111500Y0216932D01*
X0111822Y0212933D02*
X0098067Y0212933D01*
X0098985Y0208934D02*
X0107580Y0208934D01*
X0106019Y0204936D02*
X0098478Y0204936D01*
X0096288Y0200937D02*
X0106072Y0200937D01*
X0107699Y0196939D02*
X0045000Y0196939D01*
X0045000Y0200937D02*
X0059397Y0200937D01*
X0057207Y0204936D02*
X0045000Y0204936D01*
X0045000Y0208934D02*
X0056700Y0208934D01*
X0057618Y0212933D02*
X0045000Y0212933D01*
X0045000Y0216932D02*
X0060636Y0216932D01*
X0059089Y0220930D02*
X0045000Y0220930D01*
X0045000Y0224929D02*
X0057124Y0224929D01*
X0056700Y0228927D02*
X0045000Y0228927D01*
X0045000Y0232926D02*
X0057796Y0232926D01*
X0073552Y0218157D02*
X0074938Y0218958D01*
X0077042Y0221062D01*
X0077843Y0222448D01*
X0078643Y0221062D01*
X0080747Y0218958D01*
X0082133Y0218157D01*
X0080747Y0217357D01*
X0078643Y0215253D01*
X0077843Y0213867D01*
X0077042Y0215253D01*
X0074938Y0217357D01*
X0073552Y0218157D01*
X0075364Y0216932D02*
X0080321Y0216932D01*
X0078774Y0220930D02*
X0076911Y0220930D01*
X0076603Y0200937D02*
X0079082Y0200937D01*
X0096000Y0177971D02*
X0103029Y0185000D01*
X0112971Y0185000D01*
X0120000Y0177971D01*
X0120000Y0168029D01*
X0114864Y0162893D01*
X0115368Y0162602D01*
X0117602Y0160368D01*
X0119182Y0157632D01*
X0120000Y0154580D01*
X0120000Y0151420D01*
X0119182Y0148368D01*
X0117602Y0145632D01*
X0115368Y0143398D01*
X0112632Y0141818D01*
X0109580Y0141000D01*
X0106420Y0141000D01*
X0103368Y0141818D01*
X0100632Y0143398D01*
X0098398Y0145632D01*
X0096818Y0148368D01*
X0096000Y0151420D01*
X0096000Y0154580D01*
X0096818Y0157632D01*
X0098398Y0160368D01*
X0100632Y0162602D01*
X0101136Y0162893D01*
X0096000Y0168029D01*
X0096000Y0177971D01*
X0096000Y0176946D02*
X0081297Y0176946D01*
X0081411Y0176748D02*
X0080026Y0179148D01*
X0078066Y0181107D01*
X0075666Y0182493D01*
X0072989Y0183210D01*
X0063168Y0183210D01*
X0060491Y0182493D01*
X0058091Y0181107D01*
X0056132Y0179148D01*
X0054746Y0176748D01*
X0054029Y0174071D01*
X0054029Y0171299D01*
X0054746Y0168623D01*
X0056132Y0166223D01*
X0058091Y0164263D01*
X0060491Y0162877D01*
X0060621Y0162843D01*
X0060491Y0162808D01*
X0058091Y0161422D01*
X0056132Y0159463D01*
X0054746Y0157062D01*
X0054029Y0154386D01*
X0054029Y0151614D01*
X0054746Y0148938D01*
X0056132Y0146537D01*
X0058091Y0144578D01*
X0060491Y0143192D01*
X0060621Y0143157D01*
X0060491Y0143123D01*
X0058091Y0141737D01*
X0056132Y0139777D01*
X0054746Y0137377D01*
X0054029Y0134701D01*
X0054029Y0131929D01*
X0054746Y0129252D01*
X0056132Y0126852D01*
X0058091Y0124893D01*
X0060491Y0123507D01*
X0063168Y0122790D01*
X0072989Y0122790D01*
X0075666Y0123507D01*
X0078066Y0124893D01*
X0080026Y0126852D01*
X0081411Y0129252D01*
X0082129Y0131929D01*
X0082129Y0134701D01*
X0081411Y0137377D01*
X0080026Y0139777D01*
X0078066Y0141737D01*
X0075666Y0143123D01*
X0075536Y0143157D01*
X0075666Y0143192D01*
X0078066Y0144578D01*
X0080026Y0146537D01*
X0081411Y0148938D01*
X0082129Y0151614D01*
X0082129Y0154386D01*
X0081411Y0157062D01*
X0080026Y0159463D01*
X0078066Y0161422D01*
X0075666Y0162808D01*
X0075536Y0162843D01*
X0075666Y0162877D01*
X0078066Y0164263D01*
X0080026Y0166223D01*
X0081411Y0168623D01*
X0082129Y0171299D01*
X0082129Y0174071D01*
X0081411Y0176748D01*
X0078228Y0180945D02*
X0098974Y0180945D01*
X0102973Y0184943D02*
X0045000Y0184943D01*
X0045000Y0180945D02*
X0057929Y0180945D01*
X0054861Y0176946D02*
X0045000Y0176946D01*
X0045000Y0172948D02*
X0054029Y0172948D01*
X0054658Y0168949D02*
X0045000Y0168949D01*
X0045000Y0164951D02*
X0057403Y0164951D01*
X0057622Y0160952D02*
X0045000Y0160952D01*
X0045000Y0156954D02*
X0054717Y0156954D01*
X0054029Y0152955D02*
X0045000Y0152955D01*
X0045000Y0148957D02*
X0054741Y0148957D01*
X0057711Y0144958D02*
X0045000Y0144958D01*
X0045000Y0140960D02*
X0057314Y0140960D01*
X0054634Y0136961D02*
X0045000Y0136961D01*
X0045000Y0132963D02*
X0054029Y0132963D01*
X0054912Y0128964D02*
X0045000Y0128964D01*
X0045000Y0124966D02*
X0058018Y0124966D01*
X0045000Y0120967D02*
X0085175Y0120967D01*
X0084973Y0121169D02*
X0087044Y0119098D01*
X0089581Y0117633D01*
X0092410Y0116875D01*
X0103590Y0116875D01*
X0106419Y0117633D01*
X0108956Y0119098D01*
X0111027Y0121169D01*
X0112492Y0123706D01*
X0113250Y0126535D01*
X0113250Y0129465D01*
X0112492Y0132294D01*
X0111027Y0134831D01*
X0108956Y0136902D01*
X0106419Y0138367D01*
X0103590Y0139125D01*
X0092410Y0139125D01*
X0089581Y0138367D01*
X0087044Y0136902D01*
X0084973Y0134831D01*
X0083508Y0132294D01*
X0082750Y0129465D01*
X0082750Y0126535D01*
X0083508Y0123706D01*
X0084973Y0121169D01*
X0083171Y0124966D02*
X0078139Y0124966D01*
X0081245Y0128964D02*
X0082750Y0128964D01*
X0082129Y0132963D02*
X0083894Y0132963D01*
X0081523Y0136961D02*
X0087146Y0136961D01*
X0078843Y0140960D02*
X0119000Y0140960D01*
X0119019Y0144958D02*
X0116929Y0144958D01*
X0119340Y0148957D02*
X0120095Y0148957D01*
X0120000Y0152955D02*
X0136000Y0152955D01*
X0135905Y0148957D02*
X0136660Y0148957D01*
X0136981Y0144958D02*
X0139071Y0144958D01*
X0137000Y0140960D02*
X0153130Y0140960D01*
X0147146Y0136961D02*
X0137000Y0136961D01*
X0137000Y0132963D02*
X0143894Y0132963D01*
X0142750Y0128964D02*
X0137000Y0128964D01*
X0137000Y0124966D02*
X0143171Y0124966D01*
X0128000Y0113000D02*
X0128000Y0143000D01*
X0119000Y0136961D02*
X0108854Y0136961D01*
X0112106Y0132963D02*
X0119000Y0132963D01*
X0119000Y0128964D02*
X0113250Y0128964D01*
X0112829Y0124966D02*
X0119000Y0124966D01*
X0119000Y0120967D02*
X0110825Y0120967D01*
X0103939Y0116969D02*
X0119000Y0116969D01*
X0119000Y0112970D02*
X0102106Y0112970D01*
X0092061Y0116969D02*
X0045000Y0116969D01*
X0045000Y0112970D02*
X0057782Y0112970D01*
X0058089Y0113053D02*
X0055412Y0112335D01*
X0053012Y0110950D01*
X0051053Y0108990D01*
X0049667Y0106590D01*
X0048950Y0103913D01*
X0048950Y0101142D01*
X0049667Y0098465D01*
X0051053Y0096065D01*
X0053012Y0094105D01*
X0055412Y0092720D01*
X0055542Y0092685D01*
X0055412Y0092650D01*
X0053012Y0091265D01*
X0051053Y0089305D01*
X0049667Y0086905D01*
X0048950Y0084228D01*
X0048950Y0081457D01*
X0049667Y0078780D01*
X0051053Y0076380D01*
X0053012Y0074420D01*
X0055412Y0073035D01*
X0055542Y0073000D01*
X0055412Y0072965D01*
X0053012Y0071580D01*
X0051053Y0069620D01*
X0049667Y0067220D01*
X0048950Y0064543D01*
X0048950Y0061772D01*
X0049667Y0059095D01*
X0051053Y0056695D01*
X0053012Y0054735D01*
X0055412Y0053350D01*
X0055542Y0053315D01*
X0055412Y0053280D01*
X0053012Y0051895D01*
X0051053Y0049935D01*
X0049667Y0047535D01*
X0048950Y0044858D01*
X0048950Y0042087D01*
X0049667Y0039410D01*
X0051053Y0037010D01*
X0053012Y0035050D01*
X0055412Y0033665D01*
X0058089Y0032947D01*
X0067911Y0032947D01*
X0070587Y0033665D01*
X0072988Y0035050D01*
X0074947Y0037010D01*
X0076333Y0039410D01*
X0077050Y0042087D01*
X0077050Y0044858D01*
X0076333Y0047535D01*
X0074947Y0049935D01*
X0072988Y0051895D01*
X0070587Y0053280D01*
X0070458Y0053315D01*
X0070587Y0053350D01*
X0072988Y0054735D01*
X0074947Y0056695D01*
X0076333Y0059095D01*
X0077050Y0061772D01*
X0077050Y0064543D01*
X0076333Y0067220D01*
X0074947Y0069620D01*
X0072988Y0071580D01*
X0070587Y0072965D01*
X0070458Y0073000D01*
X0070587Y0073035D01*
X0072988Y0074420D01*
X0074947Y0076380D01*
X0076333Y0078780D01*
X0077050Y0081457D01*
X0077050Y0084228D01*
X0076333Y0086905D01*
X0074947Y0089305D01*
X0072988Y0091265D01*
X0070587Y0092650D01*
X0070458Y0092685D01*
X0070587Y0092720D01*
X0072988Y0094105D01*
X0074947Y0096065D01*
X0076333Y0098465D01*
X0077050Y0101142D01*
X0077050Y0103913D01*
X0076333Y0106590D01*
X0074947Y0108990D01*
X0072988Y0110950D01*
X0070587Y0112335D01*
X0067911Y0113053D01*
X0058089Y0113053D01*
X0051042Y0108972D02*
X0045000Y0108972D01*
X0045000Y0104973D02*
X0049234Y0104973D01*
X0048995Y0100975D02*
X0045000Y0100975D01*
X0045000Y0096976D02*
X0050527Y0096976D01*
X0054966Y0092978D02*
X0045000Y0092978D01*
X0045000Y0088979D02*
X0050865Y0088979D01*
X0049152Y0084981D02*
X0045000Y0084981D01*
X0045000Y0080982D02*
X0049077Y0080982D01*
X0050704Y0076984D02*
X0045000Y0076984D01*
X0045000Y0072985D02*
X0055487Y0072985D01*
X0050687Y0068987D02*
X0045000Y0068987D01*
X0045000Y0064988D02*
X0049069Y0064988D01*
X0049160Y0060990D02*
X0045000Y0060990D01*
X0045000Y0056991D02*
X0050882Y0056991D01*
X0054914Y0052993D02*
X0045000Y0052993D01*
X0045000Y0048994D02*
X0050510Y0048994D01*
X0048987Y0044996D02*
X0045000Y0044996D01*
X0045000Y0040997D02*
X0049242Y0040997D01*
X0051064Y0036999D02*
X0045000Y0036999D01*
X0045000Y0033000D02*
X0057893Y0033000D01*
X0068107Y0033000D02*
X0083945Y0033000D01*
X0079494Y0036999D02*
X0074936Y0036999D01*
X0076758Y0040997D02*
X0077894Y0040997D01*
X0077892Y0044996D02*
X0077013Y0044996D01*
X0075490Y0048994D02*
X0079490Y0048994D01*
X0083933Y0052993D02*
X0071086Y0052993D01*
X0075118Y0056991D02*
X0079498Y0056991D01*
X0077896Y0060990D02*
X0076840Y0060990D01*
X0076931Y0064988D02*
X0077890Y0064988D01*
X0079485Y0068987D02*
X0075313Y0068987D01*
X0070513Y0072985D02*
X0083920Y0072985D01*
X0079502Y0076984D02*
X0075296Y0076984D01*
X0076923Y0080982D02*
X0077898Y0080982D01*
X0077888Y0084981D02*
X0076848Y0084981D01*
X0075135Y0088979D02*
X0079481Y0088979D01*
X0083907Y0092978D02*
X0071034Y0092978D01*
X0075473Y0096976D02*
X0079507Y0096976D01*
X0077900Y0100975D02*
X0077005Y0100975D01*
X0076766Y0104973D02*
X0077886Y0104973D01*
X0079477Y0108972D02*
X0074958Y0108972D01*
X0068218Y0112970D02*
X0083894Y0112970D01*
X0106523Y0108972D02*
X0119927Y0108972D01*
X0121538Y0104973D02*
X0108114Y0104973D01*
X0108100Y0100975D02*
X0117540Y0100975D01*
X0113541Y0096976D02*
X0106493Y0096976D01*
X0109543Y0092978D02*
X0102093Y0092978D01*
X0120845Y0076984D02*
X0149502Y0076984D01*
X0147898Y0080982D02*
X0124417Y0080982D01*
X0128416Y0084981D02*
X0147888Y0084981D01*
X0149481Y0088979D02*
X0132414Y0088979D01*
X0136413Y0092978D02*
X0153907Y0092978D01*
X0172054Y0093000D02*
X0173956Y0094098D01*
X0174000Y0094142D01*
X0174000Y0091858D01*
X0173956Y0091902D01*
X0172054Y0093000D01*
X0172093Y0092978D02*
X0174000Y0092978D01*
X0192000Y0092978D02*
X0212718Y0092978D01*
X0211950Y0088979D02*
X0192000Y0088979D01*
X0192000Y0084981D02*
X0212193Y0084981D01*
X0213519Y0080982D02*
X0192000Y0080982D01*
X0192000Y0076984D02*
X0216318Y0076984D01*
X0222024Y0072985D02*
X0192000Y0072985D01*
X0192000Y0068987D02*
X0454701Y0068987D01*
X0454701Y0072985D02*
X0413976Y0072985D01*
X0419682Y0076984D02*
X0454701Y0076984D01*
X0454701Y0080982D02*
X0422481Y0080982D01*
X0423807Y0084981D02*
X0454701Y0084981D01*
X0454701Y0088979D02*
X0424050Y0088979D01*
X0423282Y0092978D02*
X0454701Y0092978D01*
X0454701Y0096976D02*
X0421351Y0096976D01*
X0417627Y0100975D02*
X0454701Y0100975D01*
X0454701Y0104973D02*
X0407038Y0104973D01*
X0407513Y0108972D02*
X0454701Y0108972D01*
X0454701Y0112970D02*
X0407500Y0112970D01*
X0407500Y0116969D02*
X0454701Y0116969D01*
X0454701Y0120967D02*
X0439062Y0120967D01*
X0439947Y0121852D02*
X0441333Y0124252D01*
X0442050Y0126929D01*
X0442050Y0129701D01*
X0441333Y0132377D01*
X0439947Y0134777D01*
X0437987Y0136737D01*
X0435587Y0138123D01*
X0432911Y0138840D01*
X0423089Y0138840D01*
X0420412Y0138123D01*
X0418012Y0136737D01*
X0416053Y0134777D01*
X0414667Y0132377D01*
X0413950Y0129701D01*
X0413950Y0126929D01*
X0414667Y0124252D01*
X0416053Y0121852D01*
X0418012Y0119893D01*
X0420412Y0118507D01*
X0423089Y0117790D01*
X0432911Y0117790D01*
X0435587Y0118507D01*
X0437987Y0119893D01*
X0439947Y0121852D01*
X0441524Y0124966D02*
X0454701Y0124966D01*
X0454701Y0128964D02*
X0442050Y0128964D01*
X0440995Y0132963D02*
X0454701Y0132963D01*
X0454701Y0136961D02*
X0437599Y0136961D01*
X0454701Y0140960D02*
X0407500Y0140960D01*
X0407500Y0144958D02*
X0454701Y0144958D01*
X0454701Y0148957D02*
X0407500Y0148957D01*
X0407500Y0152955D02*
X0454701Y0152955D01*
X0454701Y0156954D02*
X0407500Y0156954D01*
X0407500Y0160952D02*
X0416323Y0160952D01*
X0414311Y0164951D02*
X0407500Y0164951D01*
X0407500Y0168949D02*
X0413950Y0168949D01*
X0415360Y0172948D02*
X0406329Y0172948D01*
X0401457Y0176946D02*
X0419466Y0176946D01*
X0417039Y0180945D02*
X0387000Y0180945D01*
X0387000Y0184943D02*
X0414561Y0184943D01*
X0414029Y0188942D02*
X0387000Y0188942D01*
X0387000Y0192940D02*
X0415071Y0192940D01*
X0418441Y0196939D02*
X0387000Y0196939D01*
X0378000Y0203000D02*
X0378000Y0113000D01*
X0370500Y0110500D01*
X0361519Y0111085D02*
X0361396Y0109352D01*
X0361519Y0108983D01*
X0361519Y0107500D01*
X0359830Y0107500D01*
X0334774Y0117522D01*
X0334096Y0117514D01*
X0333331Y0117897D01*
X0333098Y0118130D01*
X0331739Y0118693D01*
X0330424Y0119350D01*
X0330095Y0119374D01*
X0329790Y0119500D01*
X0328319Y0119500D01*
X0326852Y0119604D01*
X0326539Y0119500D01*
X0317705Y0119500D01*
X0318250Y0121535D01*
X0318250Y0124465D01*
X0317492Y0127294D01*
X0316027Y0129831D01*
X0313956Y0131902D01*
X0313377Y0132236D01*
X0313438Y0132262D01*
X0316138Y0134962D01*
X0317273Y0137700D01*
X0319356Y0137700D01*
X0321976Y0138402D01*
X0324324Y0139758D01*
X0326242Y0141676D01*
X0327598Y0144024D01*
X0328300Y0146644D01*
X0328300Y0149356D01*
X0327598Y0151976D01*
X0326242Y0154324D01*
X0324324Y0156242D01*
X0321976Y0157598D01*
X0319356Y0158300D01*
X0316644Y0158300D01*
X0314024Y0157598D01*
X0311676Y0156242D01*
X0310422Y0154988D01*
X0309910Y0155200D01*
X0307371Y0155200D01*
X0307123Y0155800D01*
X0309910Y0155800D01*
X0313438Y0157262D01*
X0316138Y0159962D01*
X0317600Y0163490D01*
X0317600Y0164000D01*
X0329790Y0164000D01*
X0329836Y0164019D01*
X0331373Y0164019D01*
X0333946Y0165085D01*
X0335915Y0167054D01*
X0336981Y0169627D01*
X0336981Y0171164D01*
X0337000Y0171210D01*
X0337000Y0174790D01*
X0336981Y0174836D01*
X0336981Y0176373D01*
X0335915Y0178946D01*
X0333946Y0180915D01*
X0331373Y0181981D01*
X0329836Y0181981D01*
X0329790Y0182000D01*
X0326429Y0182000D01*
X0327598Y0184024D01*
X0327901Y0185154D01*
X0331170Y0183800D01*
X0334830Y0183800D01*
X0338000Y0185113D01*
X0341170Y0183800D01*
X0344830Y0183800D01*
X0348000Y0185113D01*
X0351170Y0183800D01*
X0354830Y0183800D01*
X0358211Y0185201D01*
X0360799Y0187789D01*
X0362200Y0191170D01*
X0362200Y0194830D01*
X0360799Y0198211D01*
X0358211Y0200799D01*
X0354830Y0202200D01*
X0351170Y0202200D01*
X0348000Y0200887D01*
X0344830Y0202200D01*
X0341170Y0202200D01*
X0340257Y0201822D01*
X0343218Y0204783D01*
X0343946Y0205085D01*
X0345915Y0207054D01*
X0346981Y0209627D01*
X0346981Y0209858D01*
X0347500Y0211110D01*
X0347500Y0213300D01*
X0349910Y0213300D01*
X0353000Y0214580D01*
X0356090Y0213300D01*
X0359000Y0213300D01*
X0359000Y0211635D01*
X0358837Y0210999D01*
X0359000Y0209860D01*
X0359000Y0208710D01*
X0359251Y0208104D01*
X0359344Y0207455D01*
X0359930Y0206465D01*
X0360370Y0205402D01*
X0360834Y0204938D01*
X0361168Y0204374D01*
X0362088Y0203684D01*
X0362902Y0202870D01*
X0363508Y0202619D01*
X0369000Y0198500D01*
X0369000Y0134015D01*
X0368590Y0134125D01*
X0357410Y0134125D01*
X0355614Y0133644D01*
X0360000Y0138029D01*
X0360000Y0147971D01*
X0354864Y0153107D01*
X0355368Y0153398D01*
X0357602Y0155632D01*
X0359182Y0158368D01*
X0360000Y0161420D01*
X0360000Y0164580D01*
X0359182Y0167632D01*
X0357602Y0170368D01*
X0355368Y0172602D01*
X0352632Y0174182D01*
X0349580Y0175000D01*
X0346420Y0175000D01*
X0343368Y0174182D01*
X0340632Y0172602D01*
X0338398Y0170368D01*
X0336818Y0167632D01*
X0336000Y0164580D01*
X0336000Y0161420D01*
X0336818Y0158368D01*
X0338398Y0155632D01*
X0340632Y0153398D01*
X0341136Y0153107D01*
X0336000Y0147971D01*
X0336000Y0138029D01*
X0343029Y0131000D01*
X0351142Y0131000D01*
X0349973Y0129831D01*
X0348508Y0127294D01*
X0347750Y0124465D01*
X0347750Y0121535D01*
X0348508Y0118706D01*
X0349973Y0116169D01*
X0352044Y0114098D01*
X0354581Y0112633D01*
X0357410Y0111875D01*
X0361519Y0111875D01*
X0361519Y0111085D01*
X0361519Y0108972D02*
X0356150Y0108972D01*
X0353997Y0112970D02*
X0346154Y0112970D01*
X0349511Y0116969D02*
X0336158Y0116969D01*
X0333000Y0108000D02*
X0328000Y0110500D01*
X0270500Y0110500D01*
X0255500Y0125500D01*
X0264217Y0129511D02*
X0274228Y0119500D01*
X0288295Y0119500D01*
X0287750Y0121535D01*
X0287750Y0124465D01*
X0288508Y0127294D01*
X0289973Y0129831D01*
X0291672Y0131530D01*
X0289910Y0130800D01*
X0286090Y0130800D01*
X0282562Y0132262D01*
X0279862Y0134962D01*
X0278400Y0138490D01*
X0278400Y0143587D01*
X0277411Y0143997D01*
X0276159Y0144341D01*
X0275680Y0144714D01*
X0275119Y0144946D01*
X0274201Y0145864D01*
X0272500Y0147187D01*
X0272500Y0146110D01*
X0271981Y0144858D01*
X0271981Y0144627D01*
X0270915Y0142054D01*
X0268946Y0140085D01*
X0268218Y0139783D01*
X0261648Y0133213D01*
X0263415Y0131446D01*
X0264217Y0129511D01*
X0264764Y0128964D02*
X0289472Y0128964D01*
X0287884Y0124966D02*
X0268762Y0124966D01*
X0272761Y0120967D02*
X0287902Y0120967D01*
X0281861Y0132963D02*
X0261899Y0132963D01*
X0265396Y0136961D02*
X0279033Y0136961D01*
X0278400Y0140960D02*
X0269821Y0140960D01*
X0272023Y0144958D02*
X0275107Y0144958D01*
X0259561Y0156954D02*
X0236017Y0156954D01*
X0240000Y0152955D02*
X0254520Y0152955D01*
X0250522Y0148957D02*
X0240000Y0148957D01*
X0240000Y0144958D02*
X0246523Y0144958D01*
X0242525Y0140960D02*
X0237930Y0140960D01*
X0238526Y0136961D02*
X0236009Y0136961D01*
X0219983Y0156954D02*
X0217500Y0156954D01*
X0217500Y0160952D02*
X0254802Y0160952D01*
X0278000Y0175500D02*
X0285500Y0180500D01*
X0310500Y0180500D01*
X0318000Y0173000D01*
X0328000Y0173000D01*
X0337000Y0172948D02*
X0341230Y0172948D01*
X0337578Y0168949D02*
X0336701Y0168949D01*
X0336099Y0164951D02*
X0333623Y0164951D01*
X0336125Y0160952D02*
X0316549Y0160952D01*
X0312909Y0156954D02*
X0312695Y0156954D01*
X0323091Y0156954D02*
X0337634Y0156954D01*
X0340985Y0152955D02*
X0327032Y0152955D01*
X0328300Y0148957D02*
X0336986Y0148957D01*
X0336000Y0144958D02*
X0327848Y0144958D01*
X0325526Y0140960D02*
X0336000Y0140960D01*
X0337068Y0136961D02*
X0316967Y0136961D01*
X0314139Y0132963D02*
X0341067Y0132963D01*
X0349472Y0128964D02*
X0316528Y0128964D01*
X0318116Y0124966D02*
X0347884Y0124966D01*
X0347902Y0120967D02*
X0318098Y0120967D01*
X0308373Y0100975D02*
X0237627Y0100975D01*
X0241351Y0096976D02*
X0304649Y0096976D01*
X0302718Y0092978D02*
X0243282Y0092978D01*
X0244050Y0088979D02*
X0301950Y0088979D01*
X0302193Y0084981D02*
X0243807Y0084981D01*
X0242481Y0080982D02*
X0303519Y0080982D01*
X0306318Y0076984D02*
X0239682Y0076984D01*
X0233976Y0072985D02*
X0312024Y0072985D01*
X0311352Y0064050D02*
X0301950Y0054648D01*
X0301950Y0041352D01*
X0311352Y0031950D01*
X0324648Y0031950D01*
X0334050Y0041352D01*
X0334050Y0054648D01*
X0324648Y0064050D01*
X0311352Y0064050D01*
X0308291Y0060990D02*
X0237709Y0060990D01*
X0234648Y0064050D02*
X0221352Y0064050D01*
X0211950Y0054648D01*
X0211950Y0041352D01*
X0221352Y0031950D01*
X0234648Y0031950D01*
X0244050Y0041352D01*
X0244050Y0054648D01*
X0234648Y0064050D01*
X0241707Y0056991D02*
X0304293Y0056991D01*
X0301950Y0052993D02*
X0244050Y0052993D01*
X0244050Y0048994D02*
X0301950Y0048994D01*
X0301950Y0044996D02*
X0244050Y0044996D01*
X0243695Y0040997D02*
X0302305Y0040997D01*
X0306303Y0036999D02*
X0239697Y0036999D01*
X0235698Y0033000D02*
X0310302Y0033000D01*
X0325698Y0033000D02*
X0400302Y0033000D01*
X0401352Y0031950D02*
X0414648Y0031950D01*
X0424050Y0041352D01*
X0424050Y0054648D01*
X0414648Y0064050D01*
X0401352Y0064050D01*
X0391950Y0054648D01*
X0391950Y0041352D01*
X0401352Y0031950D01*
X0396303Y0036999D02*
X0329697Y0036999D01*
X0333695Y0040997D02*
X0392305Y0040997D01*
X0391950Y0044996D02*
X0334050Y0044996D01*
X0334050Y0048994D02*
X0391950Y0048994D01*
X0391950Y0052993D02*
X0334050Y0052993D01*
X0331707Y0056991D02*
X0394293Y0056991D01*
X0398291Y0060990D02*
X0327709Y0060990D01*
X0323976Y0072985D02*
X0402024Y0072985D01*
X0396318Y0076984D02*
X0329682Y0076984D01*
X0332481Y0080982D02*
X0393519Y0080982D01*
X0392193Y0084981D02*
X0333807Y0084981D01*
X0334050Y0088979D02*
X0354954Y0088979D01*
X0344976Y0092978D02*
X0333282Y0092978D01*
X0334980Y0096976D02*
X0331351Y0096976D01*
X0376046Y0088979D02*
X0391950Y0088979D01*
X0392718Y0092978D02*
X0386024Y0092978D01*
X0407500Y0120967D02*
X0416938Y0120967D01*
X0414476Y0124966D02*
X0407500Y0124966D01*
X0407500Y0128964D02*
X0413950Y0128964D01*
X0415005Y0132963D02*
X0407500Y0132963D01*
X0407500Y0136961D02*
X0418401Y0136961D01*
X0388500Y0136961D02*
X0387000Y0136961D01*
X0387000Y0132963D02*
X0388500Y0132963D01*
X0388500Y0128964D02*
X0387000Y0128964D01*
X0369000Y0136961D02*
X0358932Y0136961D01*
X0360000Y0140960D02*
X0369000Y0140960D01*
X0369000Y0144958D02*
X0360000Y0144958D01*
X0359014Y0148957D02*
X0369000Y0148957D01*
X0369000Y0152955D02*
X0355015Y0152955D01*
X0358366Y0156954D02*
X0369000Y0156954D01*
X0369000Y0160952D02*
X0359875Y0160952D01*
X0359901Y0164951D02*
X0369000Y0164951D01*
X0369000Y0168949D02*
X0358422Y0168949D01*
X0354770Y0172948D02*
X0369000Y0172948D01*
X0369000Y0176946D02*
X0336744Y0176946D01*
X0333875Y0180945D02*
X0369000Y0180945D01*
X0369000Y0184943D02*
X0357590Y0184943D01*
X0361277Y0188942D02*
X0369000Y0188942D01*
X0369000Y0192940D02*
X0362200Y0192940D01*
X0361326Y0196939D02*
X0369000Y0196939D01*
X0365750Y0200937D02*
X0357878Y0200937D01*
X0360835Y0204936D02*
X0343588Y0204936D01*
X0346694Y0208934D02*
X0359000Y0208934D01*
X0359000Y0212933D02*
X0347500Y0212933D01*
X0347878Y0200937D02*
X0348122Y0200937D01*
X0368000Y0210500D02*
X0378000Y0203000D01*
X0368000Y0210500D02*
X0368000Y0233000D01*
X0363000Y0238000D01*
X0363000Y0243000D01*
X0354000Y0237638D02*
X0354000Y0236834D01*
X0353000Y0236420D01*
X0352067Y0236806D01*
X0353946Y0237585D01*
X0354000Y0237638D01*
X0354000Y0236924D02*
X0352352Y0236924D01*
X0348000Y0245500D02*
X0340500Y0245500D01*
X0333000Y0238000D01*
X0318000Y0238000D01*
X0309000Y0238400D02*
X0309000Y0236210D01*
X0309019Y0236164D01*
X0309019Y0234627D01*
X0309071Y0234500D01*
X0308657Y0234500D01*
X0302461Y0239457D01*
X0303000Y0239680D01*
X0306090Y0238400D01*
X0309000Y0238400D01*
X0309000Y0236924D02*
X0305627Y0236924D01*
X0305500Y0225500D02*
X0293000Y0235500D01*
X0292521Y0224357D02*
X0299489Y0218784D01*
X0300402Y0217870D01*
X0300875Y0217674D01*
X0301276Y0217354D01*
X0302516Y0216994D01*
X0303710Y0216500D01*
X0304222Y0216500D01*
X0304715Y0216357D01*
X0305998Y0216500D01*
X0327290Y0216500D01*
X0327336Y0216519D01*
X0328084Y0216519D01*
X0324065Y0212500D01*
X0316110Y0212500D01*
X0312619Y0211054D01*
X0309946Y0208381D01*
X0302782Y0201217D01*
X0302054Y0200915D01*
X0300085Y0198946D01*
X0299019Y0196373D01*
X0299019Y0196142D01*
X0298500Y0194890D01*
X0298500Y0191110D01*
X0299019Y0189858D01*
X0299019Y0189627D01*
X0299071Y0189500D01*
X0287000Y0189500D01*
X0287000Y0204272D01*
X0288098Y0205370D01*
X0290630Y0207902D01*
X0292000Y0211210D01*
X0292000Y0222012D01*
X0292521Y0224357D01*
X0292000Y0220930D02*
X0296805Y0220930D01*
X0292000Y0216932D02*
X0302668Y0216932D01*
X0292000Y0212933D02*
X0324498Y0212933D01*
X0325500Y0225500D02*
X0305500Y0225500D01*
X0310499Y0208934D02*
X0291058Y0208934D01*
X0288098Y0205370D02*
X0288098Y0205370D01*
X0287664Y0204936D02*
X0306501Y0204936D01*
X0302107Y0200937D02*
X0287000Y0200937D01*
X0287000Y0196939D02*
X0299253Y0196939D01*
X0298500Y0192940D02*
X0287000Y0192940D01*
X0269019Y0176946D02*
X0265415Y0176946D01*
X0327844Y0184943D02*
X0328410Y0184943D01*
X0337590Y0184943D02*
X0338410Y0184943D01*
X0347590Y0184943D02*
X0348410Y0184943D01*
X0387000Y0176946D02*
X0394543Y0176946D01*
X0389671Y0172948D02*
X0387000Y0172948D01*
X0387000Y0168949D02*
X0388500Y0168949D01*
X0388500Y0164951D02*
X0387000Y0164951D01*
X0387000Y0160952D02*
X0388500Y0160952D01*
X0388500Y0156954D02*
X0387000Y0156954D01*
X0387000Y0152955D02*
X0388500Y0152955D01*
X0388500Y0148957D02*
X0387000Y0148957D01*
X0387000Y0144958D02*
X0388500Y0144958D01*
X0388500Y0140960D02*
X0387000Y0140960D01*
X0439677Y0160952D02*
X0454701Y0160952D01*
X0454701Y0164951D02*
X0441689Y0164951D01*
X0442050Y0168949D02*
X0454701Y0168949D01*
X0454701Y0172948D02*
X0440640Y0172948D01*
X0436534Y0176946D02*
X0454701Y0176946D01*
X0454701Y0180945D02*
X0439118Y0180945D01*
X0441597Y0184943D02*
X0454701Y0184943D01*
X0454701Y0188942D02*
X0442129Y0188942D01*
X0441086Y0192940D02*
X0454701Y0192940D01*
X0454701Y0196939D02*
X0437717Y0196939D01*
X0439426Y0200937D02*
X0454701Y0200937D01*
X0454701Y0204936D02*
X0441679Y0204936D01*
X0442129Y0208934D02*
X0454701Y0208934D01*
X0454701Y0212933D02*
X0440909Y0212933D01*
X0437184Y0216932D02*
X0454701Y0216932D01*
X0454701Y0220930D02*
X0439733Y0220930D01*
X0441761Y0224929D02*
X0454701Y0224929D01*
X0454701Y0228927D02*
X0442129Y0228927D01*
X0440731Y0232926D02*
X0454701Y0232926D01*
X0454701Y0236924D02*
X0436651Y0236924D01*
X0433982Y0240923D02*
X0454701Y0240923D01*
X0454701Y0244921D02*
X0434500Y0244921D01*
X0437872Y0248920D02*
X0454701Y0248920D01*
X0454701Y0252918D02*
X0441959Y0252918D01*
X0443300Y0256917D02*
X0454701Y0256917D01*
X0454701Y0260915D02*
X0442882Y0260915D01*
X0440653Y0264914D02*
X0454701Y0264914D01*
X0434064Y0284906D02*
X0431061Y0284906D01*
X0415648Y0284906D02*
X0403437Y0284906D01*
X0406250Y0288905D02*
X0411649Y0288905D01*
X0394163Y0284906D02*
X0389473Y0284906D01*
X0389666Y0300900D02*
X0391000Y0300900D01*
X0411060Y0316894D02*
X0417233Y0316894D01*
X0412426Y0319687D02*
X0412426Y0319687D01*
X0429475Y0316894D02*
X0432580Y0316894D01*
X0438683Y0316894D02*
X0444857Y0316894D01*
X0442285Y0320893D02*
X0441255Y0320893D01*
X0450960Y0316894D02*
X0454701Y0316894D01*
X0454701Y0320893D02*
X0453532Y0320893D01*
X0454701Y0330285D02*
X0454521Y0330718D01*
X0454336Y0330904D01*
X0454521Y0331090D01*
X0454701Y0331523D01*
X0454701Y0330285D01*
X0454701Y0345631D02*
X0454521Y0346065D01*
X0452327Y0348259D01*
X0449625Y0350961D01*
X0454701Y0350961D01*
X0454701Y0345631D01*
X0454701Y0348882D02*
X0451704Y0348882D01*
X0430846Y0350961D02*
X0429019Y0349134D01*
X0427831Y0346267D01*
X0427831Y0334100D01*
X0425016Y0334100D01*
X0425016Y0346267D01*
X0423828Y0349134D01*
X0422002Y0350961D01*
X0430846Y0350961D01*
X0428915Y0348882D02*
X0423933Y0348882D01*
X0425016Y0344884D02*
X0427831Y0344884D01*
X0427831Y0340885D02*
X0425016Y0340885D01*
X0425016Y0336887D02*
X0427831Y0336887D01*
X0359399Y0336887D02*
X0045000Y0336887D01*
X0045000Y0332888D02*
X0116527Y0332888D01*
X0123000Y0325500D02*
X0223000Y0325500D01*
X0228000Y0323000D01*
X0315500Y0323000D01*
X0288000Y0305500D02*
X0235500Y0305500D01*
X0227027Y0300900D02*
X0208000Y0300900D01*
X0208000Y0300511D02*
X0208000Y0309000D01*
X0215875Y0309000D01*
X0217669Y0308103D01*
X0217902Y0307870D01*
X0219261Y0307307D01*
X0220576Y0306650D01*
X0220905Y0306626D01*
X0221210Y0306500D01*
X0222681Y0306500D01*
X0224148Y0306396D01*
X0224460Y0306500D01*
X0226500Y0306500D01*
X0226500Y0303710D01*
X0226519Y0303664D01*
X0226519Y0302127D01*
X0227585Y0299554D01*
X0229521Y0297617D01*
X0228400Y0294910D01*
X0228400Y0292000D01*
X0223710Y0292000D01*
X0220402Y0290630D01*
X0217870Y0288098D01*
X0205048Y0275276D01*
X0203920Y0278000D01*
X0205200Y0281090D01*
X0205200Y0284910D01*
X0203920Y0288000D01*
X0205200Y0291090D01*
X0205200Y0294910D01*
X0205010Y0295368D01*
X0206478Y0296835D01*
X0208000Y0300511D01*
X0206505Y0296902D02*
X0229225Y0296902D01*
X0228400Y0292903D02*
X0205200Y0292903D01*
X0204295Y0288905D02*
X0218677Y0288905D01*
X0217870Y0288098D02*
X0217870Y0288098D01*
X0214678Y0284906D02*
X0205200Y0284906D01*
X0205124Y0280908D02*
X0210680Y0280908D01*
X0206681Y0276909D02*
X0204372Y0276909D01*
X0181628Y0276909D02*
X0162600Y0276909D01*
X0162600Y0272911D02*
X0180800Y0272911D01*
X0180876Y0280908D02*
X0158669Y0280908D01*
X0137331Y0280908D02*
X0131346Y0280908D01*
X0127792Y0284906D02*
X0180800Y0284906D01*
X0208000Y0304899D02*
X0226500Y0304899D01*
X0216081Y0308897D02*
X0208000Y0308897D01*
X0228348Y0332888D02*
X0354646Y0332888D01*
X0354000Y0308897D02*
X0351245Y0308897D01*
X0338000Y0285500D02*
X0340500Y0283000D01*
X0340500Y0258000D01*
X0293000Y0258000D01*
X0270500Y0245500D02*
X0258000Y0233000D01*
X0249559Y0236140D02*
X0249143Y0236861D01*
X0246736Y0239268D01*
X0243789Y0240969D01*
X0242000Y0241448D01*
X0242000Y0244000D01*
X0256272Y0244000D01*
X0252902Y0240630D01*
X0250370Y0238098D01*
X0249559Y0236140D01*
X0249884Y0236924D02*
X0249080Y0236924D01*
X0253195Y0240923D02*
X0243870Y0240923D01*
X0233000Y0243000D02*
X0213000Y0243000D01*
X0208000Y0248000D01*
X0190500Y0235500D02*
X0185500Y0240500D01*
X0185500Y0255500D01*
X0176500Y0241890D02*
X0176500Y0241582D01*
X0176283Y0241641D01*
X0176478Y0241835D01*
X0176500Y0241890D01*
X0190500Y0235500D02*
X0190500Y0223000D01*
X0188664Y0214019D02*
X0187127Y0214019D01*
X0186438Y0214304D01*
X0185844Y0212086D01*
X0185794Y0212000D01*
X0195206Y0212000D01*
X0195156Y0212086D01*
X0194562Y0214304D01*
X0193873Y0214019D01*
X0192336Y0214019D01*
X0192290Y0214000D01*
X0188710Y0214000D01*
X0188664Y0214019D01*
X0186071Y0212933D02*
X0194929Y0212933D01*
X0197779Y0182199D02*
X0198500Y0180757D01*
X0198500Y0179471D01*
X0197176Y0180794D01*
X0197598Y0181524D01*
X0197779Y0182199D01*
X0197264Y0180945D02*
X0198406Y0180945D01*
X0178736Y0180945D02*
X0157264Y0180945D01*
X0160000Y0176946D02*
X0176000Y0176946D01*
X0176000Y0172948D02*
X0160000Y0172948D01*
X0160000Y0168949D02*
X0176000Y0168949D01*
X0179079Y0164951D02*
X0156921Y0164951D01*
X0157018Y0160952D02*
X0178982Y0160952D01*
X0176636Y0156954D02*
X0159364Y0156954D01*
X0160000Y0152955D02*
X0176000Y0152955D01*
X0176660Y0148957D02*
X0159340Y0148957D01*
X0170608Y0144958D02*
X0179071Y0144958D01*
X0172870Y0140960D02*
X0193130Y0140960D01*
X0192700Y0136961D02*
X0173300Y0136961D01*
X0172106Y0132963D02*
X0194015Y0132963D01*
X0198050Y0128964D02*
X0173250Y0128964D01*
X0172829Y0124966D02*
X0198532Y0124966D01*
X0198500Y0120967D02*
X0187283Y0120967D01*
X0191098Y0116969D02*
X0198500Y0116969D01*
X0198500Y0112970D02*
X0192000Y0112970D01*
X0183000Y0113000D02*
X0128000Y0113000D01*
X0099071Y0144958D02*
X0078447Y0144958D01*
X0081417Y0148957D02*
X0096660Y0148957D01*
X0096000Y0152955D02*
X0082129Y0152955D01*
X0081441Y0156954D02*
X0096636Y0156954D01*
X0098982Y0160952D02*
X0078536Y0160952D01*
X0078754Y0164951D02*
X0099079Y0164951D01*
X0096000Y0168949D02*
X0081499Y0168949D01*
X0082129Y0172948D02*
X0096000Y0172948D01*
X0113027Y0184943D02*
X0120126Y0184943D01*
X0117026Y0180945D02*
X0138736Y0180945D01*
X0136000Y0176946D02*
X0120000Y0176946D01*
X0120000Y0172948D02*
X0136000Y0172948D01*
X0136000Y0168949D02*
X0120000Y0168949D01*
X0116921Y0164951D02*
X0139079Y0164951D01*
X0138982Y0160952D02*
X0117018Y0160952D01*
X0119364Y0156954D02*
X0136636Y0156954D01*
X0116123Y0188942D02*
X0045000Y0188942D01*
X0045000Y0192940D02*
X0112125Y0192940D01*
X0147270Y0240923D02*
X0150435Y0240923D01*
X0132854Y0252918D02*
X0126944Y0252918D01*
X0128855Y0256917D02*
X0112000Y0256917D01*
X0112000Y0260915D02*
X0125034Y0260915D01*
X0121480Y0264914D02*
X0112000Y0264914D01*
X0112000Y0268912D02*
X0117925Y0268912D01*
X0114371Y0272911D02*
X0112000Y0272911D01*
X0094000Y0287717D02*
X0093237Y0288157D01*
X0094000Y0288598D01*
X0094000Y0287717D01*
X0082133Y0288157D02*
X0080747Y0287357D01*
X0078643Y0285253D01*
X0077843Y0283867D01*
X0077042Y0285253D01*
X0074938Y0287357D01*
X0073552Y0288157D01*
X0074938Y0288958D01*
X0077042Y0291062D01*
X0077843Y0292448D01*
X0078643Y0291062D01*
X0080747Y0288958D01*
X0082133Y0288157D01*
X0080839Y0288905D02*
X0074847Y0288905D01*
X0077243Y0284906D02*
X0078442Y0284906D01*
X0077843Y0303552D02*
X0077042Y0304938D01*
X0074938Y0307042D01*
X0073552Y0307843D01*
X0074938Y0308643D01*
X0077042Y0310747D01*
X0077843Y0312133D01*
X0078643Y0310747D01*
X0080747Y0308643D01*
X0082133Y0307843D01*
X0080747Y0307042D01*
X0078643Y0304938D01*
X0077843Y0303552D01*
X0077065Y0304899D02*
X0078620Y0304899D01*
X0080492Y0308897D02*
X0075193Y0308897D01*
X0076774Y0324891D02*
X0078911Y0324891D01*
X0112000Y0252918D02*
X0114056Y0252918D01*
X0198500Y0166529D02*
X0198500Y0158813D01*
X0197602Y0160368D01*
X0195368Y0162602D01*
X0194864Y0162893D01*
X0198500Y0166529D01*
X0198500Y0164951D02*
X0196921Y0164951D01*
X0197018Y0160952D02*
X0198500Y0160952D01*
X0199312Y0148851D02*
X0199401Y0148541D01*
X0199739Y0148119D01*
X0199862Y0147822D01*
X0199024Y0147598D01*
X0198594Y0147350D01*
X0199182Y0148368D01*
X0199312Y0148851D01*
X0183000Y0113000D02*
X0183000Y0058000D01*
X0198000Y0043000D01*
X0206981Y0044996D02*
X0211950Y0044996D01*
X0212305Y0040997D02*
X0206981Y0040997D01*
X0205860Y0036999D02*
X0216303Y0036999D01*
X0220302Y0033000D02*
X0172054Y0033000D01*
X0176506Y0036999D02*
X0190140Y0036999D01*
X0187275Y0040997D02*
X0178106Y0040997D01*
X0178108Y0044996D02*
X0183277Y0044996D01*
X0179278Y0048994D02*
X0176510Y0048994D01*
X0177902Y0050370D02*
X0177902Y0050370D01*
X0175333Y0052993D02*
X0172067Y0052993D01*
X0153933Y0052993D02*
X0102067Y0052993D01*
X0106502Y0056991D02*
X0149498Y0056991D01*
X0147896Y0060990D02*
X0108104Y0060990D01*
X0108110Y0064988D02*
X0147890Y0064988D01*
X0149485Y0068987D02*
X0106515Y0068987D01*
X0102080Y0072985D02*
X0153920Y0072985D01*
X0172054Y0073000D02*
X0173956Y0074098D01*
X0174000Y0074142D01*
X0174000Y0071858D01*
X0173956Y0071902D01*
X0172054Y0073000D01*
X0172080Y0072985D02*
X0174000Y0072985D01*
X0192000Y0064988D02*
X0454701Y0064988D01*
X0454701Y0060990D02*
X0417709Y0060990D01*
X0421707Y0056991D02*
X0454701Y0056991D01*
X0454701Y0052993D02*
X0424050Y0052993D01*
X0424050Y0048994D02*
X0454701Y0048994D01*
X0454701Y0044996D02*
X0424050Y0044996D01*
X0423695Y0040997D02*
X0454701Y0040997D01*
X0454701Y0036999D02*
X0419697Y0036999D01*
X0415698Y0033000D02*
X0454701Y0033000D01*
X0263299Y0104973D02*
X0250908Y0104973D01*
X0254114Y0108972D02*
X0259300Y0108972D01*
X0255302Y0112970D02*
X0255000Y0112970D01*
X0218373Y0100975D02*
X0192000Y0100975D01*
X0192000Y0104973D02*
X0202592Y0104973D01*
X0199386Y0108972D02*
X0192000Y0108972D01*
X0192000Y0096976D02*
X0214649Y0096976D01*
X0218291Y0060990D02*
X0192738Y0060990D01*
X0196737Y0056991D02*
X0214293Y0056991D01*
X0211950Y0052993D02*
X0200735Y0052993D01*
X0205868Y0048994D02*
X0211950Y0048994D01*
X0153945Y0033000D02*
X0102054Y0033000D01*
X0106506Y0036999D02*
X0149494Y0036999D01*
X0147894Y0040997D02*
X0108106Y0040997D01*
X0108108Y0044996D02*
X0147892Y0044996D01*
X0149490Y0048994D02*
X0106510Y0048994D01*
X0378000Y0218000D02*
X0378000Y0243000D01*
X0348000Y0268000D01*
X0349138Y0255336D02*
X0348792Y0254500D01*
X0349790Y0254500D01*
X0349836Y0254481D01*
X0350164Y0254481D01*
X0349138Y0255336D01*
X0387000Y0227752D02*
X0389000Y0227752D01*
X0389000Y0227000D01*
X0387000Y0227000D01*
X0387000Y0227752D01*
X0398000Y0233000D02*
X0408000Y0243000D01*
X0423000Y0243000D01*
X0425500Y0245500D01*
X0419056Y0252918D02*
X0401959Y0252918D01*
X0401192Y0248920D02*
X0397872Y0248920D01*
X0397193Y0244921D02*
X0395572Y0244921D01*
X0403300Y0256917D02*
X0422700Y0256917D01*
X0423118Y0260915D02*
X0402882Y0260915D01*
X0400653Y0264914D02*
X0425347Y0264914D01*
X0415426Y0232926D02*
X0410653Y0232926D01*
X0414029Y0228927D02*
X0407000Y0228927D01*
X0407000Y0224929D02*
X0414396Y0224929D01*
X0416424Y0220930D02*
X0407000Y0220930D01*
X0407000Y0216932D02*
X0418974Y0216932D01*
X0415249Y0212933D02*
X0407000Y0212933D01*
X0406058Y0208934D02*
X0414029Y0208934D01*
X0414478Y0204936D02*
X0402664Y0204936D01*
X0399799Y0200937D02*
X0416732Y0200937D01*
X0398000Y0213000D02*
X0398000Y0218000D01*
X0378000Y0218000D01*
X0393000Y0208000D02*
X0398000Y0213000D01*
X0398000Y0218000D02*
X0398000Y0233000D01*
M02*
