G75*
%MOIN*%
%OFA0B0*%
%FSLAX25Y25*%
%IPPOS*%
%LPD*%
%AMOC8*
5,1,8,0,0,1.08239X$1,22.5*
%
%ADD10C,0.00600*%
%ADD11C,0.18100*%
%ADD12OC8,0.18100*%
%ADD13R,0.05118X0.05906*%
%ADD14R,0.05906X0.05118*%
%ADD15C,0.10000*%
%ADD16OC8,0.10000*%
%ADD17C,0.06600*%
%ADD18C,0.08250*%
%ADD19C,0.05200*%
%ADD20C,0.06000*%
%ADD21OC8,0.05200*%
%ADD22C,0.05200*%
%ADD23C,0.04400*%
%ADD24C,0.08600*%
%ADD25OC8,0.06496*%
%ADD26C,0.11850*%
%ADD27C,0.12400*%
%ADD28C,0.25500*%
%ADD29C,0.07050*%
%ADD30C,0.04000*%
%ADD31C,0.05000*%
%ADD32R,0.03962X0.03962*%
%ADD33C,0.10000*%
%ADD34C,0.07600*%
%ADD35C,0.03200*%
D10*
X0193039Y0101868D02*
X0194106Y0100800D01*
X0196241Y0100800D01*
X0197309Y0101868D01*
X0197309Y0107205D01*
X0199484Y0106138D02*
X0200552Y0107205D01*
X0202687Y0107205D01*
X0203755Y0106138D01*
X0203755Y0105070D01*
X0202687Y0104003D01*
X0200552Y0104003D01*
X0199484Y0102935D01*
X0199484Y0101868D01*
X0200552Y0100800D01*
X0202687Y0100800D01*
X0203755Y0101868D01*
X0205930Y0104003D02*
X0206997Y0102935D01*
X0210200Y0102935D01*
X0210200Y0100800D02*
X0210200Y0107205D01*
X0206997Y0107205D01*
X0205930Y0106138D01*
X0205930Y0104003D01*
X0206997Y0111300D02*
X0205930Y0112368D01*
X0205930Y0116638D01*
X0206997Y0117705D01*
X0210200Y0117705D01*
X0210200Y0111300D01*
X0206997Y0111300D01*
X0203755Y0111300D02*
X0199484Y0111300D01*
X0197309Y0111300D02*
X0197309Y0117705D01*
X0194106Y0117705D01*
X0193039Y0116638D01*
X0193039Y0114503D01*
X0194106Y0113435D01*
X0197309Y0113435D01*
X0195174Y0113435D02*
X0193039Y0111300D01*
X0193039Y0107205D02*
X0193039Y0101868D01*
X0203755Y0111300D02*
X0203755Y0117705D01*
D11*
X0228000Y0088000D03*
X0318000Y0088000D03*
X0408000Y0088000D03*
D12*
X0408000Y0048000D03*
X0318000Y0048000D03*
X0228000Y0048000D03*
D13*
X0131740Y0173000D03*
X0124260Y0173000D03*
X0239260Y0253000D03*
X0246740Y0253000D03*
X0299260Y0238000D03*
X0306740Y0238000D03*
X0329260Y0238000D03*
X0336740Y0238000D03*
X0404260Y0268000D03*
X0411740Y0268000D03*
X0411740Y0278000D03*
X0404260Y0278000D03*
X0424260Y0288000D03*
X0431740Y0288000D03*
X0316740Y0293000D03*
X0309260Y0293000D03*
X0256740Y0308000D03*
X0249260Y0308000D03*
X0249260Y0318000D03*
X0256740Y0318000D03*
X0256740Y0328000D03*
X0249260Y0328000D03*
X0176740Y0293000D03*
X0169260Y0293000D03*
X0169260Y0283000D03*
X0176740Y0283000D03*
X0176740Y0273000D03*
X0169260Y0273000D03*
X0101740Y0258000D03*
X0094260Y0258000D03*
X0264260Y0218000D03*
X0271740Y0218000D03*
D14*
X0288000Y0201740D03*
X0288000Y0194260D03*
X0298000Y0214260D03*
X0308000Y0214260D03*
X0308000Y0221740D03*
X0298000Y0221740D03*
X0318000Y0221740D03*
X0318000Y0214260D03*
X0338000Y0249260D03*
X0338000Y0256740D03*
X0298000Y0309260D03*
X0298000Y0316740D03*
X0213000Y0306740D03*
X0213000Y0299260D03*
X0213000Y0291740D03*
X0213000Y0284260D03*
X0213000Y0276740D03*
X0213000Y0269260D03*
X0093000Y0171740D03*
X0093000Y0164260D03*
X0178000Y0131740D03*
X0178000Y0124260D03*
X0273000Y0101740D03*
X0273000Y0094260D03*
X0288000Y0124260D03*
X0288000Y0131740D03*
X0433000Y0269260D03*
X0433000Y0276740D03*
D15*
X0348000Y0163000D03*
X0228000Y0128000D03*
X0188000Y0153000D03*
X0148000Y0153000D03*
X0108000Y0153000D03*
D16*
X0108000Y0173000D03*
X0148000Y0173000D03*
X0188000Y0173000D03*
X0228000Y0148000D03*
X0348000Y0143000D03*
D17*
X0318000Y0148000D03*
X0318000Y0188000D03*
X0278000Y0238000D03*
X0278000Y0278000D03*
X0383000Y0293000D03*
X0393000Y0258000D03*
X0383000Y0253000D03*
X0433000Y0258000D03*
X0203000Y0138000D03*
X0163000Y0138000D03*
X0148000Y0185500D03*
X0188000Y0185500D03*
D18*
X0162125Y0128000D02*
X0153875Y0128000D01*
X0158875Y0103000D02*
X0167125Y0103000D01*
X0167125Y0083000D02*
X0158875Y0083000D01*
X0158875Y0063000D02*
X0167125Y0063000D01*
X0167125Y0043000D02*
X0158875Y0043000D01*
X0097125Y0043000D02*
X0088875Y0043000D01*
X0088875Y0063000D02*
X0097125Y0063000D01*
X0097125Y0083000D02*
X0088875Y0083000D01*
X0088875Y0103000D02*
X0097125Y0103000D01*
X0093875Y0128000D02*
X0102125Y0128000D01*
X0298875Y0123000D02*
X0307125Y0123000D01*
X0358875Y0123000D02*
X0367125Y0123000D01*
D19*
X0328000Y0248000D03*
X0318000Y0248000D03*
X0308000Y0248000D03*
X0298000Y0248000D03*
X0268000Y0263000D03*
X0258000Y0263000D03*
X0248000Y0263000D03*
X0238000Y0263000D03*
X0238000Y0293000D03*
X0248000Y0293000D03*
X0258000Y0293000D03*
X0268000Y0293000D03*
X0298000Y0278000D03*
X0308000Y0278000D03*
X0318000Y0278000D03*
X0328000Y0278000D03*
D20*
X0208000Y0251000D02*
X0208000Y0245000D01*
X0198000Y0245000D02*
X0198000Y0251000D01*
X0168000Y0253500D02*
X0168000Y0247500D01*
X0158000Y0247500D02*
X0158000Y0253500D01*
X0188000Y0302500D02*
X0188000Y0308500D01*
X0198000Y0308500D02*
X0198000Y0302500D01*
D21*
X0153000Y0298000D03*
X0143000Y0298000D03*
X0143000Y0273000D03*
X0153000Y0273000D03*
D22*
X0190400Y0273000D02*
X0195600Y0273000D01*
X0195600Y0283000D02*
X0190400Y0283000D01*
X0190400Y0293000D02*
X0195600Y0293000D01*
X0338000Y0228100D02*
X0338000Y0222900D01*
X0348000Y0222900D02*
X0348000Y0228100D01*
X0358000Y0228100D02*
X0358000Y0222900D01*
X0308000Y0170600D02*
X0308000Y0165400D01*
X0298000Y0165400D02*
X0298000Y0170600D01*
X0288000Y0170600D02*
X0288000Y0165400D01*
X0288000Y0145600D02*
X0288000Y0140400D01*
X0298000Y0140400D02*
X0298000Y0145600D01*
X0308000Y0145600D02*
X0308000Y0140400D01*
D23*
X0240500Y0173000D03*
X0240500Y0183000D03*
X0240500Y0193000D03*
X0220500Y0193000D03*
X0220500Y0183000D03*
X0220500Y0173000D03*
X0333000Y0193000D03*
X0343000Y0193000D03*
X0353000Y0193000D03*
D24*
X0087685Y0208315D03*
X0068000Y0208315D03*
X0068000Y0228000D03*
X0087685Y0228000D03*
X0087685Y0247685D03*
X0068000Y0247685D03*
X0068000Y0278315D03*
X0087685Y0278315D03*
X0087685Y0298000D03*
X0068000Y0298000D03*
X0068000Y0317685D03*
X0087685Y0317685D03*
D25*
X0388000Y0238000D03*
X0470500Y0268000D03*
X0535500Y0268000D03*
X0535500Y0168000D03*
X0470500Y0168000D03*
X0388000Y0118000D03*
X0470500Y0063000D03*
X0535500Y0063000D03*
D26*
X0238800Y0217075D02*
X0238800Y0228925D01*
X0223000Y0228925D02*
X0223000Y0217075D01*
X0207200Y0217075D02*
X0207200Y0228925D01*
X0173800Y0228925D02*
X0173800Y0217075D01*
X0158000Y0217075D02*
X0158000Y0228925D01*
X0142200Y0228925D02*
X0142200Y0217075D01*
D27*
X0549800Y0301500D02*
X0562200Y0301500D01*
X0562200Y0344500D02*
X0549800Y0344500D01*
X0554800Y0239500D02*
X0567200Y0239500D01*
X0567200Y0196500D02*
X0554800Y0196500D01*
X0554800Y0134500D02*
X0567200Y0134500D01*
X0567200Y0091500D02*
X0554800Y0091500D01*
D28*
X0508500Y0113000D03*
X0627500Y0113000D03*
X0627500Y0218000D03*
X0508500Y0218000D03*
X0503500Y0323000D03*
X0622500Y0323000D03*
D29*
X0431604Y0227685D02*
X0424554Y0227685D01*
X0424554Y0208000D02*
X0431604Y0208000D01*
X0431604Y0188315D02*
X0424554Y0188315D01*
X0424475Y0167685D02*
X0431525Y0167685D01*
X0431525Y0128315D02*
X0424475Y0128315D01*
X0071604Y0133315D02*
X0064554Y0133315D01*
X0064554Y0153000D02*
X0071604Y0153000D01*
X0071604Y0172685D02*
X0064554Y0172685D01*
X0066525Y0102528D02*
X0059475Y0102528D01*
X0059475Y0082843D02*
X0066525Y0082843D01*
X0066525Y0063157D02*
X0059475Y0063157D01*
X0059475Y0043472D02*
X0066525Y0043472D01*
D30*
X0045000Y0030000D02*
X0045000Y0350961D01*
X0454701Y0350961D01*
X0454701Y0030000D01*
X0045000Y0030000D01*
X0045000Y0033000D02*
X0057893Y0033000D01*
X0058089Y0032947D02*
X0067911Y0032947D01*
X0069973Y0033500D01*
X0083079Y0033500D01*
X0084581Y0032633D01*
X0087410Y0031875D01*
X0098590Y0031875D01*
X0101419Y0032633D01*
X0103956Y0034098D01*
X0106027Y0036169D01*
X0107492Y0038706D01*
X0108250Y0041535D01*
X0108250Y0044465D01*
X0107492Y0047294D01*
X0106027Y0049831D01*
X0103956Y0051902D01*
X0102500Y0052743D01*
X0102500Y0053257D01*
X0103956Y0054098D01*
X0106027Y0056169D01*
X0107492Y0058706D01*
X0108250Y0061535D01*
X0108250Y0064465D01*
X0107492Y0067294D01*
X0106027Y0069831D01*
X0103956Y0071902D01*
X0102054Y0073000D01*
X0102921Y0073500D01*
X0114890Y0073500D01*
X0116000Y0073960D01*
X0116000Y0061420D01*
X0116818Y0058368D01*
X0118398Y0055632D01*
X0140632Y0033398D01*
X0143368Y0031818D01*
X0146420Y0031000D01*
X0172401Y0031000D01*
X0173378Y0030902D01*
X0173975Y0031000D01*
X0174580Y0031000D01*
X0175528Y0031254D01*
X0176496Y0031412D01*
X0177048Y0031661D01*
X0177632Y0031818D01*
X0178482Y0032308D01*
X0179376Y0032712D01*
X0179844Y0033095D01*
X0180368Y0033398D01*
X0181062Y0034091D01*
X0189019Y0040602D01*
X0189019Y0039627D01*
X0190085Y0037054D01*
X0192054Y0035085D01*
X0194627Y0034019D01*
X0196164Y0034019D01*
X0196210Y0034000D01*
X0199790Y0034000D01*
X0199836Y0034019D01*
X0201373Y0034019D01*
X0203946Y0035085D01*
X0205915Y0037054D01*
X0206717Y0038989D01*
X0215950Y0048222D01*
X0215950Y0048000D01*
X0228000Y0048000D01*
X0240050Y0048000D01*
X0240050Y0052991D01*
X0234041Y0059000D01*
X0311959Y0059000D01*
X0305950Y0052991D01*
X0305950Y0048000D01*
X0318000Y0048000D01*
X0330050Y0048000D01*
X0330050Y0052991D01*
X0324041Y0059000D01*
X0401959Y0059000D01*
X0395950Y0052991D01*
X0395950Y0048000D01*
X0408000Y0048000D01*
X0420050Y0048000D01*
X0420050Y0052991D01*
X0414041Y0059000D01*
X0427290Y0059000D01*
X0430598Y0060370D01*
X0433130Y0062902D01*
X0434500Y0066210D01*
X0434500Y0104790D01*
X0433130Y0108098D01*
X0430598Y0110630D01*
X0428098Y0113130D01*
X0426047Y0113979D01*
X0428381Y0114946D01*
X0431225Y0117790D01*
X0432911Y0117790D01*
X0435587Y0118507D01*
X0437987Y0119893D01*
X0439947Y0121852D01*
X0441333Y0124252D01*
X0442050Y0126929D01*
X0442050Y0129701D01*
X0441333Y0132377D01*
X0439947Y0134777D01*
X0437987Y0136737D01*
X0435587Y0138123D01*
X0432911Y0138840D01*
X0423089Y0138840D01*
X0420412Y0138123D01*
X0418012Y0136737D01*
X0416053Y0134777D01*
X0414738Y0132500D01*
X0391110Y0132500D01*
X0388000Y0131212D01*
X0384890Y0132500D01*
X0372920Y0132500D01*
X0371419Y0133367D01*
X0370940Y0133495D01*
X0361435Y0143000D01*
X0363381Y0144946D01*
X0366054Y0147619D01*
X0367500Y0151110D01*
X0367500Y0184772D01*
X0371728Y0189000D01*
X0384790Y0189000D01*
X0388098Y0190370D01*
X0389124Y0191396D01*
X0388500Y0189890D01*
X0388500Y0166110D01*
X0389019Y0164858D01*
X0389019Y0164627D01*
X0390085Y0162054D01*
X0392054Y0160085D01*
X0394627Y0159019D01*
X0394858Y0159019D01*
X0396110Y0158500D01*
X0399890Y0158500D01*
X0401142Y0159019D01*
X0401373Y0159019D01*
X0403946Y0160085D01*
X0405915Y0162054D01*
X0406981Y0164627D01*
X0406981Y0164858D01*
X0407500Y0166110D01*
X0407500Y0184065D01*
X0408000Y0184565D01*
X0409946Y0182619D01*
X0412619Y0179946D01*
X0416110Y0178500D01*
X0418500Y0178500D01*
X0418500Y0176389D01*
X0418012Y0176107D01*
X0416053Y0174148D01*
X0414667Y0171748D01*
X0413950Y0169071D01*
X0413950Y0166299D01*
X0414667Y0163623D01*
X0416053Y0161223D01*
X0418012Y0159263D01*
X0420412Y0157877D01*
X0423089Y0157160D01*
X0432911Y0157160D01*
X0435587Y0157877D01*
X0437987Y0159263D01*
X0439947Y0161223D01*
X0441333Y0163623D01*
X0442050Y0166299D01*
X0442050Y0169071D01*
X0441333Y0171748D01*
X0439947Y0174148D01*
X0437987Y0176107D01*
X0437500Y0176389D01*
X0437500Y0179566D01*
X0438066Y0179893D01*
X0440026Y0181852D01*
X0441411Y0184252D01*
X0442129Y0186929D01*
X0442129Y0189701D01*
X0441411Y0192377D01*
X0440026Y0194777D01*
X0438066Y0196737D01*
X0435666Y0198123D01*
X0435536Y0198157D01*
X0435666Y0198192D01*
X0438066Y0199578D01*
X0440026Y0201537D01*
X0441411Y0203937D01*
X0442129Y0206614D01*
X0442129Y0209386D01*
X0441411Y0212062D01*
X0440026Y0214462D01*
X0438066Y0216422D01*
X0435666Y0217808D01*
X0435536Y0217843D01*
X0435666Y0217877D01*
X0438066Y0219263D01*
X0440026Y0221223D01*
X0441411Y0223623D01*
X0442129Y0226299D01*
X0442129Y0229071D01*
X0442059Y0229331D01*
X0448098Y0235370D01*
X0450630Y0237902D01*
X0452000Y0241210D01*
X0452000Y0299790D01*
X0450630Y0303098D01*
X0435630Y0318098D01*
X0433098Y0320630D01*
X0429790Y0322000D01*
X0370862Y0322000D01*
X0370915Y0322054D01*
X0371981Y0324627D01*
X0371981Y0326164D01*
X0372000Y0326210D01*
X0372000Y0329790D01*
X0371981Y0329836D01*
X0371981Y0331373D01*
X0370915Y0333946D01*
X0368946Y0335915D01*
X0367011Y0336717D01*
X0363098Y0340630D01*
X0359790Y0342000D01*
X0276210Y0342000D01*
X0272902Y0340630D01*
X0270370Y0338098D01*
X0269000Y0334790D01*
X0269000Y0302600D01*
X0267500Y0302600D01*
X0267500Y0339890D01*
X0266054Y0343381D01*
X0263381Y0346054D01*
X0259890Y0347500D01*
X0106110Y0347500D01*
X0102619Y0346054D01*
X0085313Y0328748D01*
X0083323Y0328215D01*
X0082085Y0327500D01*
X0073600Y0327500D01*
X0072362Y0328215D01*
X0069488Y0328985D01*
X0066512Y0328985D01*
X0063638Y0328215D01*
X0062400Y0327500D01*
X0056110Y0327500D01*
X0052619Y0326054D01*
X0049946Y0323381D01*
X0048500Y0319890D01*
X0048500Y0276110D01*
X0049946Y0272619D01*
X0052619Y0269946D01*
X0056110Y0268500D01*
X0062400Y0268500D01*
X0063638Y0267785D01*
X0066512Y0267015D01*
X0069488Y0267015D01*
X0072362Y0267785D01*
X0073600Y0268500D01*
X0082085Y0268500D01*
X0083323Y0267785D01*
X0086197Y0267015D01*
X0088044Y0267015D01*
X0087736Y0266887D01*
X0085766Y0264918D01*
X0085260Y0263695D01*
X0079946Y0258381D01*
X0079581Y0257500D01*
X0073600Y0257500D01*
X0072362Y0258215D01*
X0069488Y0258985D01*
X0066512Y0258985D01*
X0063638Y0258215D01*
X0061062Y0256727D01*
X0058958Y0254623D01*
X0057470Y0252047D01*
X0056700Y0249173D01*
X0056700Y0246197D01*
X0057470Y0243323D01*
X0058958Y0240747D01*
X0061062Y0238643D01*
X0062448Y0237843D01*
X0061062Y0237042D01*
X0058958Y0234938D01*
X0057470Y0232362D01*
X0056700Y0229488D01*
X0056700Y0226512D01*
X0057470Y0223638D01*
X0058958Y0221062D01*
X0061062Y0218958D01*
X0062448Y0218157D01*
X0061062Y0217357D01*
X0058958Y0215253D01*
X0057470Y0212677D01*
X0056700Y0209803D01*
X0056700Y0206827D01*
X0057470Y0203953D01*
X0058958Y0201377D01*
X0061062Y0199273D01*
X0063638Y0197785D01*
X0066512Y0197015D01*
X0069488Y0197015D01*
X0072362Y0197785D01*
X0073600Y0198500D01*
X0082085Y0198500D01*
X0083323Y0197785D01*
X0086197Y0197015D01*
X0089173Y0197015D01*
X0092047Y0197785D01*
X0093285Y0198500D01*
X0093500Y0198500D01*
X0093500Y0191110D01*
X0094946Y0187619D01*
X0097619Y0184946D01*
X0101110Y0183500D01*
X0101529Y0183500D01*
X0100029Y0182000D01*
X0091210Y0182000D01*
X0089518Y0181299D01*
X0088655Y0181299D01*
X0086082Y0180234D01*
X0084113Y0178264D01*
X0083251Y0176184D01*
X0081054Y0178381D01*
X0078381Y0181054D01*
X0077594Y0181380D01*
X0075666Y0182493D01*
X0072989Y0183210D01*
X0063168Y0183210D01*
X0060491Y0182493D01*
X0058091Y0181107D01*
X0056132Y0179148D01*
X0054746Y0176748D01*
X0054029Y0174071D01*
X0054029Y0171299D01*
X0054746Y0168623D01*
X0056132Y0166223D01*
X0058091Y0164263D01*
X0060491Y0162877D01*
X0063168Y0162160D01*
X0070405Y0162160D01*
X0073251Y0159314D01*
X0072879Y0159413D01*
X0072031Y0159525D01*
X0068079Y0159525D01*
X0068079Y0153000D01*
X0078129Y0153000D01*
X0068079Y0153000D01*
X0068079Y0153000D01*
X0068079Y0153000D01*
X0068079Y0146475D01*
X0072031Y0146475D01*
X0072879Y0146587D01*
X0073706Y0146808D01*
X0074496Y0147135D01*
X0075237Y0147563D01*
X0075915Y0148084D01*
X0076520Y0148689D01*
X0077041Y0149367D01*
X0077468Y0150108D01*
X0077796Y0150898D01*
X0078017Y0151724D01*
X0078129Y0152572D01*
X0078129Y0153000D01*
X0078129Y0153428D01*
X0078017Y0154276D01*
X0077865Y0154844D01*
X0081110Y0153500D01*
X0083500Y0153500D01*
X0083500Y0141110D01*
X0084946Y0137619D01*
X0086353Y0136212D01*
X0084973Y0134831D01*
X0083508Y0132294D01*
X0082750Y0129465D01*
X0082750Y0126535D01*
X0083508Y0123706D01*
X0084973Y0121169D01*
X0087044Y0119098D01*
X0089581Y0117633D01*
X0092410Y0116875D01*
X0103590Y0116875D01*
X0106419Y0117633D01*
X0108956Y0119098D01*
X0111027Y0121169D01*
X0112492Y0123706D01*
X0113250Y0126535D01*
X0113250Y0129465D01*
X0112492Y0132294D01*
X0111796Y0133500D01*
X0129890Y0133500D01*
X0131142Y0134019D01*
X0131373Y0134019D01*
X0133946Y0135085D01*
X0135915Y0137054D01*
X0136981Y0139627D01*
X0136981Y0139858D01*
X0137500Y0141110D01*
X0137500Y0144890D01*
X0136981Y0146142D01*
X0136981Y0146373D01*
X0135915Y0148946D01*
X0133946Y0150915D01*
X0131373Y0151981D01*
X0131142Y0151981D01*
X0129890Y0152500D01*
X0116000Y0152500D01*
X0116000Y0153000D01*
X0116000Y0153524D01*
X0115863Y0154564D01*
X0115592Y0155577D01*
X0115190Y0156546D01*
X0114666Y0157454D01*
X0114028Y0158286D01*
X0113286Y0159028D01*
X0112454Y0159666D01*
X0111546Y0160190D01*
X0110577Y0160592D01*
X0109564Y0160863D01*
X0108524Y0161000D01*
X0108000Y0161000D01*
X0108000Y0153000D01*
X0108000Y0153000D01*
X0116000Y0153000D01*
X0108000Y0153000D01*
X0108000Y0153000D01*
X0108000Y0161000D01*
X0107476Y0161000D01*
X0106436Y0160863D01*
X0105423Y0160592D01*
X0104454Y0160190D01*
X0103546Y0159666D01*
X0102714Y0159028D01*
X0102500Y0158814D01*
X0102500Y0159215D01*
X0102953Y0160308D01*
X0102953Y0161077D01*
X0103029Y0161000D01*
X0112971Y0161000D01*
X0115971Y0164000D01*
X0118008Y0164000D01*
X0120308Y0163047D01*
X0135692Y0163047D01*
X0137992Y0164000D01*
X0140029Y0164000D01*
X0143029Y0161000D01*
X0152971Y0161000D01*
X0160000Y0168029D01*
X0160000Y0177971D01*
X0157176Y0180794D01*
X0157598Y0181524D01*
X0158127Y0183500D01*
X0177873Y0183500D01*
X0178402Y0181524D01*
X0178500Y0181354D01*
X0178500Y0180471D01*
X0176000Y0177971D01*
X0176000Y0168029D01*
X0181136Y0162893D01*
X0180632Y0162602D01*
X0178398Y0160368D01*
X0176818Y0157632D01*
X0176000Y0154580D01*
X0176000Y0154435D01*
X0169946Y0148381D01*
X0168500Y0144890D01*
X0168500Y0141083D01*
X0168388Y0141302D01*
X0167805Y0142104D01*
X0167104Y0142805D01*
X0166302Y0143388D01*
X0165418Y0143838D01*
X0164475Y0144145D01*
X0163496Y0144300D01*
X0163000Y0144300D01*
X0163000Y0138000D01*
X0163000Y0138000D01*
X0163000Y0138000D01*
X0156700Y0138000D01*
X0156700Y0138496D01*
X0156855Y0139475D01*
X0157162Y0140418D01*
X0157612Y0141302D01*
X0158195Y0142104D01*
X0158896Y0142805D01*
X0159698Y0143388D01*
X0160582Y0143838D01*
X0161525Y0144145D01*
X0162504Y0144300D01*
X0163000Y0144300D01*
X0163000Y0138000D01*
X0156700Y0138000D01*
X0156700Y0137504D01*
X0156855Y0136525D01*
X0157162Y0135582D01*
X0157394Y0135125D01*
X0153408Y0135125D01*
X0152482Y0135003D01*
X0151580Y0134761D01*
X0150717Y0134404D01*
X0149908Y0133937D01*
X0149167Y0133368D01*
X0148507Y0132708D01*
X0147938Y0131967D01*
X0147471Y0131158D01*
X0147114Y0130295D01*
X0146872Y0129393D01*
X0146750Y0128467D01*
X0146750Y0128000D01*
X0158000Y0128000D01*
X0158000Y0120875D01*
X0162592Y0120875D01*
X0163518Y0120997D01*
X0164420Y0121239D01*
X0165283Y0121596D01*
X0166092Y0122063D01*
X0166833Y0122632D01*
X0167493Y0123292D01*
X0168047Y0124014D01*
X0168047Y0121482D01*
X0160690Y0114125D01*
X0157410Y0114125D01*
X0154581Y0113367D01*
X0152044Y0111902D01*
X0149973Y0109831D01*
X0148508Y0107294D01*
X0147750Y0104465D01*
X0147750Y0101535D01*
X0148508Y0098706D01*
X0149973Y0096169D01*
X0152044Y0094098D01*
X0154581Y0092633D01*
X0157410Y0091875D01*
X0168590Y0091875D01*
X0171419Y0092633D01*
X0173956Y0094098D01*
X0176027Y0096169D01*
X0177492Y0098706D01*
X0178250Y0101535D01*
X0178250Y0104465D01*
X0178176Y0104741D01*
X0183381Y0109946D01*
X0185739Y0112304D01*
X0185739Y0109848D01*
X0185985Y0109253D01*
X0185739Y0108658D01*
X0185739Y0103320D01*
X0185739Y0103320D01*
X0185739Y0101883D01*
X0185739Y0100416D01*
X0185739Y0100415D01*
X0186246Y0099192D01*
X0186850Y0097732D01*
X0187874Y0096708D01*
X0188904Y0095679D01*
X0188947Y0095636D01*
X0189971Y0094611D01*
X0192035Y0093757D01*
X0192654Y0093500D01*
X0192654Y0093500D01*
X0192654Y0093500D01*
X0194122Y0093500D01*
X0197693Y0093500D01*
X0198397Y0093791D01*
X0198417Y0093783D01*
X0199100Y0093500D01*
X0200536Y0093500D01*
X0204139Y0093500D01*
X0206443Y0094455D01*
X0208748Y0093500D01*
X0211652Y0093500D01*
X0213008Y0094062D01*
X0212039Y0090446D01*
X0168716Y0055000D01*
X0152971Y0055000D01*
X0140000Y0067971D01*
X0140000Y0089580D01*
X0139182Y0092632D01*
X0137602Y0095368D01*
X0122602Y0110368D01*
X0120368Y0112602D01*
X0117632Y0114182D01*
X0114580Y0115000D01*
X0080000Y0115000D01*
X0080000Y0126827D01*
X0080026Y0126852D01*
X0081411Y0129252D01*
X0082129Y0131929D01*
X0082129Y0134701D01*
X0081411Y0137377D01*
X0080026Y0139777D01*
X0078066Y0141737D01*
X0075666Y0143123D01*
X0073428Y0143722D01*
X0072632Y0144182D01*
X0069580Y0145000D01*
X0066420Y0145000D01*
X0063368Y0144182D01*
X0062435Y0143644D01*
X0060491Y0143123D01*
X0058091Y0141737D01*
X0056132Y0139777D01*
X0054746Y0137377D01*
X0054029Y0134701D01*
X0054029Y0131929D01*
X0054746Y0129252D01*
X0056000Y0127080D01*
X0056000Y0112815D01*
X0055632Y0112602D01*
X0055300Y0112270D01*
X0053012Y0110950D01*
X0051053Y0108990D01*
X0049667Y0106590D01*
X0048950Y0103913D01*
X0048950Y0101142D01*
X0049667Y0098465D01*
X0051053Y0096065D01*
X0053012Y0094105D01*
X0055412Y0092720D01*
X0055542Y0092685D01*
X0055412Y0092650D01*
X0053012Y0091265D01*
X0051053Y0089305D01*
X0049667Y0086905D01*
X0048950Y0084228D01*
X0048950Y0081457D01*
X0049667Y0078780D01*
X0051053Y0076380D01*
X0053012Y0074420D01*
X0055412Y0073035D01*
X0058089Y0072318D01*
X0067911Y0072318D01*
X0070587Y0073035D01*
X0071393Y0073500D01*
X0083079Y0073500D01*
X0083946Y0073000D01*
X0082044Y0071902D01*
X0079973Y0069831D01*
X0078508Y0067294D01*
X0077750Y0064465D01*
X0077750Y0061535D01*
X0078508Y0058706D01*
X0079973Y0056169D01*
X0082044Y0054098D01*
X0083500Y0053257D01*
X0083500Y0052743D01*
X0083079Y0052500D01*
X0071939Y0052500D01*
X0070587Y0053280D01*
X0067911Y0053997D01*
X0058089Y0053997D01*
X0055412Y0053280D01*
X0053012Y0051895D01*
X0051053Y0049935D01*
X0049667Y0047535D01*
X0048950Y0044858D01*
X0048950Y0042087D01*
X0049667Y0039410D01*
X0051053Y0037010D01*
X0053012Y0035050D01*
X0055412Y0033665D01*
X0058089Y0032947D01*
X0051064Y0036999D02*
X0045000Y0036999D01*
X0045000Y0040997D02*
X0049242Y0040997D01*
X0048987Y0044996D02*
X0045000Y0044996D01*
X0045000Y0048994D02*
X0050510Y0048994D01*
X0054914Y0052993D02*
X0045000Y0052993D01*
X0045000Y0056991D02*
X0057311Y0056991D01*
X0057373Y0056966D02*
X0058199Y0056744D01*
X0059047Y0056632D01*
X0063000Y0056632D01*
X0066953Y0056632D01*
X0067801Y0056744D01*
X0068627Y0056966D01*
X0069417Y0057293D01*
X0070158Y0057720D01*
X0070836Y0058241D01*
X0071441Y0058846D01*
X0071962Y0059525D01*
X0072390Y0060265D01*
X0072717Y0061056D01*
X0072938Y0061882D01*
X0073050Y0062730D01*
X0073050Y0063157D01*
X0063000Y0063157D01*
X0063000Y0056632D01*
X0063000Y0063157D01*
X0063000Y0063157D01*
X0052950Y0063157D01*
X0052950Y0062730D01*
X0053062Y0061882D01*
X0053283Y0061056D01*
X0053610Y0060265D01*
X0054038Y0059525D01*
X0054559Y0058846D01*
X0055164Y0058241D01*
X0055842Y0057720D01*
X0056583Y0057293D01*
X0057373Y0056966D01*
X0063000Y0056991D02*
X0063000Y0056991D01*
X0063000Y0060990D02*
X0063000Y0060990D01*
X0063000Y0063157D02*
X0063000Y0063158D01*
X0063000Y0069682D01*
X0059047Y0069682D01*
X0058199Y0069571D01*
X0057373Y0069349D01*
X0056583Y0069022D01*
X0055842Y0068594D01*
X0055164Y0068074D01*
X0054559Y0067469D01*
X0054038Y0066790D01*
X0053610Y0066050D01*
X0053283Y0065259D01*
X0053062Y0064433D01*
X0052950Y0063585D01*
X0052950Y0063158D01*
X0063000Y0063158D01*
X0063000Y0063158D01*
X0063000Y0069682D01*
X0066953Y0069682D01*
X0067801Y0069571D01*
X0068627Y0069349D01*
X0069417Y0069022D01*
X0070158Y0068594D01*
X0070836Y0068074D01*
X0071441Y0067469D01*
X0071962Y0066790D01*
X0072390Y0066050D01*
X0072717Y0065259D01*
X0072938Y0064433D01*
X0073050Y0063585D01*
X0073050Y0063158D01*
X0063000Y0063158D01*
X0063000Y0063157D01*
X0063000Y0064988D02*
X0063000Y0064988D01*
X0063000Y0068987D02*
X0063000Y0068987D01*
X0056521Y0068987D02*
X0045000Y0068987D01*
X0045000Y0072985D02*
X0055598Y0072985D01*
X0050704Y0076984D02*
X0045000Y0076984D01*
X0045000Y0080982D02*
X0049077Y0080982D01*
X0049152Y0084981D02*
X0045000Y0084981D01*
X0045000Y0088979D02*
X0050865Y0088979D01*
X0054966Y0092978D02*
X0045000Y0092978D01*
X0045000Y0096976D02*
X0050527Y0096976D01*
X0048995Y0100975D02*
X0045000Y0100975D01*
X0045000Y0104973D02*
X0049234Y0104973D01*
X0051042Y0108972D02*
X0045000Y0108972D01*
X0045000Y0112970D02*
X0056000Y0112970D01*
X0056000Y0116969D02*
X0045000Y0116969D01*
X0045000Y0120967D02*
X0056000Y0120967D01*
X0056000Y0124966D02*
X0045000Y0124966D01*
X0045000Y0128964D02*
X0054912Y0128964D01*
X0054029Y0132963D02*
X0045000Y0132963D01*
X0045000Y0136961D02*
X0054634Y0136961D01*
X0057314Y0140960D02*
X0045000Y0140960D01*
X0045000Y0144958D02*
X0066265Y0144958D01*
X0068079Y0146475D02*
X0068079Y0153000D01*
X0068079Y0153000D01*
X0068079Y0159525D01*
X0064126Y0159525D01*
X0063278Y0159413D01*
X0062452Y0159192D01*
X0061662Y0158865D01*
X0060921Y0158437D01*
X0060242Y0157916D01*
X0059637Y0157311D01*
X0059117Y0156633D01*
X0058689Y0155892D01*
X0058362Y0155102D01*
X0058140Y0154276D01*
X0058029Y0153428D01*
X0058029Y0153000D01*
X0058029Y0152572D01*
X0058140Y0151724D01*
X0058362Y0150898D01*
X0058689Y0150108D01*
X0059117Y0149367D01*
X0059637Y0148689D01*
X0060242Y0148084D01*
X0060921Y0147563D01*
X0061662Y0147135D01*
X0062452Y0146808D01*
X0063278Y0146587D01*
X0064126Y0146475D01*
X0068079Y0146475D01*
X0069735Y0144958D02*
X0083500Y0144958D01*
X0083562Y0140960D02*
X0078843Y0140960D01*
X0081523Y0136961D02*
X0085604Y0136961D01*
X0083894Y0132963D02*
X0082129Y0132963D01*
X0082750Y0128964D02*
X0081245Y0128964D01*
X0080000Y0124966D02*
X0083171Y0124966D01*
X0085175Y0120967D02*
X0080000Y0120967D01*
X0080000Y0116969D02*
X0092061Y0116969D01*
X0103939Y0116969D02*
X0163534Y0116969D01*
X0163293Y0120967D02*
X0167532Y0120967D01*
X0158000Y0120967D02*
X0158000Y0120967D01*
X0158000Y0120875D02*
X0158000Y0128000D01*
X0158000Y0128000D01*
X0158000Y0128000D01*
X0146750Y0128000D01*
X0146750Y0127533D01*
X0146872Y0126607D01*
X0147114Y0125705D01*
X0147471Y0124842D01*
X0147938Y0124033D01*
X0148507Y0123292D01*
X0149167Y0122632D01*
X0149908Y0122063D01*
X0150717Y0121596D01*
X0151580Y0121239D01*
X0152482Y0120997D01*
X0153408Y0120875D01*
X0158000Y0120875D01*
X0158000Y0124966D02*
X0158000Y0124966D01*
X0152707Y0120967D02*
X0110825Y0120967D01*
X0112829Y0124966D02*
X0147420Y0124966D01*
X0146815Y0128964D02*
X0113250Y0128964D01*
X0112106Y0132963D02*
X0148762Y0132963D01*
X0156786Y0136961D02*
X0135823Y0136961D01*
X0137438Y0140960D02*
X0157437Y0140960D01*
X0163000Y0140960D02*
X0163000Y0140960D01*
X0168528Y0144958D02*
X0137472Y0144958D01*
X0135905Y0148957D02*
X0141097Y0148957D01*
X0141334Y0148546D02*
X0141972Y0147714D01*
X0142714Y0146972D01*
X0143546Y0146334D01*
X0144454Y0145810D01*
X0145423Y0145408D01*
X0146436Y0145137D01*
X0147476Y0145000D01*
X0148000Y0145000D01*
X0148524Y0145000D01*
X0149564Y0145137D01*
X0150577Y0145408D01*
X0151546Y0145810D01*
X0152454Y0146334D01*
X0153286Y0146972D01*
X0154028Y0147714D01*
X0154666Y0148546D01*
X0155190Y0149454D01*
X0155592Y0150423D01*
X0155863Y0151436D01*
X0156000Y0152476D01*
X0156000Y0153000D01*
X0156000Y0153524D01*
X0155863Y0154564D01*
X0155592Y0155577D01*
X0155190Y0156546D01*
X0154666Y0157454D01*
X0154028Y0158286D01*
X0153286Y0159028D01*
X0152454Y0159666D01*
X0151546Y0160190D01*
X0150577Y0160592D01*
X0149564Y0160863D01*
X0148524Y0161000D01*
X0148000Y0161000D01*
X0148000Y0153000D01*
X0148000Y0153000D01*
X0156000Y0153000D01*
X0148000Y0153000D01*
X0148000Y0153000D01*
X0148000Y0153000D01*
X0140000Y0153000D01*
X0140000Y0153524D01*
X0140137Y0154564D01*
X0140408Y0155577D01*
X0140810Y0156546D01*
X0141334Y0157454D01*
X0141972Y0158286D01*
X0142714Y0159028D01*
X0143546Y0159666D01*
X0144454Y0160190D01*
X0145423Y0160592D01*
X0146436Y0160863D01*
X0147476Y0161000D01*
X0148000Y0161000D01*
X0148000Y0153000D01*
X0148000Y0145000D01*
X0148000Y0153000D01*
X0148000Y0153000D01*
X0140000Y0153000D01*
X0140000Y0152476D01*
X0140137Y0151436D01*
X0140408Y0150423D01*
X0140810Y0149454D01*
X0141334Y0148546D01*
X0140000Y0152955D02*
X0116000Y0152955D01*
X0114955Y0156954D02*
X0141045Y0156954D01*
X0148000Y0156954D02*
X0148000Y0156954D01*
X0148000Y0160952D02*
X0148000Y0160952D01*
X0147114Y0160952D02*
X0108886Y0160952D01*
X0108000Y0160952D02*
X0108000Y0160952D01*
X0107114Y0160952D02*
X0102953Y0160952D01*
X0108000Y0156954D02*
X0108000Y0156954D01*
X0083500Y0152955D02*
X0078129Y0152955D01*
X0076726Y0148957D02*
X0083500Y0148957D01*
X0068079Y0148957D02*
X0068079Y0148957D01*
X0068079Y0152955D02*
X0068079Y0152955D01*
X0068079Y0153000D02*
X0058029Y0153000D01*
X0068079Y0153000D01*
X0068079Y0153000D01*
X0068079Y0156954D02*
X0068079Y0156954D01*
X0071613Y0160952D02*
X0045000Y0160952D01*
X0045000Y0156954D02*
X0059363Y0156954D01*
X0058029Y0152955D02*
X0045000Y0152955D01*
X0045000Y0148957D02*
X0059432Y0148957D01*
X0057403Y0164951D02*
X0045000Y0164951D01*
X0045000Y0168949D02*
X0054658Y0168949D01*
X0054029Y0172948D02*
X0045000Y0172948D01*
X0045000Y0176946D02*
X0054861Y0176946D01*
X0057929Y0180945D02*
X0045000Y0180945D01*
X0045000Y0184943D02*
X0097626Y0184943D01*
X0094398Y0188942D02*
X0045000Y0188942D01*
X0045000Y0192940D02*
X0093500Y0192940D01*
X0093500Y0196939D02*
X0045000Y0196939D01*
X0045000Y0200937D02*
X0059397Y0200937D01*
X0057207Y0204936D02*
X0045000Y0204936D01*
X0045000Y0208934D02*
X0056700Y0208934D01*
X0057618Y0212933D02*
X0045000Y0212933D01*
X0045000Y0216932D02*
X0060636Y0216932D01*
X0059089Y0220930D02*
X0045000Y0220930D01*
X0045000Y0224929D02*
X0057124Y0224929D01*
X0056700Y0228927D02*
X0045000Y0228927D01*
X0045000Y0232926D02*
X0057796Y0232926D01*
X0060943Y0236924D02*
X0045000Y0236924D01*
X0045000Y0240923D02*
X0058856Y0240923D01*
X0057042Y0244921D02*
X0045000Y0244921D01*
X0045000Y0248920D02*
X0056700Y0248920D01*
X0057973Y0252918D02*
X0045000Y0252918D01*
X0045000Y0256917D02*
X0061390Y0256917D01*
X0055115Y0268912D02*
X0045000Y0268912D01*
X0045000Y0264914D02*
X0085765Y0264914D01*
X0082480Y0260915D02*
X0045000Y0260915D01*
X0045000Y0272911D02*
X0049825Y0272911D01*
X0048500Y0276909D02*
X0045000Y0276909D01*
X0045000Y0280908D02*
X0048500Y0280908D01*
X0048500Y0284906D02*
X0045000Y0284906D01*
X0045000Y0288905D02*
X0048500Y0288905D01*
X0048500Y0292903D02*
X0045000Y0292903D01*
X0045000Y0296902D02*
X0048500Y0296902D01*
X0048500Y0300900D02*
X0045000Y0300900D01*
X0045000Y0304899D02*
X0048500Y0304899D01*
X0048500Y0308897D02*
X0045000Y0308897D01*
X0045000Y0312896D02*
X0048500Y0312896D01*
X0048500Y0316894D02*
X0045000Y0316894D01*
X0045000Y0320893D02*
X0048916Y0320893D01*
X0051456Y0324891D02*
X0045000Y0324891D01*
X0045000Y0328890D02*
X0066157Y0328890D01*
X0069843Y0328890D02*
X0085455Y0328890D01*
X0089453Y0332888D02*
X0045000Y0332888D01*
X0045000Y0336887D02*
X0093452Y0336887D01*
X0097450Y0340885D02*
X0045000Y0340885D01*
X0045000Y0344884D02*
X0101449Y0344884D01*
X0123000Y0325500D02*
X0123000Y0258000D01*
X0103000Y0258000D01*
X0088000Y0245500D02*
X0120500Y0245500D01*
X0129481Y0248873D02*
X0128638Y0250910D01*
X0130630Y0252902D01*
X0132000Y0256210D01*
X0132000Y0327290D01*
X0131981Y0327336D01*
X0131981Y0328500D01*
X0243701Y0328500D01*
X0243701Y0328000D01*
X0243701Y0327287D01*
X0242736Y0326887D01*
X0240766Y0324918D01*
X0240260Y0323695D01*
X0239946Y0323381D01*
X0238500Y0319890D01*
X0238500Y0314481D01*
X0237336Y0314481D01*
X0237290Y0314500D01*
X0233710Y0314500D01*
X0233664Y0314481D01*
X0232127Y0314481D01*
X0229554Y0313415D01*
X0227585Y0311446D01*
X0226519Y0308873D01*
X0226519Y0307336D01*
X0226500Y0307290D01*
X0226500Y0303710D01*
X0226519Y0303664D01*
X0226519Y0302127D01*
X0226571Y0302000D01*
X0222953Y0302000D01*
X0222953Y0303211D01*
X0221887Y0305784D01*
X0219918Y0307753D01*
X0218953Y0308153D01*
X0218953Y0309595D01*
X0218837Y0310174D01*
X0218611Y0310720D01*
X0218283Y0311212D01*
X0217865Y0311629D01*
X0217374Y0311958D01*
X0216828Y0312184D01*
X0216248Y0312299D01*
X0213000Y0312299D01*
X0213000Y0308819D01*
X0213000Y0308819D01*
X0213000Y0312299D01*
X0209752Y0312299D01*
X0209172Y0312184D01*
X0208626Y0311958D01*
X0208135Y0311629D01*
X0207717Y0311212D01*
X0207389Y0310720D01*
X0207163Y0310174D01*
X0207047Y0309595D01*
X0207047Y0308153D01*
X0206082Y0307753D01*
X0204113Y0305784D01*
X0204000Y0305511D01*
X0204000Y0308972D01*
X0203852Y0309905D01*
X0203560Y0310803D01*
X0203132Y0311645D01*
X0202577Y0312409D01*
X0201909Y0313077D01*
X0201145Y0313632D01*
X0200303Y0314060D01*
X0199405Y0314352D01*
X0198472Y0314500D01*
X0198000Y0314500D01*
X0198000Y0305500D01*
X0203000Y0308000D01*
X0213000Y0308000D01*
X0213000Y0308897D02*
X0213000Y0308897D01*
X0218953Y0308897D02*
X0226529Y0308897D01*
X0226500Y0304899D02*
X0222254Y0304899D01*
X0229034Y0312896D02*
X0202089Y0312896D01*
X0198000Y0312896D02*
X0198000Y0312896D01*
X0198000Y0314500D02*
X0197528Y0314500D01*
X0196595Y0314352D01*
X0195697Y0314060D01*
X0194855Y0313632D01*
X0194091Y0313077D01*
X0193423Y0312409D01*
X0193000Y0311826D01*
X0192577Y0312409D01*
X0191909Y0313077D01*
X0191145Y0313632D01*
X0190303Y0314060D01*
X0189405Y0314352D01*
X0188472Y0314500D01*
X0188000Y0314500D01*
X0188000Y0305500D01*
X0188000Y0305500D01*
X0194000Y0305500D01*
X0198000Y0305500D01*
X0198000Y0305500D01*
X0198000Y0314500D01*
X0193911Y0312896D02*
X0192089Y0312896D01*
X0188000Y0312896D02*
X0188000Y0312896D01*
X0188000Y0314500D02*
X0187528Y0314500D01*
X0186595Y0314352D01*
X0185697Y0314060D01*
X0184855Y0313632D01*
X0184091Y0313077D01*
X0183423Y0312409D01*
X0182868Y0311645D01*
X0182440Y0310803D01*
X0182148Y0309905D01*
X0182000Y0308972D01*
X0182000Y0305500D01*
X0188000Y0305500D01*
X0188000Y0305500D01*
X0188000Y0305500D01*
X0188000Y0314500D01*
X0183911Y0312896D02*
X0132000Y0312896D01*
X0132000Y0316894D02*
X0238500Y0316894D01*
X0238916Y0320893D02*
X0132000Y0320893D01*
X0132000Y0324891D02*
X0240755Y0324891D01*
X0243701Y0328000D02*
X0247181Y0328000D01*
X0247181Y0328000D01*
X0243701Y0328000D01*
X0267500Y0328890D02*
X0269000Y0328890D01*
X0269000Y0332888D02*
X0267500Y0332888D01*
X0267500Y0336887D02*
X0269868Y0336887D01*
X0267088Y0340885D02*
X0273519Y0340885D01*
X0278000Y0333000D02*
X0358000Y0333000D01*
X0363000Y0328000D01*
X0372000Y0328890D02*
X0454701Y0328890D01*
X0454701Y0332888D02*
X0371354Y0332888D01*
X0366841Y0336887D02*
X0454701Y0336887D01*
X0454701Y0340885D02*
X0362481Y0340885D01*
X0371981Y0324891D02*
X0454701Y0324891D01*
X0454701Y0320893D02*
X0432463Y0320893D01*
X0436834Y0316894D02*
X0454701Y0316894D01*
X0454701Y0312896D02*
X0440832Y0312896D01*
X0444831Y0308897D02*
X0454701Y0308897D01*
X0454701Y0304899D02*
X0448829Y0304899D01*
X0451540Y0300900D02*
X0454701Y0300900D01*
X0454701Y0296902D02*
X0452000Y0296902D01*
X0452000Y0292903D02*
X0454701Y0292903D01*
X0454701Y0288905D02*
X0452000Y0288905D01*
X0452000Y0284906D02*
X0454701Y0284906D01*
X0454701Y0280908D02*
X0452000Y0280908D01*
X0452000Y0276909D02*
X0454701Y0276909D01*
X0454701Y0272911D02*
X0452000Y0272911D01*
X0452000Y0268912D02*
X0454701Y0268912D01*
X0454701Y0264914D02*
X0452000Y0264914D01*
X0452000Y0260915D02*
X0454701Y0260915D01*
X0454701Y0256917D02*
X0452000Y0256917D01*
X0452000Y0252918D02*
X0454701Y0252918D01*
X0454701Y0248920D02*
X0452000Y0248920D01*
X0452000Y0244921D02*
X0454701Y0244921D01*
X0454701Y0240923D02*
X0451881Y0240923D01*
X0449652Y0236924D02*
X0454701Y0236924D01*
X0448098Y0235370D02*
X0448098Y0235370D01*
X0445653Y0232926D02*
X0454701Y0232926D01*
X0454701Y0228927D02*
X0442129Y0228927D01*
X0441761Y0224929D02*
X0454701Y0224929D01*
X0454701Y0220930D02*
X0439733Y0220930D01*
X0437184Y0216932D02*
X0454701Y0216932D01*
X0454701Y0212933D02*
X0440909Y0212933D01*
X0442129Y0208934D02*
X0454701Y0208934D01*
X0454701Y0204936D02*
X0441679Y0204936D01*
X0439426Y0200937D02*
X0454701Y0200937D01*
X0454701Y0196939D02*
X0437717Y0196939D01*
X0441086Y0192940D02*
X0454701Y0192940D01*
X0454701Y0188942D02*
X0442129Y0188942D01*
X0441597Y0184943D02*
X0454701Y0184943D01*
X0454701Y0180945D02*
X0439118Y0180945D01*
X0437500Y0176946D02*
X0454701Y0176946D01*
X0454701Y0172948D02*
X0440640Y0172948D01*
X0442050Y0168949D02*
X0454701Y0168949D01*
X0454701Y0164951D02*
X0441689Y0164951D01*
X0439677Y0160952D02*
X0454701Y0160952D01*
X0454701Y0156954D02*
X0367500Y0156954D01*
X0367500Y0160952D02*
X0391186Y0160952D01*
X0388980Y0164951D02*
X0367500Y0164951D01*
X0367500Y0168949D02*
X0388500Y0168949D01*
X0388500Y0172948D02*
X0367500Y0172948D01*
X0367500Y0176946D02*
X0388500Y0176946D01*
X0388500Y0180945D02*
X0367500Y0180945D01*
X0367671Y0184943D02*
X0388500Y0184943D01*
X0388500Y0188942D02*
X0371670Y0188942D01*
X0368000Y0198000D02*
X0383000Y0198000D01*
X0393000Y0208000D01*
X0391164Y0216981D02*
X0389627Y0216981D01*
X0387054Y0215915D01*
X0387000Y0215862D01*
X0387000Y0231752D01*
X0388000Y0231752D01*
X0390588Y0231752D01*
X0394248Y0235412D01*
X0394248Y0238000D01*
X0394248Y0240588D01*
X0390588Y0244248D01*
X0388441Y0244248D01*
X0389324Y0244758D01*
X0391242Y0246676D01*
X0391833Y0247700D01*
X0394356Y0247700D01*
X0396976Y0248402D01*
X0398012Y0249000D01*
X0398500Y0249000D01*
X0398500Y0216100D01*
X0396373Y0216981D01*
X0394836Y0216981D01*
X0394790Y0217000D01*
X0391210Y0217000D01*
X0391164Y0216981D01*
X0389507Y0216932D02*
X0387000Y0216932D01*
X0387000Y0220930D02*
X0398500Y0220930D01*
X0398500Y0216932D02*
X0396493Y0216932D01*
X0398500Y0224929D02*
X0387000Y0224929D01*
X0387000Y0228927D02*
X0398500Y0228927D01*
X0398500Y0232926D02*
X0391762Y0232926D01*
X0388000Y0232926D02*
X0388000Y0232926D01*
X0388000Y0231752D02*
X0388000Y0238000D01*
X0394248Y0238000D01*
X0388000Y0238000D01*
X0388000Y0238000D01*
X0388000Y0238000D01*
X0388000Y0231752D01*
X0388000Y0236924D02*
X0388000Y0236924D01*
X0394248Y0236924D02*
X0398500Y0236924D01*
X0398500Y0240923D02*
X0393913Y0240923D01*
X0389487Y0244921D02*
X0398500Y0244921D01*
X0398500Y0248920D02*
X0397872Y0248920D01*
X0393000Y0258000D02*
X0403000Y0258000D01*
X0410500Y0250500D01*
X0413000Y0253000D02*
X0413000Y0278000D01*
X0433000Y0278000D01*
X0433000Y0288000D01*
X0443000Y0298000D02*
X0428000Y0313000D01*
X0360500Y0313000D01*
X0360500Y0280500D01*
X0340500Y0260500D01*
X0340500Y0283000D01*
X0338000Y0285500D01*
X0328000Y0288000D02*
X0328000Y0315500D01*
X0315500Y0313000D02*
X0315500Y0323000D01*
X0306500Y0324000D02*
X0306500Y0316728D01*
X0306222Y0316450D01*
X0304918Y0317753D01*
X0303953Y0318153D01*
X0303953Y0319595D01*
X0303837Y0320174D01*
X0303611Y0320720D01*
X0303283Y0321212D01*
X0302865Y0321629D01*
X0302374Y0321958D01*
X0301828Y0322184D01*
X0301248Y0322299D01*
X0298000Y0322299D01*
X0298000Y0318819D01*
X0298000Y0318819D01*
X0298000Y0322299D01*
X0294752Y0322299D01*
X0294172Y0322184D01*
X0293626Y0321958D01*
X0293135Y0321629D01*
X0292717Y0321212D01*
X0292389Y0320720D01*
X0292163Y0320174D01*
X0292047Y0319595D01*
X0292047Y0318153D01*
X0291082Y0317753D01*
X0289113Y0315784D01*
X0288581Y0314500D01*
X0287000Y0314500D01*
X0287000Y0324000D01*
X0306500Y0324000D01*
X0306500Y0320893D02*
X0303496Y0320893D01*
X0305777Y0316894D02*
X0306500Y0316894D01*
X0298000Y0320893D02*
X0298000Y0320893D01*
X0292504Y0320893D02*
X0287000Y0320893D01*
X0287000Y0316894D02*
X0290223Y0316894D01*
X0288000Y0305500D02*
X0298000Y0305500D01*
X0298000Y0278000D01*
X0298000Y0275500D01*
X0305500Y0268000D01*
X0318000Y0268000D01*
X0328000Y0258000D01*
X0338000Y0258000D01*
X0340500Y0260500D01*
X0333000Y0268000D02*
X0333000Y0273000D01*
X0328000Y0278000D01*
X0318000Y0278000D02*
X0328000Y0288000D01*
X0318000Y0293000D02*
X0318000Y0300500D01*
X0308000Y0305500D02*
X0315500Y0313000D01*
X0308000Y0305500D02*
X0308000Y0278000D01*
X0278000Y0278000D02*
X0278000Y0283000D01*
X0253000Y0283000D01*
X0238000Y0268000D01*
X0213000Y0268000D01*
X0213000Y0278000D02*
X0213000Y0283000D01*
X0193000Y0283000D01*
X0193000Y0293000D02*
X0178000Y0293000D01*
X0168000Y0293000D02*
X0163000Y0298000D01*
X0153000Y0298000D01*
X0145024Y0303600D02*
X0143000Y0303600D01*
X0143000Y0298000D01*
X0143000Y0298000D01*
X0143000Y0292400D01*
X0145024Y0292400D01*
X0149024Y0288400D01*
X0155672Y0288400D01*
X0155370Y0288098D01*
X0149872Y0282600D01*
X0149024Y0282600D01*
X0145024Y0278600D01*
X0143000Y0278600D01*
X0143000Y0273000D01*
X0143000Y0273000D01*
X0143000Y0267400D01*
X0145024Y0267400D01*
X0149024Y0263400D01*
X0156976Y0263400D01*
X0159000Y0265424D01*
X0159000Y0259416D01*
X0158472Y0259500D01*
X0158000Y0259500D01*
X0158000Y0250500D01*
X0158000Y0250500D01*
X0158000Y0250500D01*
X0152000Y0250500D01*
X0152000Y0253972D01*
X0152148Y0254905D01*
X0152440Y0255803D01*
X0152868Y0256645D01*
X0153423Y0257409D01*
X0154091Y0258077D01*
X0154855Y0258632D01*
X0155697Y0259060D01*
X0156595Y0259352D01*
X0157528Y0259500D01*
X0158000Y0259500D01*
X0158000Y0250500D01*
X0152000Y0250500D01*
X0152000Y0249500D01*
X0143710Y0249500D01*
X0140402Y0248130D01*
X0137870Y0245598D01*
X0135370Y0243098D01*
X0134000Y0239790D01*
X0134000Y0239004D01*
X0131857Y0236861D01*
X0130156Y0233914D01*
X0129275Y0230627D01*
X0129275Y0215373D01*
X0130045Y0212500D01*
X0113610Y0212500D01*
X0112358Y0211981D01*
X0112127Y0211981D01*
X0111706Y0211807D01*
X0111054Y0213381D01*
X0108381Y0216054D01*
X0104890Y0217500D01*
X0094376Y0217500D01*
X0093237Y0218157D01*
X0094623Y0218958D01*
X0094666Y0219000D01*
X0104790Y0219000D01*
X0108098Y0220370D01*
X0110630Y0222902D01*
X0112000Y0226210D01*
X0112000Y0236500D01*
X0122290Y0236500D01*
X0122336Y0236519D01*
X0123873Y0236519D01*
X0126446Y0237585D01*
X0128415Y0239554D01*
X0129481Y0242127D01*
X0129481Y0243664D01*
X0129500Y0243710D01*
X0129500Y0247290D01*
X0129481Y0247336D01*
X0129481Y0248873D01*
X0129462Y0248920D02*
X0142309Y0248920D01*
X0137193Y0244921D02*
X0129500Y0244921D01*
X0128982Y0240923D02*
X0134469Y0240923D01*
X0131920Y0236924D02*
X0124852Y0236924D01*
X0129891Y0232926D02*
X0112000Y0232926D01*
X0112000Y0228927D02*
X0129275Y0228927D01*
X0129275Y0224929D02*
X0111469Y0224929D01*
X0108658Y0220930D02*
X0129275Y0220930D01*
X0129275Y0216932D02*
X0106262Y0216932D01*
X0111239Y0212933D02*
X0129929Y0212933D01*
X0143000Y0223000D02*
X0143000Y0238000D01*
X0145500Y0240500D01*
X0190500Y0240500D01*
X0198000Y0248000D01*
X0180500Y0258000D02*
X0178000Y0260500D01*
X0180500Y0258000D02*
X0218000Y0258000D01*
X0220500Y0260500D01*
X0225500Y0253000D02*
X0223000Y0250500D01*
X0223000Y0223000D01*
X0238000Y0223000D02*
X0238000Y0238000D01*
X0233000Y0243000D01*
X0245952Y0242320D02*
X0261410Y0226862D01*
X0262374Y0225751D01*
X0262669Y0225603D01*
X0262902Y0225370D01*
X0263466Y0225137D01*
X0263247Y0224918D01*
X0262847Y0223953D01*
X0261405Y0223953D01*
X0260826Y0223837D01*
X0260280Y0223611D01*
X0259788Y0223283D01*
X0259371Y0222865D01*
X0259042Y0222374D01*
X0258816Y0221828D01*
X0258701Y0221248D01*
X0258701Y0218000D01*
X0258701Y0214752D01*
X0258816Y0214172D01*
X0259042Y0213626D01*
X0259371Y0213135D01*
X0259788Y0212717D01*
X0260280Y0212389D01*
X0260826Y0212163D01*
X0261405Y0212047D01*
X0262847Y0212047D01*
X0263247Y0211082D01*
X0265216Y0209113D01*
X0266043Y0208771D01*
X0265370Y0208098D01*
X0260168Y0202895D01*
X0259871Y0202747D01*
X0259224Y0202000D01*
X0242813Y0202000D01*
X0242330Y0202200D01*
X0238670Y0202200D01*
X0238526Y0202141D01*
X0238130Y0203098D01*
X0237070Y0204158D01*
X0237098Y0204150D01*
X0240502Y0204150D01*
X0243789Y0205031D01*
X0246736Y0206732D01*
X0249143Y0209139D01*
X0250844Y0212086D01*
X0251725Y0215373D01*
X0251725Y0230627D01*
X0250844Y0233914D01*
X0249143Y0236861D01*
X0247000Y0239004D01*
X0247000Y0239790D01*
X0245952Y0242320D01*
X0246531Y0240923D02*
X0247349Y0240923D01*
X0249080Y0236924D02*
X0251348Y0236924D01*
X0251109Y0232926D02*
X0255347Y0232926D01*
X0251725Y0228927D02*
X0259345Y0228927D01*
X0263257Y0224929D02*
X0251725Y0224929D01*
X0251725Y0220930D02*
X0258701Y0220930D01*
X0258701Y0218000D02*
X0262181Y0218000D01*
X0262181Y0218000D01*
X0258701Y0218000D01*
X0258701Y0216932D02*
X0251725Y0216932D01*
X0251071Y0212933D02*
X0259572Y0212933D01*
X0265647Y0208934D02*
X0248938Y0208934D01*
X0243435Y0204936D02*
X0262208Y0204936D01*
X0265500Y0195500D02*
X0273000Y0203000D01*
X0283000Y0203000D01*
X0288000Y0193000D02*
X0288000Y0188000D01*
X0278000Y0188000D01*
X0265500Y0195500D02*
X0268000Y0160500D01*
X0230500Y0160500D01*
X0228000Y0158000D01*
X0228000Y0148000D01*
X0228000Y0158000D02*
X0220500Y0173000D01*
X0235500Y0183000D02*
X0230500Y0188000D01*
X0230500Y0198000D01*
X0225500Y0203000D01*
X0208000Y0203000D01*
X0208000Y0220500D01*
X0190500Y0223000D02*
X0173000Y0223000D01*
X0168000Y0248000D02*
X0168000Y0273000D01*
X0163000Y0283000D02*
X0153000Y0273000D01*
X0143000Y0273000D02*
X0143000Y0273000D01*
X0143000Y0273000D01*
X0137400Y0273000D01*
X0137400Y0275320D01*
X0140680Y0278600D01*
X0143000Y0278600D01*
X0143000Y0273000D01*
X0143000Y0267400D01*
X0140680Y0267400D01*
X0137400Y0270680D01*
X0137400Y0273000D01*
X0143000Y0273000D01*
X0143000Y0272911D02*
X0143000Y0272911D01*
X0143000Y0276909D02*
X0143000Y0276909D01*
X0138990Y0276909D02*
X0132000Y0276909D01*
X0132000Y0272911D02*
X0137400Y0272911D01*
X0139168Y0268912D02*
X0132000Y0268912D01*
X0132000Y0264914D02*
X0147510Y0264914D01*
X0143000Y0268912D02*
X0143000Y0268912D01*
X0132000Y0260915D02*
X0159000Y0260915D01*
X0159000Y0264914D02*
X0158490Y0264914D01*
X0158000Y0256917D02*
X0158000Y0256917D01*
X0158000Y0252918D02*
X0158000Y0252918D01*
X0152000Y0252918D02*
X0130637Y0252918D01*
X0132000Y0256917D02*
X0153066Y0256917D01*
X0147331Y0280908D02*
X0132000Y0280908D01*
X0132000Y0284906D02*
X0152178Y0284906D01*
X0148519Y0288905D02*
X0132000Y0288905D01*
X0132000Y0292903D02*
X0140177Y0292903D01*
X0140680Y0292400D02*
X0143000Y0292400D01*
X0143000Y0298000D01*
X0143000Y0298000D01*
X0143000Y0298000D01*
X0137400Y0298000D01*
X0137400Y0300320D01*
X0140680Y0303600D01*
X0143000Y0303600D01*
X0143000Y0298000D01*
X0137400Y0298000D01*
X0137400Y0295680D01*
X0140680Y0292400D01*
X0143000Y0292903D02*
X0143000Y0292903D01*
X0143000Y0296902D02*
X0143000Y0296902D01*
X0137400Y0296902D02*
X0132000Y0296902D01*
X0132000Y0300900D02*
X0137981Y0300900D01*
X0143000Y0300900D02*
X0143000Y0300900D01*
X0145024Y0303600D02*
X0149024Y0307600D01*
X0156976Y0307600D01*
X0157576Y0307000D01*
X0164790Y0307000D01*
X0168098Y0305630D01*
X0170630Y0303098D01*
X0170775Y0302953D01*
X0180692Y0302953D01*
X0182000Y0302411D01*
X0182000Y0305500D01*
X0188000Y0305500D01*
X0198000Y0305500D01*
X0198000Y0305500D01*
X0198000Y0308897D02*
X0198000Y0308897D01*
X0204000Y0308897D02*
X0207047Y0308897D01*
X0188000Y0308897D02*
X0188000Y0308897D01*
X0182000Y0308897D02*
X0132000Y0308897D01*
X0132000Y0304899D02*
X0146322Y0304899D01*
X0168829Y0304899D02*
X0182000Y0304899D01*
X0193000Y0293000D02*
X0213000Y0293000D01*
X0213000Y0298000D01*
X0213000Y0293000D02*
X0238000Y0293000D01*
X0238000Y0303000D01*
X0235500Y0305500D01*
X0238000Y0300500D02*
X0238000Y0293000D01*
X0258000Y0273000D02*
X0258000Y0263000D01*
X0248000Y0263000D02*
X0248000Y0253000D01*
X0268000Y0233000D01*
X0278000Y0228000D01*
X0293000Y0228000D01*
X0298000Y0223000D01*
X0308000Y0223000D02*
X0308000Y0238000D01*
X0318000Y0238000D01*
X0328000Y0238000D02*
X0328000Y0248000D01*
X0338000Y0248000D02*
X0338000Y0238000D01*
X0348000Y0238000D01*
X0348000Y0228000D01*
X0338000Y0225500D02*
X0325500Y0225500D01*
X0338000Y0213000D02*
X0378000Y0213000D01*
X0378000Y0248000D01*
X0383000Y0253000D01*
X0373000Y0255500D02*
X0363000Y0245500D01*
X0363000Y0243000D01*
X0361164Y0234019D02*
X0361210Y0234000D01*
X0364790Y0234000D01*
X0364836Y0234019D01*
X0366373Y0234019D01*
X0368946Y0235085D01*
X0369000Y0235138D01*
X0369000Y0222000D01*
X0363527Y0222000D01*
X0363600Y0222459D01*
X0363600Y0225500D01*
X0363600Y0228541D01*
X0363462Y0229411D01*
X0363190Y0230250D01*
X0362790Y0231035D01*
X0362271Y0231748D01*
X0361648Y0232371D01*
X0360935Y0232890D01*
X0360150Y0233290D01*
X0359311Y0233562D01*
X0358441Y0233700D01*
X0358000Y0233700D01*
X0358000Y0225500D01*
X0358000Y0225500D01*
X0363600Y0225500D01*
X0358000Y0225500D01*
X0358000Y0225500D01*
X0358000Y0233700D01*
X0357559Y0233700D01*
X0357000Y0233611D01*
X0357000Y0235138D01*
X0357054Y0235085D01*
X0359627Y0234019D01*
X0361164Y0234019D01*
X0360864Y0232926D02*
X0369000Y0232926D01*
X0369000Y0228927D02*
X0363539Y0228927D01*
X0363600Y0224929D02*
X0369000Y0224929D01*
X0358000Y0228927D02*
X0358000Y0228927D01*
X0358000Y0232926D02*
X0358000Y0232926D01*
X0348000Y0245500D02*
X0373000Y0270500D01*
X0373000Y0303000D01*
X0400500Y0303000D01*
X0400500Y0268000D01*
X0373000Y0258000D02*
X0373000Y0255500D01*
X0425500Y0245500D02*
X0433000Y0258000D01*
X0433000Y0263000D02*
X0433000Y0268000D01*
X0443000Y0243000D02*
X0443000Y0298000D01*
X0454701Y0344884D02*
X0264551Y0344884D01*
X0278000Y0333000D02*
X0278000Y0293000D01*
X0269000Y0304899D02*
X0267500Y0304899D01*
X0267500Y0308897D02*
X0269000Y0308897D01*
X0269000Y0312896D02*
X0267500Y0312896D01*
X0267500Y0316894D02*
X0269000Y0316894D01*
X0269000Y0320893D02*
X0267500Y0320893D01*
X0267500Y0324891D02*
X0269000Y0324891D01*
X0268000Y0273000D02*
X0268000Y0263000D01*
X0270500Y0245500D02*
X0278000Y0248000D01*
X0293000Y0238000D02*
X0293000Y0235500D01*
X0293000Y0238000D02*
X0298000Y0238000D01*
X0298000Y0248000D01*
X0308000Y0248000D02*
X0308000Y0238000D01*
X0283000Y0218000D02*
X0273000Y0218000D01*
X0298000Y0213000D02*
X0308000Y0213000D01*
X0318000Y0188000D02*
X0333000Y0193000D01*
X0343000Y0193000D02*
X0343000Y0183000D01*
X0333000Y0173000D01*
X0328000Y0173000D01*
X0343000Y0158000D02*
X0348000Y0163000D01*
X0343000Y0158000D02*
X0318000Y0158000D01*
X0288000Y0143000D02*
X0288000Y0133000D01*
X0273000Y0140500D02*
X0273000Y0143000D01*
X0283000Y0143000D01*
X0278000Y0153000D02*
X0273000Y0153000D01*
X0263000Y0148000D01*
X0278000Y0153000D02*
X0278000Y0175500D01*
X0288000Y0183000D02*
X0288000Y0188000D01*
X0265500Y0195500D02*
X0263000Y0193000D01*
X0238000Y0193000D01*
X0240500Y0183000D02*
X0235500Y0183000D01*
X0243000Y0173000D02*
X0255500Y0173000D01*
X0258000Y0170500D01*
X0253000Y0128000D02*
X0228000Y0128000D01*
X0253000Y0128000D02*
X0255500Y0125500D01*
X0273000Y0118000D02*
X0228000Y0083000D01*
X0212718Y0092978D02*
X0172016Y0092978D01*
X0170283Y0089404D02*
X0169420Y0089761D01*
X0168518Y0090003D01*
X0167592Y0090125D01*
X0163000Y0090125D01*
X0163000Y0083000D01*
X0163000Y0083000D01*
X0174250Y0083000D01*
X0174250Y0083467D01*
X0174128Y0084393D01*
X0173886Y0085295D01*
X0173529Y0086158D01*
X0173062Y0086967D01*
X0172493Y0087708D01*
X0171833Y0088368D01*
X0171092Y0088937D01*
X0170283Y0089404D01*
X0171019Y0088979D02*
X0210247Y0088979D01*
X0205359Y0084981D02*
X0173971Y0084981D01*
X0174250Y0083000D02*
X0163000Y0083000D01*
X0163000Y0083000D01*
X0163000Y0075875D01*
X0167592Y0075875D01*
X0168518Y0075997D01*
X0169420Y0076239D01*
X0170283Y0076596D01*
X0171092Y0077063D01*
X0171833Y0077632D01*
X0172493Y0078292D01*
X0173062Y0079033D01*
X0173529Y0079842D01*
X0173886Y0080705D01*
X0174128Y0081607D01*
X0174250Y0082533D01*
X0174250Y0083000D01*
X0173961Y0080982D02*
X0200472Y0080982D01*
X0195585Y0076984D02*
X0170954Y0076984D01*
X0163000Y0076984D02*
X0163000Y0076984D01*
X0163000Y0075875D02*
X0163000Y0083000D01*
X0163000Y0083000D01*
X0163000Y0083000D01*
X0151750Y0083000D01*
X0151750Y0083467D01*
X0151872Y0084393D01*
X0152114Y0085295D01*
X0152471Y0086158D01*
X0152938Y0086967D01*
X0153507Y0087708D01*
X0154167Y0088368D01*
X0154908Y0088937D01*
X0155717Y0089404D01*
X0156580Y0089761D01*
X0157482Y0090003D01*
X0158408Y0090125D01*
X0163000Y0090125D01*
X0163000Y0083000D01*
X0151750Y0083000D01*
X0151750Y0082533D01*
X0151872Y0081607D01*
X0152114Y0080705D01*
X0152471Y0079842D01*
X0152938Y0079033D01*
X0153507Y0078292D01*
X0154167Y0077632D01*
X0154908Y0077063D01*
X0155717Y0076596D01*
X0156580Y0076239D01*
X0157482Y0075997D01*
X0158408Y0075875D01*
X0163000Y0075875D01*
X0163000Y0080982D02*
X0163000Y0080982D01*
X0163000Y0084981D02*
X0163000Y0084981D01*
X0163000Y0088979D02*
X0163000Y0088979D01*
X0154981Y0088979D02*
X0140000Y0088979D01*
X0140000Y0084981D02*
X0152029Y0084981D01*
X0152039Y0080982D02*
X0140000Y0080982D01*
X0140000Y0076984D02*
X0155046Y0076984D01*
X0156580Y0069761D02*
X0155717Y0069404D01*
X0154908Y0068937D01*
X0154167Y0068368D01*
X0153507Y0067708D01*
X0152938Y0066967D01*
X0152471Y0066158D01*
X0152114Y0065295D01*
X0151872Y0064393D01*
X0151750Y0063467D01*
X0151750Y0063000D01*
X0163000Y0063000D01*
X0163000Y0063000D01*
X0163000Y0070125D01*
X0167592Y0070125D01*
X0168518Y0070003D01*
X0169420Y0069761D01*
X0170283Y0069404D01*
X0171092Y0068937D01*
X0171833Y0068368D01*
X0172493Y0067708D01*
X0173062Y0066967D01*
X0173529Y0066158D01*
X0173886Y0065295D01*
X0174128Y0064393D01*
X0174250Y0063467D01*
X0174250Y0063000D01*
X0163000Y0063000D01*
X0163000Y0063000D01*
X0163000Y0055875D01*
X0167592Y0055875D01*
X0168518Y0055997D01*
X0169420Y0056239D01*
X0170283Y0056596D01*
X0171092Y0057063D01*
X0171833Y0057632D01*
X0172493Y0058292D01*
X0173062Y0059033D01*
X0173529Y0059842D01*
X0173886Y0060705D01*
X0174128Y0061607D01*
X0174250Y0062533D01*
X0174250Y0063000D01*
X0163000Y0063000D01*
X0163000Y0063000D01*
X0163000Y0063000D01*
X0163000Y0070125D01*
X0158408Y0070125D01*
X0157482Y0070003D01*
X0156580Y0069761D01*
X0154994Y0068987D02*
X0140000Y0068987D01*
X0140000Y0072985D02*
X0190698Y0072985D01*
X0185811Y0068987D02*
X0171006Y0068987D01*
X0173969Y0064988D02*
X0180924Y0064988D01*
X0176037Y0060990D02*
X0173963Y0060990D01*
X0171150Y0056991D02*
X0170967Y0056991D01*
X0163000Y0056991D02*
X0163000Y0056991D01*
X0163000Y0055875D02*
X0158408Y0055875D01*
X0157482Y0055997D01*
X0156580Y0056239D01*
X0155717Y0056596D01*
X0154908Y0057063D01*
X0154167Y0057632D01*
X0153507Y0058292D01*
X0152938Y0059033D01*
X0152471Y0059842D01*
X0152114Y0060705D01*
X0151872Y0061607D01*
X0151750Y0062533D01*
X0151750Y0063000D01*
X0163000Y0063000D01*
X0163000Y0055875D01*
X0163000Y0060990D02*
X0163000Y0060990D01*
X0163000Y0064988D02*
X0163000Y0064988D01*
X0163000Y0068987D02*
X0163000Y0068987D01*
X0152031Y0064988D02*
X0142982Y0064988D01*
X0146981Y0060990D02*
X0152037Y0060990D01*
X0150979Y0056991D02*
X0155033Y0056991D01*
X0129034Y0044996D02*
X0108108Y0044996D01*
X0108106Y0040997D02*
X0133032Y0040997D01*
X0137031Y0036999D02*
X0106506Y0036999D01*
X0102054Y0033000D02*
X0141320Y0033000D01*
X0125035Y0048994D02*
X0106510Y0048994D01*
X0102500Y0052993D02*
X0121037Y0052993D01*
X0117613Y0056991D02*
X0106502Y0056991D01*
X0108104Y0060990D02*
X0116115Y0060990D01*
X0116000Y0064988D02*
X0108110Y0064988D01*
X0106515Y0068987D02*
X0116000Y0068987D01*
X0116000Y0072985D02*
X0102080Y0072985D01*
X0083920Y0072985D02*
X0070402Y0072985D01*
X0069479Y0068987D02*
X0079485Y0068987D01*
X0077890Y0064988D02*
X0072790Y0064988D01*
X0072690Y0060990D02*
X0077896Y0060990D01*
X0079498Y0056991D02*
X0068689Y0056991D01*
X0071086Y0052993D02*
X0083500Y0052993D01*
X0053310Y0060990D02*
X0045000Y0060990D01*
X0045000Y0064988D02*
X0053210Y0064988D01*
X0068107Y0033000D02*
X0083945Y0033000D01*
X0179728Y0033000D02*
X0454701Y0033000D01*
X0454701Y0036999D02*
X0414040Y0036999D01*
X0412991Y0035950D02*
X0420050Y0043009D01*
X0420050Y0048000D01*
X0408000Y0048000D01*
X0408000Y0048000D01*
X0408000Y0035950D01*
X0412991Y0035950D01*
X0408000Y0035950D02*
X0408000Y0048000D01*
X0408000Y0048000D01*
X0408000Y0048000D01*
X0395950Y0048000D01*
X0395950Y0043009D01*
X0403009Y0035950D01*
X0408000Y0035950D01*
X0408000Y0036999D02*
X0408000Y0036999D01*
X0408000Y0040997D02*
X0408000Y0040997D01*
X0408000Y0044996D02*
X0408000Y0044996D01*
X0418038Y0040997D02*
X0454701Y0040997D01*
X0454701Y0044996D02*
X0420050Y0044996D01*
X0420050Y0048994D02*
X0454701Y0048994D01*
X0454701Y0052993D02*
X0420049Y0052993D01*
X0416050Y0056991D02*
X0454701Y0056991D01*
X0454701Y0060990D02*
X0431217Y0060990D01*
X0433994Y0064988D02*
X0454701Y0064988D01*
X0454701Y0068987D02*
X0434500Y0068987D01*
X0434500Y0072985D02*
X0454701Y0072985D01*
X0454701Y0076984D02*
X0434500Y0076984D01*
X0434500Y0080982D02*
X0454701Y0080982D01*
X0454701Y0084981D02*
X0434500Y0084981D01*
X0434500Y0088979D02*
X0454701Y0088979D01*
X0454701Y0092978D02*
X0434500Y0092978D01*
X0434500Y0096976D02*
X0454701Y0096976D01*
X0454701Y0100975D02*
X0434500Y0100975D01*
X0434424Y0104973D02*
X0454701Y0104973D01*
X0454701Y0108972D02*
X0432256Y0108972D01*
X0425500Y0103000D02*
X0425500Y0068000D01*
X0223000Y0068000D01*
X0198000Y0043000D01*
X0205860Y0036999D02*
X0221960Y0036999D01*
X0223009Y0035950D02*
X0228000Y0035950D01*
X0232991Y0035950D01*
X0240050Y0043009D01*
X0240050Y0048000D01*
X0228000Y0048000D01*
X0228000Y0048000D01*
X0228000Y0035950D01*
X0228000Y0048000D01*
X0228000Y0048000D01*
X0228000Y0048000D01*
X0215950Y0048000D01*
X0215950Y0043009D01*
X0223009Y0035950D01*
X0228000Y0036999D02*
X0228000Y0036999D01*
X0228000Y0040997D02*
X0228000Y0040997D01*
X0228000Y0044996D02*
X0228000Y0044996D01*
X0238038Y0040997D02*
X0307962Y0040997D01*
X0305950Y0043009D02*
X0313009Y0035950D01*
X0318000Y0035950D01*
X0322991Y0035950D01*
X0330050Y0043009D01*
X0330050Y0048000D01*
X0318000Y0048000D01*
X0318000Y0048000D01*
X0318000Y0035950D01*
X0318000Y0048000D01*
X0318000Y0048000D01*
X0318000Y0048000D01*
X0305950Y0048000D01*
X0305950Y0043009D01*
X0305950Y0044996D02*
X0240050Y0044996D01*
X0240050Y0048994D02*
X0305950Y0048994D01*
X0305951Y0052993D02*
X0240049Y0052993D01*
X0236050Y0056991D02*
X0309950Y0056991D01*
X0326050Y0056991D02*
X0399950Y0056991D01*
X0395951Y0052993D02*
X0330049Y0052993D01*
X0330050Y0048994D02*
X0395950Y0048994D01*
X0395950Y0044996D02*
X0330050Y0044996D01*
X0328038Y0040997D02*
X0397962Y0040997D01*
X0401960Y0036999D02*
X0324040Y0036999D01*
X0318000Y0036999D02*
X0318000Y0036999D01*
X0318000Y0040997D02*
X0318000Y0040997D01*
X0318000Y0044996D02*
X0318000Y0044996D01*
X0311960Y0036999D02*
X0234040Y0036999D01*
X0217962Y0040997D02*
X0208725Y0040997D01*
X0212723Y0044996D02*
X0215950Y0044996D01*
X0190140Y0036999D02*
X0184615Y0036999D01*
X0273000Y0088000D02*
X0273000Y0093000D01*
X0199100Y0093500D02*
X0199100Y0093500D01*
X0199100Y0093500D01*
X0189971Y0094611D02*
X0189971Y0094611D01*
X0189971Y0094611D01*
X0188904Y0095679D02*
X0188904Y0095679D01*
X0187606Y0096976D02*
X0176493Y0096976D01*
X0178100Y0100975D02*
X0185739Y0100975D01*
X0185739Y0100415D02*
X0185739Y0100415D01*
X0186850Y0097732D02*
X0186850Y0097732D01*
X0186850Y0097732D01*
X0185739Y0104973D02*
X0178408Y0104973D01*
X0182407Y0108972D02*
X0185869Y0108972D01*
X0153894Y0112970D02*
X0119731Y0112970D01*
X0122602Y0110368D02*
X0122602Y0110368D01*
X0123999Y0108972D02*
X0149477Y0108972D01*
X0147886Y0104973D02*
X0127997Y0104973D01*
X0131996Y0100975D02*
X0147900Y0100975D01*
X0149507Y0096976D02*
X0135994Y0096976D01*
X0138983Y0092978D02*
X0153984Y0092978D01*
X0154903Y0148957D02*
X0170522Y0148957D01*
X0174520Y0152955D02*
X0156000Y0152955D01*
X0154955Y0156954D02*
X0176636Y0156954D01*
X0178982Y0160952D02*
X0148886Y0160952D01*
X0156921Y0164951D02*
X0179079Y0164951D01*
X0176000Y0168949D02*
X0160000Y0168949D01*
X0160000Y0172948D02*
X0176000Y0172948D01*
X0176000Y0176946D02*
X0160000Y0176946D01*
X0157264Y0180945D02*
X0178500Y0180945D01*
X0148000Y0185500D02*
X0148000Y0173000D01*
X0133000Y0173000D01*
X0123000Y0173000D02*
X0108000Y0173000D01*
X0093000Y0173000D01*
X0087800Y0180945D02*
X0078490Y0180945D01*
X0082489Y0176946D02*
X0083567Y0176946D01*
X0148000Y0152955D02*
X0148000Y0152955D01*
X0148000Y0148957D02*
X0148000Y0148957D01*
X0103000Y0228000D02*
X0068000Y0228000D01*
X0103000Y0228000D02*
X0103000Y0238000D01*
X0163000Y0283000D02*
X0168000Y0283000D01*
X0238000Y0268000D02*
X0238000Y0263000D01*
X0238000Y0253000D01*
X0358000Y0188000D02*
X0368000Y0198000D01*
X0407500Y0180945D02*
X0411620Y0180945D01*
X0407500Y0176946D02*
X0418500Y0176946D01*
X0415360Y0172948D02*
X0407500Y0172948D01*
X0407500Y0168949D02*
X0413950Y0168949D01*
X0414311Y0164951D02*
X0407020Y0164951D01*
X0404814Y0160952D02*
X0416323Y0160952D01*
X0418401Y0136961D02*
X0367474Y0136961D01*
X0363475Y0140960D02*
X0454701Y0140960D01*
X0454701Y0144958D02*
X0363393Y0144958D01*
X0363381Y0144946D02*
X0363381Y0144946D01*
X0366608Y0148957D02*
X0454701Y0148957D01*
X0454701Y0152955D02*
X0367500Y0152955D01*
X0372119Y0132963D02*
X0415005Y0132963D01*
X0437599Y0136961D02*
X0454701Y0136961D01*
X0454701Y0132963D02*
X0440995Y0132963D01*
X0442050Y0128964D02*
X0454701Y0128964D01*
X0454701Y0124966D02*
X0441524Y0124966D01*
X0439062Y0120967D02*
X0454701Y0120967D01*
X0454701Y0116969D02*
X0430404Y0116969D01*
X0428258Y0112970D02*
X0454701Y0112970D01*
X0425500Y0103000D02*
X0423000Y0105500D01*
X0383000Y0105500D01*
X0378000Y0110500D01*
X0370500Y0110500D01*
X0428000Y0228000D02*
X0443000Y0243000D01*
X0454701Y0348882D02*
X0045000Y0348882D01*
D31*
X0058000Y0318000D02*
X0058000Y0278000D01*
X0088000Y0278000D01*
X0103000Y0298000D02*
X0113000Y0288000D01*
X0103000Y0298000D02*
X0068000Y0298000D01*
X0058000Y0318000D02*
X0088000Y0318000D01*
X0108000Y0338000D01*
X0258000Y0338000D01*
X0258000Y0293000D01*
X0248000Y0293000D02*
X0248000Y0318000D01*
X0093000Y0258000D02*
X0088000Y0253000D01*
X0088000Y0248000D01*
X0068000Y0248000D01*
X0068000Y0208000D02*
X0103000Y0208000D01*
X0103000Y0193000D01*
X0220500Y0193000D01*
X0220500Y0183000D01*
X0198000Y0163000D02*
X0188000Y0173000D01*
X0188000Y0185500D01*
X0198000Y0163000D02*
X0198000Y0138000D01*
X0203000Y0138000D01*
X0188000Y0153000D02*
X0178000Y0143000D01*
X0178000Y0133000D01*
X0178000Y0123000D02*
X0178000Y0118000D01*
X0163000Y0103000D01*
X0128000Y0083000D02*
X0108000Y0103000D01*
X0093000Y0103000D01*
X0068000Y0103000D01*
X0068000Y0108000D02*
X0068000Y0133000D01*
X0093000Y0143000D02*
X0128000Y0143000D01*
X0098000Y0138000D02*
X0098000Y0128000D01*
X0098000Y0138000D02*
X0093000Y0143000D01*
X0093000Y0163000D01*
X0083000Y0163000D01*
X0073000Y0173000D01*
X0068000Y0173000D01*
X0115500Y0203000D02*
X0153000Y0203000D01*
X0158000Y0208000D01*
X0158000Y0223000D01*
X0283000Y0203000D02*
X0308000Y0203000D01*
X0343000Y0203000D01*
X0353000Y0193000D01*
X0358000Y0188000D01*
X0358000Y0153000D01*
X0348000Y0143000D01*
X0363000Y0128000D01*
X0363000Y0123000D01*
X0383000Y0123000D01*
X0388000Y0118000D01*
X0393000Y0123000D01*
X0423000Y0123000D01*
X0428000Y0128000D01*
X0428000Y0168000D02*
X0428000Y0188000D01*
X0418000Y0188000D01*
X0408000Y0198000D01*
X0398000Y0188000D01*
X0398000Y0168000D01*
X0408000Y0198000D02*
X0408000Y0248000D01*
X0410500Y0250500D01*
X0413000Y0253000D01*
X0338000Y0213000D02*
X0318000Y0213000D01*
X0308000Y0213000D02*
X0308000Y0203000D01*
X0308000Y0193000D02*
X0303000Y0188000D01*
X0303000Y0183000D01*
X0298000Y0173000D01*
X0298000Y0168000D01*
X0288000Y0168000D02*
X0288000Y0183000D01*
X0288000Y0168000D02*
X0288000Y0143000D01*
X0283000Y0143000D01*
X0298000Y0143000D02*
X0298000Y0123000D01*
X0288000Y0123000D01*
X0308000Y0143000D02*
X0318000Y0143000D01*
X0318000Y0148000D01*
X0318000Y0158000D02*
X0318000Y0188000D01*
X0318000Y0158000D02*
X0298000Y0153000D01*
X0318000Y0223000D02*
X0320500Y0225500D01*
X0325500Y0225500D01*
X0128000Y0083000D02*
X0128000Y0063000D01*
X0093000Y0063000D02*
X0093000Y0043000D01*
X0063000Y0043000D01*
X0063000Y0083000D02*
X0093000Y0083000D01*
X0113000Y0083000D01*
X0068000Y0108000D02*
X0063000Y0103000D01*
D32*
X0113000Y0083000D03*
X0198000Y0043000D03*
X0255500Y0125500D03*
X0263000Y0148000D03*
X0258000Y0170500D03*
X0278000Y0175500D03*
X0278000Y0188000D03*
X0308000Y0193000D03*
X0328000Y0173000D03*
X0298000Y0153000D03*
X0370500Y0110500D03*
X0398000Y0168000D03*
X0393000Y0208000D03*
X0338000Y0213000D03*
X0325500Y0225500D03*
X0318000Y0238000D03*
X0293000Y0235500D03*
X0270500Y0245500D03*
X0233000Y0243000D03*
X0225500Y0253000D03*
X0220500Y0260500D03*
X0258000Y0273000D03*
X0268000Y0273000D03*
X0278000Y0295500D03*
X0288000Y0305500D03*
X0315500Y0323000D03*
X0328000Y0315500D03*
X0318000Y0300500D03*
X0338000Y0285500D03*
X0333000Y0268000D03*
X0348000Y0245500D03*
X0363000Y0243000D03*
X0373000Y0258000D03*
X0425500Y0245500D03*
X0363000Y0328000D03*
X0235500Y0305500D03*
X0178000Y0260500D03*
X0120500Y0245500D03*
X0103000Y0238000D03*
X0115500Y0203000D03*
X0190500Y0223000D03*
X0283000Y0218000D03*
X0128000Y0143000D03*
X0113000Y0288000D03*
X0123000Y0325500D03*
D33*
X0068000Y0133000D02*
X0068000Y0103000D01*
X0063000Y0103000D01*
X0068000Y0103000D02*
X0113000Y0103000D01*
X0128000Y0088000D01*
X0128000Y0063000D01*
X0148000Y0043000D01*
X0163000Y0043000D01*
X0173000Y0043000D01*
X0228000Y0088000D01*
X0233000Y0088000D01*
X0273000Y0088000D01*
X0318000Y0088000D01*
X0408000Y0088000D01*
D34*
X0285500Y0140500D02*
X0273000Y0140500D01*
X0273000Y0118000D01*
X0233000Y0088000D01*
D35*
X0278000Y0238000D02*
X0278000Y0248000D01*
X0293000Y0254252D01*
X0310500Y0254252D01*
X0318000Y0248000D01*
X0328000Y0248000D02*
X0315500Y0260500D01*
X0270500Y0260500D01*
X0268000Y0263000D01*
X0383000Y0283000D02*
X0393000Y0258000D01*
X0433000Y0258000D02*
X0433000Y0263000D01*
X0383000Y0283000D02*
X0383000Y0293000D01*
M02*
