%
M48
M72
T01C0.02362
T02C0.02400
T03C0.03200
T04C0.04000
T05C0.04331
T06C0.04400
T07C0.04700
T08C0.04724
T09C0.05500
T10C0.07900
T11C0.16200
%
T01
X113000Y83000
X198000Y43000
X255500Y125500
X263000Y148000
X258000Y170500
X278000Y175500
X278000Y188000
X308000Y193000
X328000Y173000
X298000Y153000
X370500Y110500
X398000Y168000
X393000Y208000
X338000Y213000
X325500Y225500
X318000Y238000
X293000Y235500
X270500Y245500
X233000Y243000
X225500Y253000
X220500Y260500
X258000Y273000
X268000Y273000
X278000Y295500
X288000Y305500
X315500Y323000
X328000Y315500
X318000Y300500
X338000Y285500
X333000Y268000
X348000Y245500
X363000Y243000
X373000Y258000
X425500Y245500
X363000Y328000
X235500Y305500
X178000Y260500
X120500Y245500
X103000Y238000
X115500Y203000
X190500Y223000
X283000Y218000
X128000Y143000
X113000Y288000
X123000Y325500
T02
X220500Y193000
X220500Y183000
X220500Y173000
X240500Y173000
X240500Y183000
X240500Y193000
X333000Y193000
X343000Y193000
X353000Y193000
T03
X308000Y168000
X298000Y168000
X288000Y168000
X288000Y143000
X298000Y143000
X308000Y143000
X338000Y225500
X348000Y225500
X358000Y225500
X328000Y248000
X318000Y248000
X308000Y248000
X298000Y248000
X268000Y263000
X258000Y263000
X248000Y263000
X238000Y263000
X193000Y273000
X193000Y283000
X193000Y293000
X153000Y298000
X143000Y298000
X143000Y273000
X153000Y273000
X238000Y293000
X248000Y293000
X258000Y293000
X268000Y293000
X298000Y278000
X308000Y278000
X318000Y278000
X328000Y278000
T04
X208000Y248000
X198000Y248000
X168000Y250500
X158000Y250500
X188000Y305500
X198000Y305500
X188000Y173000
X188000Y153000
X228000Y148000
X228000Y128000
X148000Y153000
X148000Y173000
X108000Y173000
X108000Y153000
X348000Y143000
X348000Y163000
T05
X388000Y118000
X470500Y168000
X535500Y168000
X388000Y238000
X470500Y268000
X535500Y268000
X535500Y63000
X470500Y63000
T06
X318000Y148000
X318000Y188000
X278000Y238000
X278000Y278000
X383000Y293000
X393000Y258000
X383000Y253000
X433000Y258000
X203000Y138000
X163000Y138000
X148000Y185500
X188000Y185500
T07
X63000Y43472
X63000Y63157
X63000Y82843
X63000Y102528
X68079Y133315
X68079Y153000
X68079Y172685
X428000Y167685
X428079Y188315
X428079Y208000
X428079Y227685
X561000Y239500
X561000Y196500
X561000Y134500
X561000Y91500
X428000Y128315
X556000Y301500
X556000Y344500
T08
X87685Y317685
X68000Y317685
X68000Y298000
X87685Y298000
X87685Y278315
X68000Y278315
X68000Y247685
X87685Y247685
X87685Y228000
X68000Y228000
X68000Y208315
X87685Y208315
T09
X98000Y128000
X93000Y103000
X93000Y83000
X93000Y63000
X93000Y43000
X163000Y43000
X163000Y63000
X163000Y83000
X163000Y103000
X158000Y128000
X303000Y123000
X363000Y123000
T10
X318000Y88000
X318000Y48000
X228000Y48000
X228000Y88000
X408000Y88000
X408000Y48000
X238800Y223000
X223000Y223000
X207200Y223000
X173800Y223000
X158000Y223000
X142200Y223000
T11
X503500Y323000
X622500Y323000
X627500Y218000
X508500Y218000
X508500Y113000
X627500Y113000
M30
