%
M48
M72
T01C0.02362
T02C0.03200
T03C0.04000
T04C0.07874
%
T01
X38000Y48000
X28000Y50500
X43000Y28000
X73000Y38000
X30500Y75500
X30500Y88000
X43000Y113000
X68000Y113000
T02
X68000Y88000
X68000Y78000
X68000Y68000
X68000Y58000
X63000Y40500
X53000Y40500
X43000Y40500
X38000Y58000
X38000Y68000
X38000Y78000
X38000Y88000
T03
X33000Y103000
X43000Y103000
X88000Y98000
X88000Y108000
X88000Y88000
X88000Y78000
X88000Y68000
X88000Y58000
X88000Y48000
X88000Y38000
X88000Y28000
T04
X15500Y23000
X15500Y120500
M30
